<svg width="183" height="190" viewBox="0 0 183 190" fill="none" xmlns="http://www.w3.org/2000/svg">
<rect width="182.12" height="190" fill="white"/>
<path d="M105.784 99.6414V90.3603C105.784 89.745 105.524 89.1546 105.063 88.7195C104.601 88.2845 103.974 88.04 103.321 88.04H93.471C92.1111 88.04 91.0085 89.079 91.0085 90.3603V99.6414C91.0085 100.257 91.2679 100.847 91.7297 101.282C92.1914 101.717 92.818 101.962 93.471 101.962H103.321C103.974 101.962 104.601 101.717 105.063 101.282C105.524 100.847 105.784 100.257 105.784 99.6414ZM100.859 97.3211H95.9336V92.6806H100.859V97.3211Z" fill="#9B20DC"/>
<path d="M31.9071 141.407C33.4341 141.405 34.9238 140.958 36.1703 140.127C37.417 139.296 38.3602 138.122 38.8714 136.766H68.8443C69.4973 136.766 70.1239 136.522 70.5857 136.087L80.4359 126.805C80.6711 126.911 80.9108 127.004 81.156 127.086V132.126H86.0811V127.086C88.0566 126.428 89.6429 125.011 90.4445 123.188C91.2459 121.364 91.1887 119.306 90.285 117.526L94.49 113.564H95.9323V120.524H100.857V113.564H103.32V120.524C103.32 121.312 103.743 122.045 104.445 122.472L106.826 123.924C105.691 125.715 105.469 127.891 106.221 129.852C106.974 131.813 108.62 133.353 110.708 134.047V140.594L101.397 151.558C101.048 151.969 100.857 152.481 100.857 153.008V164.61H105.782V153.822L115.093 142.857C115.442 142.446 115.633 141.934 115.633 141.407V134.047C117.081 133.561 118.333 132.663 119.215 131.478L146.308 147.996C147.283 148.589 148.565 148.461 149.386 147.688L156.774 140.727C156.783 140.719 156.789 140.711 156.797 140.702C156.817 140.684 156.834 140.663 156.854 140.644C156.9 140.597 156.943 140.548 156.985 140.497C157.004 140.473 157.022 140.451 157.04 140.427C157.081 140.372 157.119 140.317 157.154 140.259C157.166 140.239 157.181 140.22 157.192 140.201V140.202C157.237 140.124 157.277 140.046 157.313 139.964C157.319 139.948 157.325 139.932 157.331 139.915C157.359 139.848 157.383 139.78 157.403 139.712C157.412 139.683 157.418 139.656 157.425 139.628C157.44 139.566 157.453 139.504 157.463 139.441C157.468 139.414 157.473 139.387 157.476 139.359C157.489 139.269 157.495 139.178 157.496 139.086V97.3215C157.496 95.8288 157.413 94.3372 157.246 92.8527V92.8507C156.256 84.2036 152.426 76.0627 146.29 69.5641C140.155 63.0652 132.021 58.5323 123.02 56.5984V48.5954H118.095V55.8143C109.484 54.9089 100.78 56.3985 93.0573 60.0984L83.6194 52.1938V38.9155C85.828 38.179 87.5352 36.4999 88.2214 34.39C88.9063 32.279 88.4896 29.9876 87.0967 28.2133C85.7028 26.4389 83.4997 25.3916 81.1571 25.3916C78.8144 25.3916 76.6113 26.4388 75.2174 28.2133C73.8245 29.9877 73.4078 32.279 74.0927 34.39C74.7787 36.5 76.486 38.1791 78.6948 38.9155V53.236C78.6948 53.8989 78.996 54.5297 79.5215 54.97L88.5879 62.5638C85.6328 64.419 82.9263 66.6035 80.5262 69.0698L68.8444 59.1632V52.8375C71.053 52.101 72.7603 50.4219 73.4464 48.312C74.1313 46.201 73.7146 43.9096 72.3218 42.1353C70.9278 40.3609 68.7247 39.3136 66.3821 39.3136C64.0394 39.3136 61.8363 40.3608 60.4424 42.1353C59.0495 43.9097 58.6328 46.2009 59.3177 48.312C60.0037 50.422 61.711 52.1011 63.9198 52.8375V60.1971C63.9198 60.8549 64.2155 61.4816 64.7344 61.9218L77.3967 72.6592H77.3978C76.4139 73.925 75.5058 75.2426 74.6791 76.6037C74.39 76.4949 74.081 76.439 73.7699 76.439H51.6069V81.0795H72.3253C70.3355 85.4974 69.1811 90.2084 68.9118 95.0012H38.8714C38.0898 92.9202 36.3077 91.3116 34.0684 90.6651C31.8279 90.0197 29.396 90.4123 27.5129 91.7247C25.6298 93.0382 24.5182 95.1139 24.5182 97.3212C24.5182 99.5286 25.6296 101.604 27.5129 102.918C29.3961 104.23 31.8279 104.623 34.0684 103.977C36.3078 103.331 38.0898 101.722 38.8714 99.6413H68.8442V101.962C68.8442 102.878 69.417 103.709 70.3064 104.082L75.5546 106.28L67.8238 113.563H61.4564V118.204H68.844C69.4971 118.204 70.1237 117.959 70.5854 117.524L80.3763 108.299L89.1931 111.991L86.802 114.244C84.9529 113.41 82.8191 113.338 80.9115 114.046C79.0042 114.753 77.4946 116.175 76.7438 117.973C75.9929 119.77 76.0677 121.78 76.9515 123.523L67.8235 132.125H38.8694C38.2637 130.514 37.0511 129.167 35.4604 128.344C33.8696 127.521 32.0128 127.279 30.244 127.663C28.4762 128.047 26.9197 129.031 25.8719 130.428C24.8241 131.824 24.3581 133.534 24.5637 135.233C24.7693 136.932 25.6312 138.5 26.9845 139.639C28.3389 140.778 30.0901 141.406 31.9051 141.406L31.9071 141.407ZM81.1583 34.6739C80.1622 34.6739 79.2641 34.1084 78.8837 33.2414C78.5022 32.3744 78.7122 31.3769 79.4169 30.7129C80.1216 30.0489 81.1803 29.8511 82.1004 30.2105C83.0206 30.5689 83.6208 31.4152 83.6208 32.3537C83.6197 33.635 82.5182 34.6729 81.1583 34.6739ZM66.3829 48.5956C65.3869 48.5956 64.4887 48.03 64.1084 47.1631C63.7269 46.2961 63.9369 45.2986 64.6415 44.6346C65.3462 43.9706 66.4049 43.7727 67.3251 44.1322C68.2452 44.4906 68.8455 45.3369 68.8455 46.2753C68.8444 47.5566 67.7428 48.5946 66.3829 48.5956ZM31.9071 99.6417C30.9111 99.6417 30.0129 99.0761 29.6326 98.2091C29.2511 97.3422 29.4611 96.3446 30.1657 95.6806C30.8704 95.0167 31.9291 94.8188 32.8493 95.1783C33.7694 95.5367 34.3697 96.383 34.3697 97.3214C34.3686 98.6027 33.267 99.6407 31.9071 99.6417ZM113.172 129.805C112.175 129.805 111.277 129.24 110.897 128.373C110.515 127.506 110.725 126.508 111.43 125.844C112.135 125.18 113.194 124.982 114.114 125.342C115.034 125.7 115.634 126.547 115.634 127.485C115.633 128.766 114.531 129.804 113.172 129.805ZM147.312 143.08L120.516 126.743C120.279 124.656 119.056 122.78 117.185 121.641C115.315 120.5 112.997 120.217 110.88 120.868L108.246 119.262V111.243C108.246 111.185 108.241 111.127 108.237 111.071C110.287 109.952 112.109 108.497 113.615 106.774L116.047 110.21C116.504 110.856 117.272 111.243 118.096 111.243H128.285C130.078 113.144 132.24 114.704 134.657 115.838C137.086 116.973 139.129 118.727 140.555 120.9C141.981 123.073 142.73 125.579 142.721 128.135V134.446C142.721 135.324 143.248 136.128 144.082 136.521L150.879 139.722L147.312 143.08ZM152.572 106.603H148.228L140.259 102.849V100.398L152.572 103.713V106.603ZM152.489 94.9457C152.508 95.2244 152.524 95.503 152.536 95.7837C152.54 95.9039 152.547 96.0251 152.551 96.1452C152.564 96.5378 152.573 96.9294 152.573 97.322V98.886L138.475 95.0909H138.474C137.731 94.891 136.931 95.0308 136.313 95.469C135.697 95.9081 135.334 96.5939 135.334 97.3221V104.283C135.334 105.161 135.86 105.965 136.695 106.358L146.545 110.998C146.887 111.16 147.264 111.244 147.647 111.244H152.572V135.333L147.647 133.013V128.135C147.659 124.718 146.654 121.366 144.748 118.459C142.841 115.553 140.108 113.208 136.859 111.69C134.174 110.436 131.916 108.498 130.341 106.096C128.765 103.694 127.936 100.924 127.946 98.1012V75.5542L132.942 77.9076V77.9066C133.219 80.8513 134.357 83.6659 136.23 86.0368C138.103 88.4077 140.638 90.2433 143.553 91.3371L152.473 94.7191C152.479 94.7948 152.484 94.8704 152.49 94.946L152.489 94.9457ZM120.637 60.8681C127.675 62.1681 134.206 65.2425 139.534 69.7661C144.861 74.2886 148.786 80.0904 150.888 86.5508C151.19 87.4934 151.451 88.4495 151.672 89.4139L145.39 87.0325L145.391 87.0315C143.143 86.1873 141.218 84.7257 139.863 82.8364C138.509 80.9481 137.788 78.7191 137.796 76.4391C137.796 75.5607 137.269 74.7569 136.435 74.3643L126.584 69.7237C125.82 69.3633 124.914 69.4016 124.188 69.8253C123.462 70.2479 123.02 70.9947 123.02 71.7985V98.1007C123.016 101.04 123.704 103.944 125.034 106.603H119.413L116.45 102.416C118.578 97.8259 118.644 92.6208 116.635 87.9835C114.626 83.3471 110.711 79.6739 105.782 77.7981V72.8653L120.637 60.8681ZM113.17 60.1969C113.408 60.1969 113.646 60.2063 113.883 60.2104L103.35 68.7188L97.0499 63.4423C102.121 61.3044 107.614 60.1982 113.17 60.1971L113.17 60.1969ZM92.4075 65.7635L100.857 72.8405V76.5892C97.4711 76.179 94.0289 76.613 90.876 77.8467L84.1862 72.1754C86.6048 69.6956 89.3708 67.5391 92.4072 65.7635L92.4075 65.7635ZM79.2856 102.763L73.7689 100.453V99.6413H79.3174C79.5351 100.431 79.8088 101.206 80.1364 101.962L79.2856 102.763ZM78.6941 95.0008H73.8459C74.0767 91.3629 74.8815 87.778 76.2348 84.3639L80.1363 88.04C79.1821 90.2505 78.693 92.6143 78.6941 95.0008ZM78.4039 79.8445C79.201 78.4368 80.0947 77.0798 81.0776 75.781L86.3973 80.2921C84.9868 81.3155 83.728 82.5119 82.6561 83.8513L78.4039 79.8445ZM83.6192 95.0008C83.6192 91.308 85.1759 87.7677 87.9463 85.1562C90.7178 82.5459 94.4753 81.0792 98.3946 81.0792C102.314 81.0792 106.071 82.5459 108.843 85.1562C111.613 87.7676 113.17 91.308 113.17 95.0008C113.17 98.6936 111.613 102.234 108.843 104.845C106.071 107.456 102.314 108.922 98.3946 108.922C94.4775 108.918 90.7221 107.451 87.9519 104.84C85.1817 102.23 83.6237 98.6913 83.6192 95.0008ZM83.6192 118.204C84.6152 118.204 85.5134 118.769 85.8938 119.636C86.2753 120.503 86.0653 121.501 85.3606 122.165C84.6559 122.829 83.5972 123.026 82.677 122.667C81.7569 122.309 81.1567 121.462 81.1567 120.524C81.1578 119.243 82.2593 118.205 83.6192 118.204ZM31.9055 132.125C32.9015 132.125 33.7997 132.691 34.1801 133.558C34.5615 134.425 34.3516 135.422 33.6469 136.086C32.9422 136.75 31.8835 136.948 30.9633 136.589C30.0432 136.23 29.4429 135.384 29.4429 134.446C29.444 133.164 30.5456 132.126 31.9055 132.125Z" fill="#9B20DC"/>
<path d="M31.9071 122.845C33.4341 122.842 34.9238 122.396 36.1703 121.565C37.4169 120.734 38.3602 119.56 38.8714 118.204H56.5326V113.563H38.8714C38.2657 111.952 37.0531 110.605 35.4624 109.783C33.8716 108.959 32.0148 108.717 30.246 109.101C28.4782 109.485 26.9217 110.469 25.8739 111.866C24.8261 113.262 24.3601 114.972 24.5657 116.671C24.7712 118.37 25.6331 119.938 26.9864 121.077C28.3409 122.216 30.0921 122.845 31.9071 122.845ZM31.9071 113.563C32.9031 113.563 33.8013 114.129 34.1816 114.996C34.5631 115.863 34.3531 116.86 33.6485 117.524C32.9438 118.188 31.8851 118.386 30.9649 118.027C30.0448 117.668 29.4445 116.822 29.4445 115.884C29.4456 114.602 30.5472 113.564 31.9071 113.563Z" fill="#9B20DC"/>
<path d="M31.9071 85.72C33.4341 85.7179 34.9238 85.2715 36.1703 84.4408C37.4169 83.609 38.3602 82.4354 38.8714 81.0794H46.6823V76.4389H38.8714C38.2657 74.8271 37.0531 73.4806 35.4624 72.658C33.8716 71.8345 32.0148 71.5921 30.246 71.9764C28.4782 72.3607 26.9217 73.3448 25.8739 74.7411C24.8261 76.1375 24.3601 77.8477 24.5657 79.5464C24.7712 81.2451 25.6331 82.8133 26.9864 83.9528C28.3409 85.0912 30.0921 85.72 31.9071 85.72ZM31.9071 76.4389C32.9031 76.4389 33.8013 77.0045 34.1816 77.8715C34.5631 78.7385 34.3531 79.736 33.6485 80.4C32.9438 81.064 31.8851 81.2618 30.9649 80.9023C30.0448 80.5439 29.4445 79.6976 29.4445 78.7592C29.4456 77.4779 30.5472 76.4399 31.9071 76.4389Z" fill="#9B20DC"/>
<path d="M95.9336 125.165H100.859V129.806H95.9336V125.165Z" fill="#9B20DC"/>
<path d="M91.0085 153.822L100.319 142.857C100.669 142.446 100.859 141.934 100.859 141.407V134.446H95.9336V140.593L86.6232 151.558C86.2736 151.969 86.0834 152.481 86.0834 153.008V164.61H91.0085V153.822Z" fill="#9B20DC"/>
<path d="M86.0834 141.407V136.767H81.1583V140.593L71.8478 151.559C71.4982 151.97 71.308 152.482 71.308 153.009V164.61H76.2332V153.823L85.5436 142.857C85.8932 142.446 86.0834 141.934 86.0834 141.407Z" fill="#9B20DC"/>
<path d="M123.022 43.9549V38.9155C125.23 38.179 126.938 36.4999 127.624 34.39C128.309 32.279 127.892 29.9876 126.499 28.2133C125.105 26.4389 122.902 25.3916 120.559 25.3916C118.217 25.3916 116.014 26.4388 114.62 28.2133C113.227 29.9877 112.81 32.279 113.495 34.39C114.181 36.5 115.888 38.1791 118.097 38.9155V43.9549H123.022ZM120.559 30.0332C121.555 30.0332 122.453 30.5988 122.834 31.4658C123.215 32.3328 123.005 33.3303 122.301 33.9943C121.596 34.6583 120.537 34.8561 119.617 34.4966C118.697 34.1382 118.097 33.2919 118.097 32.3535C118.098 31.0722 119.199 30.0342 120.559 30.0332Z" fill="#9B20DC"/>
</svg>
