<?xml version="1.0" encoding="utf-8"?>
<!-- Generated by IcoMoon.io -->
<!DOCTYPE svg PUBLIC "-//W3C//DTD SVG 1.1//EN" "http://www.w3.org/Graphics/SVG/1.1/DTD/svg11.dtd">
<svg version="1.1" xmlns="http://www.w3.org/2000/svg" xmlns:xlink="http://www.w3.org/1999/xlink" width="768" height="768" viewBox="0 0 768 768">
<g id="icomoon-ignore">
</g>
<path d="M576 96h-352c-8.48 0-16.64 3.36-22.624 9.376l-96 96c-0.64 0.64-1.248 1.28-1.824 1.984-4.448 5.28-7.2 11.936-7.52 19.2-0.032 0.576-0.032 1.12-0.032 1.696v351.744c0 52.928 43.072 96 96 96h288c41.728 0 77.312-26.752 90.528-64h21.472c44.864 0 80-42.144 80-96v-320c0-52.928-43.072-96-96-96zM192 608c-17.632 0-32-14.336-32-32v-320h64v352h-32zM512 576c0 17.664-14.368 32-32 32h-224v-352h224c17.632 0 32 14.336 32 32v288zM608 512c0 19.84-10.368 32-16 32h-16v-256c0-52.928-43.072-96-96-96h-274.752l32-32h338.752c17.632 0 32 14.336 32 32v320z"></path>
</svg>
