<?xml version="1.0" encoding="utf-8"?>
<!-- Generated by IcoMoon.io -->
<!DOCTYPE svg PUBLIC "-//W3C//DTD SVG 1.1//EN" "http://www.w3.org/Graphics/SVG/1.1/DTD/svg11.dtd">
<svg version="1.1" xmlns="http://www.w3.org/2000/svg" xmlns:xlink="http://www.w3.org/1999/xlink" width="768" height="768" viewBox="0 0 768 768">
<g id="icomoon-ignore">
</g>
<path d="M448 128c0-35.36-28.672-64-64-64s-64 28.64-64 64v384h128v-384z"></path>
<path d="M608 256c0-35.36-28.672-64-64-64s-64 28.64-64 64v256h128v-256z"></path>
<path d="M288 352c0-35.36-28.672-64-64-64s-64 28.64-64 64v160h128v-160z"></path>
<path d="M608 608h-448c-17.696 0-32 14.304-32 32s14.304 32 32 32h448c17.696 0 32-14.304 32-32s-14.304-32-32-32z"></path>
</svg>
