<?xml version="1.0" encoding="utf-8"?>
<!-- Generated by IcoMoon.io -->
<!DOCTYPE svg PUBLIC "-//W3C//DTD SVG 1.1//EN" "http://www.w3.org/Graphics/SVG/1.1/DTD/svg11.dtd">
<svg version="1.1" xmlns="http://www.w3.org/2000/svg" xmlns:xlink="http://www.w3.org/1999/xlink" width="768" height="768" viewBox="0 0 768 768">
<g id="icomoon-ignore">
</g>
<path d="M250.496 608c-25.632 0-49.76-9.984-67.872-28.128l-163.872-163.872 163.872-163.872c36.256-36.288 99.584-36.288 135.776 0.032 37.408 37.376 37.408 98.304-0.032 135.712l-28.096 28.128 28.096 28.128c37.44 37.408 37.44 98.336 0 135.744-18.048 18.144-42.176 28.128-67.872 28.128zM109.248 416l118.624 118.624c12.16 12.128 33.248 12.064 45.216 0.032 12.512-12.512 12.512-32.8 0.032-45.28l-73.344-73.376 73.344-73.376c12.48-12.48 12.48-32.768 0-45.248-12.096-12.128-33.152-12.064-45.248 0l-118.624 118.624z"></path>
<path d="M517.504 608c-25.696 0-49.824-9.984-67.904-28.16-37.408-37.376-37.408-98.304 0.032-135.712l28.096-28.128-28.096-28.128c-37.44-37.408-37.44-98.336 0-135.744 36.128-36.256 99.488-36.288 135.744 0l163.872 163.872-163.872 163.872c-18.112 18.144-42.24 28.128-67.872 28.128zM517.472 288c-8.544 0-16.576 3.328-22.56 9.344-12.512 12.512-12.512 32.8-0.032 45.28l73.344 73.376-73.344 73.376c-12.48 12.48-12.48 32.768 0 45.248 12.064 12.096 33.12 12.128 45.248 0l118.624-118.624-118.624-118.624c-6.080-6.048-14.112-9.376-22.656-9.376z"></path>
</svg>
