<?xml version="1.0" encoding="UTF-8" standalone="no"?>
<!DOCTYPE svg PUBLIC "-//W3C//DTD SVG 1.1//EN" "http://www.w3.org/Graphics/SVG/1.1/DTD/svg11.dtd">
<svg width="100%" height="100%" viewBox="0 0 100 100" version="1.1" xmlns="http://www.w3.org/2000/svg" xmlns:xlink="http://www.w3.org/1999/xlink" xml:space="preserve" xmlns:serif="http://www.serif.com/" style="fill-rule:evenodd;clip-rule:evenodd;stroke-linejoin:round;stroke-miterlimit:2;">
    <path d="M95.602,4.5L95.602,95.5L4.602,95.5L4.602,4.5L95.602,4.5ZM70.969,47.566C70.969,35.536 62.379,25.225 50.544,23.057L50.102,22.974L49.66,23.055C37.825,25.225 29.235,35.536 29.235,47.566C29.235,58.9 36.865,68.703 47.647,71.613L47.647,74.571C47.647,75.929 48.747,77.025 50.102,77.025C51.457,77.025 52.557,75.929 52.557,74.571L52.557,71.613C63.339,68.703 70.969,58.9 70.969,47.566ZM52.557,66.47L52.557,59.121L63.246,48.433C63.725,47.954 63.725,47.176 63.246,46.697C62.767,46.217 61.989,46.217 61.51,46.697L52.557,55.649L52.557,46.847L58.336,41.067C58.815,40.588 58.815,39.811 58.336,39.332C57.857,38.853 57.079,38.853 56.6,39.332L52.557,43.375L52.557,35.29C52.557,33.933 51.457,32.835 50.102,32.835C48.747,32.835 47.647,33.933 47.647,35.29L47.647,43.375L43.606,39.332C43.127,38.853 42.349,38.853 41.87,39.332C41.392,39.811 41.392,40.588 41.87,41.067L47.649,46.847L47.649,55.649L38.699,46.7C38.22,46.22 37.442,46.22 36.963,46.7C36.484,47.177 36.484,47.957 36.963,48.435L47.652,59.124L47.652,66.47C39.676,63.73 34.145,56.21 34.145,47.566C34.145,38.055 40.83,29.887 50.102,27.972C59.374,29.887 66.059,38.055 66.059,47.566C66.059,56.21 60.528,63.73 52.557,66.47Z"/>
</svg>
