<?xml version="1.0" encoding="UTF-8" standalone="no"?>
<!DOCTYPE svg PUBLIC "-//W3C//DTD SVG 1.1//EN" "http://www.w3.org/Graphics/SVG/1.1/DTD/svg11.dtd">
<svg width="100%" height="100%" viewBox="0 0 100 100" version="1.1" xmlns="http://www.w3.org/2000/svg" xmlns:xlink="http://www.w3.org/1999/xlink" xml:space="preserve" style="fill-rule:evenodd;clip-rule:evenodd;stroke-linejoin:round;stroke-miterlimit:1.41421;">
    <path d="M50,5.718L89.404,28.468L89.404,73.968L50,96.718L10.596,73.968L10.596,28.468L50,5.718ZM70.867,49.581C70.867,37.552 62.277,27.241 50.442,25.073L50,24.99L49.558,25.071C37.723,27.241 29.133,37.552 29.133,49.581C29.133,60.916 36.763,70.719 47.545,73.628L47.545,76.586C47.545,77.944 48.645,79.041 50,79.041C51.355,79.041 52.455,77.944 52.455,76.586L52.455,73.628C63.237,70.719 70.867,60.916 70.867,49.581L70.867,49.581ZM52.455,68.485L52.455,61.137L63.144,50.448C63.623,49.969 63.623,49.191 63.144,48.712C62.665,48.233 61.887,48.233 61.408,48.712L52.455,57.665L52.455,48.862L58.234,43.083C58.713,42.604 58.713,41.826 58.234,41.347C57.755,40.868 56.977,40.868 56.498,41.347L52.455,45.391L52.455,37.306C52.455,35.949 51.355,34.851 50,34.851C48.645,34.851 47.545,35.949 47.545,37.306L47.545,45.391L43.504,41.347C43.025,40.868 42.247,40.868 41.768,41.347C41.29,41.826 41.29,42.604 41.768,43.083L47.547,48.862L47.547,57.665L38.597,48.715C38.118,48.236 37.34,48.236 36.861,48.715C36.382,49.193 36.382,49.972 36.861,50.45L47.55,61.139L47.55,68.485C39.574,65.745 34.043,58.225 34.043,49.581C34.043,40.071 40.728,31.903 50,29.988C59.272,31.903 65.957,40.071 65.957,49.581C65.957,58.225 60.426,65.745 52.455,68.485Z"/>
</svg>
