<?xml version="1.0" encoding="utf-8"?>
<!-- Generator: Adobe Illustrator 16.0.0, SVG Export Plug-In . SVG Version: 6.00 Build 0)  -->
<!DOCTYPE svg PUBLIC "-//W3C//DTD SVG 1.1//EN" "http://www.w3.org/Graphics/SVG/1.1/DTD/svg11.dtd">
<svg version="1.1" id="Capa_1" xmlns:serif="http://www.serif.com/"
	 xmlns="http://www.w3.org/2000/svg" xmlns:xlink="http://www.w3.org/1999/xlink" x="0px" y="0px" width="2834.65px"
	 height="1303.941px" viewBox="0 0 2834.65 1303.941" enable-background="new 0 0 2834.65 1303.941" xml:space="preserve">
<rect id="Artboard1" y="264.461" fill="none" width="2828.28" height="765.493"/>
<g>
	<defs>
		<rect id="SVGID_1_" y="264.461" width="2828.28" height="765.493"/>
	</defs>
	<clipPath id="SVGID_2_">
		<use xlink:href="#SVGID_1_"  overflow="visible"/>
	</clipPath>
	<g clip-path="url(#SVGID_2_)">
		<rect x="-1.593" y="262.721" fill="#EB6619" width="764.4" height="764.4"/>
		<g>
			<path fill="#FFFFFF" d="M360.914,682.111h146.373v-81.631H361.062l-18.633,18.643l-63.222,63.137v77.098l76.663,76.664h5.043
				V682.111L360.914,682.111z"/>
			<path fill="#FFFFFF" d="M335.55,627.892v-91.866h171.736V453.82H253.93v255.841l18.632-18.633l63.138-63.137H335.55z"/>
		</g>
		<g>
			<path fill="#FFFFFF" d="M844.203,647.629h22.644v-61.846h60.988V566.98h-60.988v-42.721h72.895v-19.983h-95.538V647.629z"/>
			<path fill="#FFFFFF" d="M1051.325,586.952c3.471-2.601,6.478-5.762,8.924-9.353c2.445-3.818,4.341-7.969,5.631-12.324
				c1.359-4.51,2.04-9.21,2.016-13.923c0.012-5.858-1.109-11.668-3.292-17.108c-2.136-5.488-5.226-10.57-9.139-14.985
				c-3.938-4.414-8.709-8.016-14.03-10.617c-5.548-2.887-11.704-4.415-17.955-4.474h-62.383v143.355h22.644v-49.834h33.153
				l31.138,49.834h25.602l-33.786-54.402C1044.012,591.772,1047.901,589.685,1051.325,586.952L1051.325,586.952z M1032.093,575.583
				c-2.72,1.443-5.75,2.171-8.829,2.124H983.74v-53.233h38.354c3.007,0,5.954,0.728,8.615,2.124c2.755,1.42,5.212,3.376,7.229,5.739
				c2.16,2.528,3.877,5.404,5.094,8.506c1.323,3.377,1.979,6.992,1.909,10.619c0.07,3.615-0.478,7.205-1.586,10.629
				c-1.014,3.09-2.518,6.001-4.462,8.602C1036.972,572.767,1034.658,574.425,1032.093,575.583z"/>
			<rect x="1094.571" y="504.168" fill="#FFFFFF" width="22.632" height="143.355"/>
			<path fill="#FFFFFF" d="M1240.693,615.429c-2.792,2.888-5.977,5.358-9.459,7.337c-3.317,1.921-6.896,3.353-10.63,4.248
				c-3.484,0.835-7.039,1.264-10.619,1.276c-6.466,0.071-12.849-1.432-18.6-4.354c-5.619-2.84-10.605-6.776-14.661-11.585
				c-4.177-4.974-7.41-10.666-9.568-16.786c-2.291-6.418-3.437-13.171-3.401-19.982c0.024-6.311,1.026-12.587,2.972-18.6
				c1.896-6.061,4.843-11.751,8.72-16.786c3.83-4.976,8.686-9.067,14.233-12.002c6.108-3.15,12.897-4.725,19.769-4.57
				c3.566-0.012,7.134,0.347,10.629,1.062c3.698,0.728,7.278,1.981,10.619,3.71c3.46,1.849,6.585,4.259,9.247,7.122
				c2.958,3.138,5.403,6.729,7.229,10.63l17.215-11.047c-4.832-9.389-12.193-17.228-21.248-22.644
				c-9.998-6.168-21.534-9.365-33.261-9.247c-10.129-0.179-20.164,1.969-29.337,6.276c-8.327,3.96-15.772,9.568-21.891,16.463
				c-5.955,6.764-10.559,14.591-13.601,23.062c-6.538,17.108-6.538,36.042,0,53.137c3.27,8.638,8.053,16.631,14.137,23.586
				c5.955,6.92,13.171,12.658,21.248,16.905c8.555,4.354,18.039,6.585,27.631,6.478c5.846-0.023,11.667-0.775,17.322-2.231
				c5.811-1.456,11.417-3.638,16.691-6.478c5.189-2.851,9.949-6.431,14.126-10.629c4.139-4.057,7.42-8.9,9.674-14.245
				l-18.813-10.617C1245.549,608.761,1243.391,612.316,1240.693,615.429z"/>
			<path fill="#FFFFFF" d="M1273.097,524.259h47.828v123.37h22.847v-123.37h47.602v-19.983h-118.277L1273.097,524.259
				L1273.097,524.259z"/>
			<rect x="1410.617" y="504.168" fill="#FFFFFF" width="22.631" height="143.355"/>
			<path fill="#FFFFFF" d="M1575.325,526.275c-5.941-6.884-13.158-12.551-21.247-16.678c-8.876-4.415-18.683-6.598-28.597-6.384
				c-9.496-0.083-18.897,1.944-27.524,5.953c-8.243,3.854-15.652,9.306-21.784,16.046c-6.216,6.812-11.155,14.698-14.555,23.277
				c-3.483,8.721-5.25,18.025-5.201,27.415c0.012,9.186,1.706,18.301,4.986,26.879c3.197,8.565,7.958,16.463,14.03,23.276
				c5.965,6.776,13.183,12.335,21.26,16.369c17.549,8.076,37.795,8.076,55.356,0c8.256-3.854,15.688-9.271,21.892-15.94
				c6.239-6.705,11.144-14.53,14.46-23.061c6.752-17.358,6.752-36.626,0-53.985C1585.431,541.021,1581.005,533.183,1575.325,526.275
				L1575.325,526.275z M1567.988,594.921c-1.956,6.085-4.975,11.775-8.924,16.798c-3.853,4.951-8.709,9.031-14.232,12.002
				c-5.965,3.138-12.622,4.712-19.35,4.57c-6.598,0.107-13.125-1.396-19.019-4.354c-5.57-2.816-10.486-6.764-14.447-11.585
				c-4.043-4.999-7.134-10.688-9.138-16.786c-2.148-6.334-3.222-12.98-3.197-19.661c-0.132-6.633,0.835-13.242,2.875-19.554
				c1.955-6.049,4.975-11.704,8.924-16.678c3.937-4.868,8.816-8.877,14.352-11.799c11.954-5.99,26.079-5.99,38.033,0
				c5.513,2.815,10.393,6.728,14.352,11.477c4.104,5.047,7.243,10.809,9.247,17c4.176,12.551,4.176,26.127,0,38.678
				L1567.988,594.921L1567.988,594.921z"/>
			<path fill="#FFFFFF" d="M1717.081,607.568l-82.032-103.292h-17.753v143.354h22.645V546.58l81.185,101.049h18.706V504.383h-22.75
				V607.568L1717.081,607.568z"/>
			<path fill="#FFFFFF" d="M1794.771,504.276h-22.644v143.354h99.581v-20.078h-76.938V504.276z"/>
			<path fill="#FFFFFF" d="M1912.726,583.766h63.97v-18.813h-63.97v-40.693h73.848v-19.983h-96.479v143.354h98.294v-20.078h-75.662
				V583.766L1912.726,583.766z"/>
			<path fill="#FFFFFF" d="M2096.881,579.938c-4.533-3.353-9.544-6.001-14.876-7.863c-6.431-2.314-12.993-4.271-19.661-5.846
				l-15.511-4.14c-3.698-1.085-7.265-2.576-10.629-4.462c-2.636-1.384-4.903-3.388-6.586-5.846
				c-1.515-2.601-2.255-5.596-2.123-8.613c-0.239-5.655,2.303-11.096,6.8-14.555c6.323-3.997,13.792-5.823,21.249-5.202
				c4.258-0.024,8.493,0.441,12.645,1.384c3.866,0.859,7.636,2.064,11.263,3.603c3.149,1.337,6.169,2.935,9.044,4.784
				c2.123,1.361,4.091,2.959,5.834,4.785l10.629-18.6c-6.525-4.771-13.684-8.625-21.248-11.477
				c-9.043-3.341-18.635-4.927-28.273-4.677c-6.969-0.047-13.911,0.918-20.616,2.875c-5.978,1.707-11.572,4.558-16.464,8.388
				c-4.51,3.746-8.137,8.422-10.63,13.72c-2.78,5.833-4.163,12.24-4.033,18.695c-0.13,4.962,0.812,9.89,2.756,14.459
				c1.826,4.092,4.546,7.719,7.971,10.617c3.984,3.234,8.471,5.774,13.29,7.552c6.108,2.338,12.359,4.33,18.694,5.953
				c6.169,1.623,11.691,3.186,16.583,4.677c4.26,1.217,8.387,2.851,12.324,4.879c3.018,1.539,5.667,3.723,7.754,6.383
				c1.908,2.649,2.888,5.87,2.768,9.139c0.252,5.535-2.517,10.785-7.229,13.708c-6.299,3.46-13.445,5.07-20.616,4.677
				c-5.368,0.023-10.725-0.621-15.938-1.921c-4.855-1.193-9.616-2.756-14.245-4.676c-3.997-1.623-7.838-3.615-11.477-5.941
				c-2.696-1.694-5.226-3.663-7.54-5.846l-10.631,19.338c8.281,6.372,17.586,11.263,27.523,14.448
				c10.309,3.316,21.069,4.975,31.89,4.891c6.86,0.036,13.721-0.74,20.401-2.338c5.953-1.372,11.608-3.818,16.678-7.23
				c4.749-3.292,8.614-7.707,11.264-12.848c2.898-5.846,4.33-12.301,4.15-18.815c0.18-5.75-0.989-11.464-3.398-16.678
				C2104.351,586.797,2100.997,582.896,2096.881,579.938L2096.881,579.938z"/>
			<path fill="#FFFFFF" d="M2220.157,579.938c-4.533-3.353-9.557-6.001-14.878-7.863c-6.442-2.314-13.004-4.271-19.661-5.846
				l-15.199-4.14c-3.697-1.085-7.264-2.576-10.629-4.462c-2.637-1.384-4.902-3.388-6.586-5.846
				c-1.515-2.601-2.254-5.596-2.123-8.613c-0.238-5.655,2.303-11.096,6.8-14.555c6.335-3.997,13.792-5.823,21.26-5.202
				c4.248-0.024,8.495,0.441,12.646,1.384c3.854,0.859,7.625,2.064,11.264,3.603c3.137,1.337,6.154,2.935,9.029,4.784
				c2.124,1.361,4.093,2.959,5.847,4.785l10.618-18.6c-6.526-4.771-13.672-8.625-21.248-11.477
				c-9.103-3.377-18.778-4.964-28.477-4.677c-6.98-0.047-13.924,0.918-20.616,2.875c-5.989,1.707-11.584,4.558-16.476,8.388
				c-4.498,3.746-8.125,8.422-10.63,13.72c-2.768,5.833-4.152,12.24-4.032,18.695c-0.12,4.962,0.824,9.89,2.768,14.459
				c1.826,4.092,4.546,7.719,7.97,10.617c3.983,3.234,8.47,5.774,13.278,7.552c6.119,2.338,12.359,4.33,18.707,5.953
				c6.156,1.623,11.691,3.186,16.57,4.677c4.26,1.217,8.387,2.851,12.336,4.879c3.006,1.539,5.654,3.723,7.755,6.383
				c1.909,2.649,2.875,5.87,2.755,9.139c0.263,5.535-2.516,10.785-7.217,13.708c-6.299,3.46-13.445,5.07-20.615,4.677
				c-5.381,0.023-10.726-0.621-15.939-1.921c-4.867-1.193-9.628-2.756-14.244-4.676c-3.996-1.623-7.838-3.615-11.477-5.941
				c-2.709-1.694-5.227-3.663-7.541-5.846l-10.629,19.338c8.326,6.264,17.668,11.047,27.63,14.138
				c10.296,3.316,21.057,4.963,31.877,4.88c6.872,0.047,13.72-0.74,20.401-2.339c5.953-1.361,11.608-3.818,16.69-7.217
				c4.749-3.306,8.614-7.719,11.262-12.862c2.899-5.833,4.319-12.299,4.14-18.813c0.18-5.667-0.941-11.298-3.293-16.464
				C2227.839,586.702,2224.38,582.836,2220.157,579.938L2220.157,579.938z"/>
			<path fill="#FFFFFF" d="M2408.464,525.213c-6.084-6.598-13.517-11.822-21.785-15.307c-9.639-3.936-19.982-5.858-30.398-5.63
				h-50.906v143.247h50.906c9.879,0.167,19.686-1.564,28.908-5.094c8.291-3.222,15.795-8.185,21.999-14.556
				c6.204-6.49,10.976-14.197,14.03-22.644c3.424-9.46,5.105-19.47,4.986-29.54c0.049-9.424-1.455-18.801-4.462-27.738
				C2418.95,539.529,2414.417,531.787,2408.464,525.213z M2400.065,596.305c-1.838,6.037-4.881,11.632-8.924,16.476
				c-4.08,4.593-9.127,8.22-14.77,10.629c-6.348,2.721-13.195,4.057-20.092,3.926h-28.262V524.473h28.262
				c6.789-0.12,13.518,1.182,19.769,3.818c5.632,2.434,10.667,6.061,14.771,10.63c4.175,4.724,7.324,10.26,9.246,16.26
				c2.183,6.872,3.221,14.054,3.078,21.248C2403.12,583.183,2402.081,589.875,2400.065,596.305L2400.065,596.305z"/>
			<path fill="#FFFFFF" d="M2487.097,504.168l-56.955,143.355h24.016l14.983-39h55.356l15.092,39h24.017l-56.741-143.355H2487.097
				L2487.097,504.168z M2473.174,591.843l23.802-61.524l23.061,61.524H2473.174z"/>
			<path fill="#FFFFFF" d="M2672.325,504.276h-118.383v19.983h47.816v123.37h22.846v-123.37h47.721V504.276L2672.325,504.276z"/>
			<path fill="#FFFFFF" d="M2739.267,504.168h-19.77l-56.954,143.355h24.015l15.199-38.893h55.369l15.08,39h23.812L2739.267,504.168
				L2739.267,504.168z M2705.587,591.843l23.801-61.524l23.062,61.524H2705.587z"/>
			<path fill="#FFFFFF" d="M892.557,752.199c-2.445-1.718-5.13-3.079-7.969-4.033c-3.483-1.144-7.039-2.099-10.629-2.876
				c-3.604-0.774-6.729-1.549-9.342-2.337c-2.314-0.621-4.533-1.552-6.597-2.757c-1.658-0.691-3.125-1.789-4.247-3.195
				c-0.931-1.91-1.301-4.045-1.062-6.156c-0.287-4.069,1.419-8.031,4.569-10.632c4.283-2.887,9.414-4.233,14.555-3.828
				c4.152-0.062,8.268,0.691,12.122,2.243c3.233,1.275,6.145,3.269,8.494,5.834l3.615-5.941c-3.15-2.732-6.74-4.892-10.629-6.385
				c-4.308-1.608-8.888-2.396-13.494-2.337c-3.591-0.012-7.169,0.489-10.629,1.492c-3.114,0.941-6.037,2.456-8.602,4.462
				c-2.41,1.775-4.343,4.103-5.632,6.8c-1.336,2.935-1.991,6.132-1.908,9.352c-0.107,2.662,0.394,5.322,1.479,7.757
				c1.097,2.135,2.707,3.959,4.676,5.319c2.315,1.611,4.856,2.864,7.552,3.712c2.971,0.99,6.514,1.955,10.619,2.875
				c4.115,0.918,7.408,1.765,9.89,2.553c2.481,0.681,4.879,1.681,7.122,2.97c1.73,1.014,3.186,2.434,4.248,4.142
				c1.014,1.775,1.526,3.806,1.491,5.845c0.25,3.948-1.719,7.729-5.106,9.782c-4.307,2.423-9.21,3.556-14.138,3.294
				c-2.911,0.095-5.833-0.121-8.708-0.646c-2.554-0.489-5.035-1.24-7.445-2.229c-2.195-0.909-4.295-2.053-6.264-3.402
				c-1.778-1.156-3.412-2.515-4.892-4.031L842.08,776c8.446,7.146,19.231,10.928,30.291,10.629
				c3.579,0.024,7.134-0.368,10.629-1.167c3.078-0.718,6-2.018,8.601-3.819c2.363-1.646,4.295-3.841,5.632-6.383
				c1.396-2.803,2.087-5.906,2.016-9.031c0.107-2.935-0.512-5.857-1.801-8.507C896.255,755.54,894.584,753.654,892.557,752.199z"/>
			<path fill="#FFFFFF" d="M965.248,718.305c-2.004-2.243-4.427-4.094-7.122-5.417c-2.768-1.371-5.834-2.062-8.924-2.027h-31.245
				v75.445h7.443v-28.047h24.434c3.066,0.023,6.084-0.668,8.828-2.018c2.589-1.323,4.892-3.125,6.801-5.32
				c1.944-2.254,3.448-4.844,4.462-7.646c1.062-2.851,1.598-5.882,1.587-8.924c-0.156-2.757-0.8-5.452-1.909-7.969
				C968.647,723.448,967.168,720.715,965.248,718.305L965.248,718.305z M963.125,741.043c-0.668,2.003-1.67,3.864-2.983,5.523
				c-1.265,1.587-2.863,2.899-4.676,3.83c-1.838,0.941-3.878,1.407-5.941,1.383H925.4v-34.43h22.954
				c2.052,0,4.092,0.477,5.941,1.372c1.873,0.896,3.531,2.159,4.892,3.723c2.898,3.364,4.485,7.67,4.461,12.121
				C963.828,736.737,963.649,738.92,963.125,741.043z"/>
			<path fill="#FFFFFF" d="M996.803,750.814h36.877v-6.264h-36.877v-27.2h42.292v-6.489h-49.725v75.445h50.692v-6.584h-43.259
				V750.814L996.803,750.814z"/>
			<path fill="#FFFFFF" d="M1107.755,772.503c-1.719,1.694-3.651,3.162-5.74,4.354c-2.039,1.134-4.223,1.992-6.49,2.555
				c-2.16,0.5-4.366,0.75-6.584,0.739c-3.878,0.011-7.708-0.896-11.156-2.662c-3.412-1.717-6.454-4.103-8.924-7.015
				c-2.601-3.149-4.616-6.751-5.952-10.618c-1.479-3.841-2.231-7.908-2.231-12.013c-0.083-3.663,0.382-7.312,1.372-10.844
				c1.158-3.652,2.958-7.076,5.321-10.094c2.41-2.983,5.417-5.441,8.816-7.219c3.71-1.896,7.838-2.852,12.013-2.768
				c2.099-0.011,4.2,0.204,6.264,0.632c2.147,0.465,4.223,1.218,6.167,2.232c2.064,1.108,3.961,2.504,5.631,4.15
				c1.838,1.814,3.354,3.938,4.462,6.264l5.847-3.602c-2.302-4.928-6.001-9.069-10.63-11.907c-5.19-3.125-11.155-4.712-17.215-4.569
				c-5.25-0.107-10.464,1.014-15.2,3.292c-4.294,2.125-8.124,5.083-11.263,8.709c-3.03,3.545-5.368,7.611-6.907,12.015
				c-3.329,8.948-3.329,18.789,0,27.737c1.694,4.546,4.175,8.758,7.337,12.432c2.958,3.579,6.561,6.562,10.629,8.816
				c4.391,2.291,9.282,3.461,14.233,3.399c2.982-0.011,5.941-0.403,8.829-1.168c2.958-0.764,5.811-1.909,8.495-3.401
				c2.685-1.455,5.153-3.279,7.337-5.415c2.577-2.076,4.676-4.689,6.155-7.648l-6.155-3.195
				C1111.143,768.221,1109.64,770.523,1107.755,772.503L1107.755,772.503z"/>
			<rect x="1136.018" y="710.861" fill="#FFFFFF" width="7.444" height="75.445"/>
			<path fill="#FFFFFF" d="M1167.681,786.306h7.444v-35.062h35.493v-6.062h-35.493V717.35h42.078v-6.489h-49.522V786.306
				L1167.681,786.306z"/>
			<rect x="1235.588" y="710.861" fill="#FFFFFF" width="7.443" height="75.445"/>
			<path fill="#FFFFFF" d="M1316.773,772.503c-1.707,1.694-3.639,3.149-5.739,4.354c-2.028,1.134-4.211,1.992-6.477,2.555
				c-2.125,0.487-4.295,0.739-6.479,0.739c-3.913,0.021-7.778-0.885-11.261-2.662c-3.424-1.717-6.455-4.103-8.936-7.015
				c-2.601-3.149-4.617-6.751-5.954-10.618c-1.467-3.841-2.219-7.908-2.231-12.013c0.061-3.687,0.668-7.337,1.814-10.844
				c1.145-3.652,2.947-7.076,5.308-10.094c2.411-2.983,5.417-5.452,8.829-7.219c3.71-1.896,7.837-2.852,12.002-2.768
				c2.112-0.011,4.211,0.204,6.275,0.632c2.147,0.465,4.212,1.218,6.156,2.232c2.064,1.108,3.961,2.504,5.631,4.15
				c1.837,1.814,3.353,3.938,4.462,6.264l5.846-3.602c-2.302-4.928-6-9.069-10.618-11.907c-5.19-3.125-11.167-4.712-17.216-4.569
				c-5.261-0.107-10.462,1.014-15.199,3.292c-4.307,2.125-8.136,5.083-11.263,8.709c-3.066,3.545-5.439,7.611-7.016,12.015
				c-3.327,8.948-3.327,18.789,0,27.737c1.66,4.534,4.104,8.746,7.219,12.432c3.125,3.628,6.92,6.621,11.167,8.816
				c4.39,2.291,9.282,3.461,14.232,3.399c2.983-0.011,5.941-0.403,8.829-1.168c2.958-0.764,5.823-1.909,8.495-3.401
				c2.684-1.466,5.154-3.279,7.337-5.415c2.183-2.148,3.912-4.712,5.094-7.541l-6.156-3.197
				C1319.947,768.256,1318.539,770.523,1316.773,772.503L1316.773,772.503z"/>
			<path fill="#FFFFFF" d="M1367.787,710.861l-31.877,75.445h7.969l9.664-23.585h33.905l9.771,23.585h8.077l-31.877-75.445H1367.787
				z M1355.463,756.875l15.402-37.294l15.199,37.294H1355.463z"/>
			<path fill="#FFFFFF" d="M1406.465,717.35h26.891v68.956h7.431V717.35h26.892v-6.489h-61.213V717.35z"/>
			<rect x="1484.251" y="710.861" fill="#FFFFFF" width="7.443" height="75.445"/>
			<path fill="#FFFFFF" d="M1571.926,722.445c-2.947-3.591-6.549-6.587-10.63-8.816c-4.475-2.278-9.425-3.448-14.447-3.4
				c-4.856-0.059-9.652,1.001-14.03,3.077c-4.271,2.065-8.101,4.951-11.263,8.507c-3.233,3.58-5.798,7.72-7.551,12.217
				c-1.778,4.604-2.685,9.508-2.648,14.448c0,4.83,0.858,9.615,2.553,14.137c1.634,4.485,4.092,8.625,7.217,12.229
				c3.113,3.578,6.908,6.501,11.168,8.602c9.007,4.247,19.457,4.247,28.477,0c4.225-2.041,8.017-4.892,11.155-8.399
				c9.865-11.046,12.777-26.724,7.539-40.586C1577.676,730.044,1575.124,725.976,1571.926,722.445L1571.926,722.445z
				 M1571.926,760.061c-1.229,3.854-3.125,7.455-5.632,10.629c-2.421,2.983-5.428,5.441-8.816,7.229
				c-7.229,3.566-15.724,3.566-22.953,0c-3.389-1.718-6.383-4.104-8.828-7.014c-2.518-2.983-4.462-6.407-5.738-10.095
				c-1.349-3.829-2.028-7.849-2.018-11.906c0.072-4.067,0.859-8.099,2.339-11.904c1.217-3.844,3.126-7.445,5.631-10.618
				c2.409-2.959,5.417-5.393,8.816-7.123c3.592-1.814,7.564-2.732,11.584-2.662c3.913-0.035,7.779,0.885,11.263,2.662
				c3.377,1.692,6.37,4.043,8.828,6.907c2.506,2.994,4.45,6.407,5.739,10.094c1.407,3.806,2.123,7.838,2.123,11.905
				c0.023,4.058-0.656,8.076-2.017,11.896H1571.926L1571.926,760.061z"/>
			<path fill="#FFFFFF" d="M1656.726,773.565l-49.939-62.704h-5.738v75.445h7.432v-61.632l49.201,61.632h6.49v-75.338h-7.445
				V773.565L1656.726,773.565z"/>
			<path fill="#FFFFFF" d="M1732.816,752.199c-2.552-1.707-5.344-3.042-8.292-3.926c-3.495-1.146-7.038-2.111-10.629-2.875
				c-3.615-0.775-6.729-1.55-9.354-2.338c-2.302-0.621-4.521-1.552-6.585-2.757c-1.527-0.917-2.815-2.194-3.723-3.723
				c-0.906-1.74-1.348-3.674-1.276-5.629c-0.298-4.08,1.408-8.042,4.568-10.632c4.283-2.886,9.414-4.233,14.567-3.828
				c4.141-0.072,8.268,0.691,12.109,2.23c3.245,1.288,6.145,3.281,8.506,5.847l3.615-5.941c-3.149-2.732-6.74-4.892-10.63-6.385
				c-4.283-1.598-8.816-2.386-13.386-2.337c-3.603-0.011-7.182,0.489-10.629,1.49c-3.413,0.812-6.634,2.291-9.462,4.356
				c-2.398,1.775-4.33,4.115-5.631,6.8c-1.336,2.935-1.992,6.132-1.908,9.354c-0.107,2.66,0.404,5.32,1.479,7.755
				c1.097,2.135,2.708,3.959,4.676,5.319c2.314,1.611,4.855,2.864,7.552,3.712c2.971,0.99,6.514,1.955,10.617,2.875
				c4.117,0.918,7.41,1.765,9.892,2.553c2.493,0.681,4.879,1.681,7.122,2.97c1.766,1.003,3.257,2.434,4.354,4.142
				c0.979,1.788,1.457,3.816,1.385,5.845c0.25,3.948-1.718,7.729-5.105,9.782c-4.271,2.398-9.139,3.544-14.031,3.294
				c-2.778-0.013-5.56-0.299-8.279-0.848c-2.553-0.502-5.047-1.253-7.444-2.231c-2.194-0.918-4.306-2.063-6.274-3.399
				c-1.766-1.17-3.401-2.529-4.881-4.046l-3.721,6.062c8.445,7.146,19.23,10.928,30.29,10.618c3.566,0.022,7.134-0.371,10.618-1.158
				c3.091-0.727,6.013-2.028,8.613-3.83c2.35-1.646,4.283-3.828,5.631-6.383c1.396-2.792,2.101-5.893,2.018-9.031
				c0.107-2.935-0.514-5.858-1.803-8.494C1736.24,755.373,1734.69,753.595,1732.816,752.199L1732.816,752.199z"/>
			<path fill="#FFFFFF" d="M1810.71,710.861l-31.877,75.445h7.969l9.664-23.585h33.904l9.771,23.585h7.862l-31.878-75.445H1810.71z
				 M1798.481,756.875l15.414-37.294l15.2,37.294H1798.481L1798.481,756.875z"/>
			<path fill="#FFFFFF" d="M1920.158,773.565l-49.94-62.704h-5.738v75.445h7.433v-61.632l49.213,61.632h6.478v-75.338h-7.444
				V773.565L1920.158,773.565z"/>
			<path fill="#FFFFFF" d="M2004.434,721.919c-3.113-3.496-6.968-6.253-11.263-8.076c-5.011-2.088-10.414-3.102-15.843-2.982
				h-25.603v75.445h25.603c5.13,0.107,10.212-0.799,14.984-2.646c4.296-1.719,8.172-4.331,11.381-7.66
				c3.197-3.424,5.655-7.469,7.218-11.894c1.754-4.989,2.625-10.236,2.554-15.521c0-5.024-0.835-10.011-2.446-14.771
				C2009.647,729.448,2007.404,725.403,2004.434,721.919L2004.434,721.919z M2004.434,760.919c-1.169,3.628-3.042,6.979-5.523,9.878
				c-2.458,2.827-5.5,5.083-8.936,6.587c-3.926,1.646-8.16,2.445-12.432,2.338h-18.17V717.35h18.17
				c4.199-0.072,8.352,0.727,12.229,2.338c3.412,1.433,6.454,3.614,8.924,6.371c2.518,2.852,4.427,6.167,5.632,9.782
				c1.312,4.045,1.968,8.281,1.908,12.539c-0.012,4.223-0.692,8.424-2.016,12.431L2004.434,760.919L2004.434,760.919z"/>
			<path fill="#FFFFFF" d="M2109.956,752.199c-2.553-1.707-5.344-3.042-8.291-3.926c-3.483-1.146-7.038-2.111-10.63-2.875
				c-3.603-0.775-6.728-1.55-9.341-2.338c-2.314-0.621-4.533-1.552-6.598-2.757c-1.527-0.917-2.804-2.194-3.711-3.723
				c-0.919-1.74-1.348-3.674-1.277-5.629c-0.297-4.08,1.41-8.042,4.57-10.632c4.271-2.886,9.414-4.233,14.556-3.828
				c4.14-0.072,8.267,0.691,12.108,2.23c3.245,1.288,6.145,3.281,8.506,5.847l3.615-5.941c-3.149-2.732-6.74-4.892-10.629-6.385
				c-4.283-1.598-8.816-2.386-13.387-2.337c-3.603-0.011-7.17,0.489-10.631,1.49c-3.065,0.86-5.941,2.256-8.506,4.142
				c-2.397,1.777-4.33,4.115-5.631,6.799c-1.336,2.935-1.992,6.133-1.908,9.354c-0.107,2.671,0.405,5.32,1.49,7.754
				c1.086,2.136,2.697,3.962,4.678,5.32c2.303,1.611,4.855,2.864,7.54,3.712c2.97,1.001,6.515,1.955,10.63,2.875
				c4.104,0.917,7.396,1.765,9.879,2.553c2.492,0.68,4.879,1.681,7.121,2.972c1.766,1.014,3.258,2.432,4.355,4.15
				c0.979,1.777,1.455,3.806,1.383,5.833c0.252,3.949-1.717,7.732-5.105,9.785c-4.26,2.409-9.127,3.542-14.019,3.292
				c-2.792,0-5.56-0.288-8.29-0.848c-2.555-0.5-5.035-1.253-7.445-2.231c-2.195-0.918-4.295-2.063-6.263-3.4
				c-1.778-1.167-3.413-2.528-4.893-4.045l-3.722,6.062c8.446,7.146,19.231,10.928,30.291,10.629
				c3.578,0.014,7.146-0.368,10.631-1.17c3.076-0.727,6-2.027,8.601-3.827c2.362-1.648,4.296-3.83,5.631-6.372
				c1.408-2.805,2.1-5.906,2.017-9.042c0.107-2.937-0.514-5.858-1.801-8.496C2114.036,755.133,2112.152,753.428,2109.956,752.199
				L2109.956,752.199z"/>
			<path fill="#FFFFFF" d="M2191.679,722.445c-2.945-3.591-6.55-6.587-10.63-8.816c-4.474-2.278-9.437-3.448-14.459-3.4
				c-4.845-0.059-9.64,1.001-14.019,3.077c-4.283,2.065-8.111,4.951-11.262,8.507c-3.246,3.58-5.799,7.72-7.552,12.217
				c-1.79,4.604-2.685,9.508-2.661,14.448c0.012,4.83,0.871,9.615,2.554,14.137c1.646,4.485,4.093,8.625,7.229,12.229
				c3.114,3.578,6.907,6.501,11.154,8.602c9.008,4.247,19.471,4.247,28.479,0c4.234-2.041,8.029-4.892,11.166-8.399
				c9.854-11.046,12.766-26.724,7.541-40.586C2197.43,730.044,2194.876,725.976,2191.679,722.445L2191.679,722.445z
				 M2191.679,760.061c-1.229,3.854-3.137,7.455-5.63,10.629c-2.423,2.983-5.429,5.441-8.83,7.229
				c-7.229,3.566-15.724,3.566-22.952,0c-3.377-1.718-6.383-4.104-8.817-7.014c-2.517-2.983-4.462-6.407-5.737-10.095
				c-1.35-3.829-2.029-7.849-2.018-11.906c-0.012-3.9,0.633-7.789,1.909-11.477c1.218-3.854,3.126-7.456,5.631-10.629
				c2.409-2.959,5.417-5.382,8.816-7.111c3.591-1.824,7.564-2.732,11.584-2.66c3.913-0.035,7.778,0.871,11.274,2.66
				c3.365,1.694,6.358,4.045,8.816,6.909c2.613,3.066,4.629,6.598,5.953,10.403c1.408,3.816,2.124,7.849,2.124,11.904
				C2193.708,752.724,2192.991,756.495,2191.679,760.061L2191.679,760.061z"/>
			<path fill="#FFFFFF" d="M2220.478,786.306h7.435v-35.062h35.491v-6.062h-35.491V717.35h42.077v-6.489h-49.512V786.306
				L2220.478,786.306z"/>
			<path fill="#FFFFFF" d="M2280.728,717.35h26.891v68.956h7.432V717.35h26.891v-6.489h-61.213V717.35z"/>
			<path fill="#FFFFFF" d="M2423.651,777.597l-14.448-34.107l13.171-32.094h-7.109l-10.737,26.771l-10.63-26.771h-7.016
				l13.184,32.094l-14.354,34.107l-27.414-66.736h-7.97l31.89,75.445h6.478l15.938-37.294l15.832,37.294h6.586l31.998-75.445h-8.078
				L2423.651,777.597z"/>
			<path fill="#FFFFFF" d="M2491.881,710.861l-31.878,75.445h7.969l9.664-23.585h33.906l9.77,23.585h7.863l-31.879-75.445H2491.881z
				 M2479.556,756.875l15.402-37.294l15.521,37.294H2479.556z"/>
			<path fill="#FFFFFF" d="M2589.959,754.322c2.064-1.359,3.865-3.091,5.32-5.095c1.479-2.076,2.625-4.378,3.401-6.799
				c0.834-2.577,1.265-5.261,1.275-7.97c-0.023-2.958-0.607-5.871-1.705-8.614c-1.062-2.768-2.613-5.32-4.569-7.539
				c-2.004-2.243-4.427-4.08-7.122-5.417c-2.804-1.385-5.906-2.076-9.031-2.027h-31.879v75.445h7.445v-28.047h22.309l17.754,27.845
				h8.387l-18.492-29.122C2585.509,756.578,2587.858,755.669,2589.959,754.322L2589.959,754.322z M2552.987,751.78v-34.43h24.016
				c2.063-0.013,4.092,0.466,5.941,1.372c1.861,0.906,3.531,2.171,4.892,3.723c2.888,3.34,4.462,7.6,4.462,12.014
				c0.012,2.206-0.346,4.39-1.062,6.477c-0.68,1.993-1.682,3.867-2.971,5.524c-1.264,1.636-2.851,2.972-4.677,3.938
				c-1.837,0.941-3.89,1.407-5.952,1.383H2552.987L2552.987,751.78z"/>
			<path fill="#FFFFFF" d="M2627.79,779.722v-28.908h36.877v-6.264h-36.877v-27.2h42.305v-6.489h-49.738v75.445h50.692v-6.584
				H2627.79L2627.79,779.722z"/>
		</g>
	</g>
</g>
</svg>
