<svg id="Layer_1" data-name="Layer 1" xmlns="http://www.w3.org/2000/svg" xmlns:xlink="http://www.w3.org/1999/xlink" viewBox="0 0 229.37 51.08"><defs><style>.cls-1,.cls-4{fill:#fff;}.cls-2{fill:url(#radial-gradient);}.cls-3{fill:url(#radial-gradient-2);}.cls-4{stroke:#fff;stroke-width:0.78px;}</style><radialGradient id="radial-gradient" cx="26.95" cy="51.99" r="0.07" gradientUnits="userSpaceOnUse"><stop offset="0" stop-color="#fff"/><stop offset="0.03" stop-color="#dbdbdb"/><stop offset="0.09" stop-color="#8e8e8e"/><stop offset="0.14" stop-color="#515151"/><stop offset="0.19" stop-color="#252525"/><stop offset="0.22" stop-color="#0a0a0a"/><stop offset="0.24"/></radialGradient><radialGradient id="radial-gradient-2" cx="34.33" cy="52.33" r="0.02" xlink:href="#radial-gradient"/></defs><title>GFDRR_Primary Logo_White</title><path class="cls-1" d="M31.3,7.72a26,26,0,0,0-8.54,50.62A24.56,24.56,0,1,1,53.93,46.62,26,26,0,0,0,31.3,7.72Z" transform="translate(-5.26 -7.72)"/><path class="cls-1" d="M36.16,13.37a20.64,20.64,0,0,1-4.87,40.72A20.38,20.38,0,0,1,10.82,33.56c0-1.05-.53-.08-.53,1.54A22.08,22.08,0,1,0,36.16,13.37Z" transform="translate(-5.26 -7.72)"/><path class="cls-1" d="M27,52h0l.19.05Z" transform="translate(-5.26 -7.72)"/><path class="cls-1" d="M34.42,52.38h0Z" transform="translate(-5.26 -7.72)"/><path class="cls-1" d="M11.8,31.62A10.78,10.78,0,0,0,12,30.28a11.22,11.22,0,0,1,.37-1.85c2.25-7.56,9.31-12.86,17.94-12.86a19.49,19.49,0,0,1,7,1.31,9.06,9.06,0,0,0,1,.07l.06-.1a20.25,20.25,0,0,0-8.58-2.14C20.08,14.59,12.73,20.9,11.06,29a6.85,6.85,0,0,0-.22,2.3C11,32,11.56,32.14,11.8,31.62Z" transform="translate(-5.26 -7.72)"/><path class="cls-1" d="M48.1,40a10.35,10.35,0,0,1-.85.67,13.63,13.63,0,0,1-3.36,1.68c.55-1.41,1.21-2.81,1.62-4.23a26.3,26.3,0,0,0,1-4.47A7.08,7.08,0,0,0,48.78,31c.48-.8.47-1.41.36-1.51s-.46.44-.65.78a6.77,6.77,0,0,1-2,2.31s-.12-4.72-2.09-6.15a12.87,12.87,0,0,1,1.14,6.86A16,16,0,0,1,40.43,35v-.38a22.3,22.3,0,0,0,0-6.73,7.39,7.39,0,0,0,2.5-1.7,3.53,3.53,0,0,0,.65-3.77l0,0c-.38.39-.06,1-.52,2a4.43,4.43,0,0,1-2.65,2.27c-.29-1.4-1.08-4.37-2.65-5.69.9,2,2,4.5,1.8,5.92a9.51,9.51,0,0,1-6.18-.5,50.29,50.29,0,0,0,2.48-4.86l-.08-.22c-1.19,1.21-2.27,3.5-3.36,4.81a9.75,9.75,0,0,1-2.54-1.81,3.42,3.42,0,0,1-.93-1.53,12,12,0,0,1,5.08-2.08l-.28-.21a14.92,14.92,0,0,0-5,1.38,4.16,4.16,0,0,1,.57-2.73A7.74,7.74,0,0,1,33,18.86a5.47,5.47,0,0,0-2.78-.74c.09-.38.71-.39.73-.74a3.2,3.2,0,0,0-2.13.79,12.18,12.18,0,0,0-7,2.55,3.25,3.25,0,0,1,1.55-2.21c-1.27.42-2.12.85-2.83,3-2.72,2-2.91,2.79-3.24,4a9.7,9.7,0,0,1,3-2.71,7.62,7.62,0,0,0,1.39,5,27.87,27.87,0,0,0-4.24,6.57,13.65,13.65,0,0,1-1.54-3,14.87,14.87,0,0,1-1-3.55l-.21.56c0,.16-.08.62-.07.78A12.64,12.64,0,0,0,16.92,36c-.56,2.06-1.3,4.66-.39,6.7.49-1.59.47-3.46,1.39-4.85a21.81,21.81,0,0,0,6.45,5.47c-.26,1.69-.57,3.46-.77,5.08a20,20,0,0,1-6-4.18l-.14,0A4.94,4.94,0,0,0,18,45.46c1.23,2.08,3.16,3.2,5.52,4.32.11.07-.11,1.2.33,1.5.27.26.86.78.83-.91,2.59.86,4.9.65,7.53.49l2.2-.5c-2.69-.14-6.89-.12-9.59-1.35.24-1.94.5-3.61.79-5.25l.17.05a23.32,23.32,0,0,0,9,1.52c.09,0,.2-.51.2-.51a3.94,3.94,0,0,1-.45-.37c-.21-.08-.49-.38-.75-.49a4.06,4.06,0,0,0-.57-.1A16,16,0,0,1,26,42.08a36.39,36.39,0,0,1,3-7.32,18.84,18.84,0,0,0,10,1.48,31.33,31.33,0,0,1-1.88,6.45l-1.27,3a22.47,22.47,0,0,1-1.59,2.91,11,11,0,0,0,2.7-3.28c.24-.41.89-1.93.89-1.93h0a32.76,32.76,0,0,0,2.46-7.22,21.08,21.08,0,0,0,5-1.64,34.27,34.27,0,0,1-2.34,8.22s-.37.76-.37.76l-.28.58c-.75,1.18-.67,1.48-1.11,2a15.54,15.54,0,0,0,2-2.17c1.1-.67,2.41-1.12,3.45-1.87a21.07,21.07,0,0,1-15,10.32v.12c5.75.15,10.56-3.18,14.14-7.19a19.65,19.65,0,0,0,3.56-6.55l-.43.51ZM22.37,26.8A6.54,6.54,0,0,1,21.5,22c1.83-1.42,3.88-2.78,6.6-2.87a5,5,0,0,0-.43,3.32m-3,19a22,22,0,0,1-6.25-5.55c.6-2.76,2.36-4.89,3.89-6.95a18.22,18.22,0,0,0,5.15,4.93A27.35,27.35,0,0,0,24.72,41.49Zm3.53-8.79c-2.23-1-3.71-2.87-5.19-4.67A15.3,15.3,0,0,1,28,23.51,9.13,9.13,0,0,0,31.71,27ZM39.15,35c-3.24.15-6.45.07-9.63-1.48a59.08,59.08,0,0,1,3.25-6,13,13,0,0,0,6.67.66A18.93,18.93,0,0,1,39.15,35Z" transform="translate(-5.26 -7.72)"/><path class="cls-1" d="M43.56,21.69l0,0,0,.05S43.57,21.71,43.56,21.69Z" transform="translate(-5.26 -7.72)"/><path class="cls-1" d="M76.3,53.47a3.06,3.06,0,0,0-1.22-.25,1.62,1.62,0,0,0-1.72,1.72A1.56,1.56,0,0,0,75,56.63a2.68,2.68,0,0,0,.63-.07V55.33h-1v-.76h1.92v2.56a5.88,5.88,0,0,1-1.54.24c-1.53,0-2.6-.76-2.6-2.36A2.35,2.35,0,0,1,75,52.47a4.69,4.69,0,0,1,1.39.2Z" transform="translate(-5.26 -7.72)"/><path class="cls-1" d="M77.44,52.2h.91v5.09h-.91Z" transform="translate(-5.26 -7.72)"/><path class="cls-1" d="M80.91,53.71a1.76,1.76,0,0,1,1.84,1.86,1.83,1.83,0,0,1-3.66,0A1.75,1.75,0,0,1,80.91,53.71Zm0,3c.7,0,.89-.63.89-1.21a.89.89,0,1,0-1.76,0C80,56,80.22,56.67,80.91,56.67Z" transform="translate(-5.26 -7.72)"/><path class="cls-1" d="M83.46,52.2h.91v2h0a1.23,1.23,0,0,1,1.05-.54c1.07,0,1.47.86,1.47,1.83s-.4,1.83-1.47,1.83a1.26,1.26,0,0,1-1.07-.5h0v.42h-.88Zm1.72,4.47c.6,0,.77-.65.77-1.13s-.17-1.12-.76-1.12-.81.63-.81,1.12S84.58,56.67,85.18,56.67Z" transform="translate(-5.26 -7.72)"/><path class="cls-1" d="M87.77,54A3.18,3.18,0,0,1,89,53.71c1.07,0,1.51.45,1.51,1.48v.45c0,.35,0,.61,0,.87s0,.51,0,.78h-.8c0-.18,0-.41,0-.52h0a1.24,1.24,0,0,1-1.08.6,1.11,1.11,0,0,1-1.22-1,1,1,0,0,1,.6-1,2.73,2.73,0,0,1,1.17-.2h.5c0-.57-.25-.76-.79-.76a1.86,1.86,0,0,0-1.08.38Zm1.06,2.73a.77.77,0,0,0,.64-.31,1.16,1.16,0,0,0,.19-.72h-.39c-.41,0-1,.07-1,.6C88.26,56.58,88.51,56.71,88.83,56.71Z" transform="translate(-5.26 -7.72)"/><path class="cls-1" d="M91.41,52.2h.91v5.09h-.91Z" transform="translate(-5.26 -7.72)"/><path class="cls-1" d="M95.25,52.55h2.63v.75H96.19v1.17H97.8v.74H96.19v2.08h-.94Z" transform="translate(-5.26 -7.72)"/><path class="cls-1" d="M98.72,54a3.14,3.14,0,0,1,1.21-.27c1.07,0,1.51.45,1.51,1.48v.45c0,.35,0,.61,0,.87s0,.51,0,.78h-.8c0-.18,0-.41,0-.52h0a1.24,1.24,0,0,1-1.08.6,1.11,1.11,0,0,1-1.22-1,1,1,0,0,1,.59-1,2.8,2.8,0,0,1,1.18-.2h.5c0-.57-.25-.76-.79-.76a1.86,1.86,0,0,0-1.08.38Zm1.06,2.73a.77.77,0,0,0,.64-.31,1.16,1.16,0,0,0,.19-.72h-.39c-.41,0-1,.07-1,.6C99.2,56.58,99.46,56.71,99.78,56.71Z" transform="translate(-5.26 -7.72)"/><path class="cls-1" d="M104.6,54.55a1.42,1.42,0,0,0-.61-.13c-.57,0-.93.45-.93,1.11s.31,1.14,1,1.14a2.19,2.19,0,0,0,.7-.16l0,.75a3.06,3.06,0,0,1-.91.11,1.83,1.83,0,0,1,0-3.66,3.19,3.19,0,0,1,.89.12Z" transform="translate(-5.26 -7.72)"/><path class="cls-1" d="M105.37,52.29h.91v.87h-.91Zm0,1.51h.91v3.49h-.91Z" transform="translate(-5.26 -7.72)"/><path class="cls-1" d="M107.26,52.2h.91v5.09h-.91Z" transform="translate(-5.26 -7.72)"/><path class="cls-1" d="M109.15,52.29h.91v.87h-.91Zm0,1.51h.91v3.49h-.91Z" transform="translate(-5.26 -7.72)"/><path class="cls-1" d="M111.31,54.46h-.67V53.8h.67v-.7l.91-.3v1H113v.66h-.81v1.63c0,.3.09.58.43.58a.77.77,0,0,0,.42-.1l0,.72a2.2,2.2,0,0,1-.67.08,1,1,0,0,1-1.11-1.13Z" transform="translate(-5.26 -7.72)"/><path class="cls-1" d="M115.11,56.35h0L116,53.8h.92l-1.31,3.47c-.29.77-.5,1.53-1.46,1.53a2,2,0,0,1-.64-.1l.06-.67a1.37,1.37,0,0,0,.47.07.57.57,0,0,0,.59-.63l-1.34-3.67h1Z" transform="translate(-5.26 -7.72)"/><path class="cls-1" d="M119.65,54.46H119V53.8h.67v-.49a1.07,1.07,0,0,1,1.12-1.19,3.18,3.18,0,0,1,.66.07l-.07.76a.69.69,0,0,0-.4-.13c-.3,0-.4.27-.4.54v.44h.8v.66h-.8v2.83h-.91Z" transform="translate(-5.26 -7.72)"/><path class="cls-1" d="M123.57,53.71a1.76,1.76,0,0,1,1.83,1.86,1.83,1.83,0,0,1-3.66,0A1.75,1.75,0,0,1,123.57,53.71Zm0,3c.69,0,.88-.63.88-1.21a.89.89,0,1,0-1.76,0C122.69,56,122.87,56.67,123.57,56.67Z" transform="translate(-5.26 -7.72)"/><path class="cls-1" d="M126.13,53.8h.81v.79h0a1.06,1.06,0,0,1,1-.88.92.92,0,0,1,.28,0v.92a.92.92,0,0,0-.41-.07c-.74,0-.74.92-.74,1.42v1.28h-.91Z" transform="translate(-5.26 -7.72)"/><path class="cls-1" d="M130.73,52.55H132c1.45,0,2.74.49,2.74,2.37s-1.29,2.37-2.74,2.37h-1.29Zm.94,4h.53a1.62,1.62,0,0,0,0-3.24h-.53Z" transform="translate(-5.26 -7.72)"/><path class="cls-1" d="M135.57,52.29h.91v.87h-.91Zm0,1.51h.91v3.49h-.91Z" transform="translate(-5.26 -7.72)"/><path class="cls-1" d="M139.51,54.53a2.12,2.12,0,0,0-.81-.15c-.25,0-.54.09-.54.39,0,.56,1.58.2,1.58,1.47,0,.81-.72,1.13-1.46,1.13a4.57,4.57,0,0,1-1-.14l.06-.75a2,2,0,0,0,.9.23c.22,0,.59-.09.59-.43,0-.68-1.58-.22-1.58-1.48,0-.75.66-1.09,1.37-1.09a4.17,4.17,0,0,1,1,.13Z" transform="translate(-5.26 -7.72)"/><path class="cls-1" d="M140.61,54a3.14,3.14,0,0,1,1.21-.27c1.07,0,1.51.45,1.51,1.48v.45c0,.35,0,.61,0,.87s0,.51,0,.78h-.81c0-.18,0-.41,0-.52h0a1.24,1.24,0,0,1-1.08.6,1.11,1.11,0,0,1-1.22-1,1,1,0,0,1,.59-1,2.8,2.8,0,0,1,1.18-.2h.5c0-.57-.25-.76-.79-.76a1.84,1.84,0,0,0-1.08.38Zm1.06,2.73a.77.77,0,0,0,.64-.31,1.16,1.16,0,0,0,.19-.72h-.39c-.41,0-1,.07-1,.6C141.1,56.58,141.35,56.71,141.67,56.71Z" transform="translate(-5.26 -7.72)"/><path class="cls-1" d="M146.3,54.53a2.09,2.09,0,0,0-.81-.15c-.25,0-.54.09-.54.39,0,.56,1.58.2,1.58,1.47,0,.81-.72,1.13-1.46,1.13a4.57,4.57,0,0,1-1-.14l.06-.75a2,2,0,0,0,.9.23c.23,0,.59-.09.59-.43,0-.68-1.58-.22-1.58-1.48,0-.75.66-1.09,1.37-1.09a4.34,4.34,0,0,1,1,.13Z" transform="translate(-5.26 -7.72)"/><path class="cls-1" d="M147.54,54.46h-.67V53.8h.67v-.7l.91-.3v1h.81v.66h-.81v1.63c0,.3.08.58.43.58a.71.71,0,0,0,.41-.1l0,.72a2.2,2.2,0,0,1-.67.08,1,1,0,0,1-1.11-1.13Z" transform="translate(-5.26 -7.72)"/><path class="cls-1" d="M152.69,57.1a2.45,2.45,0,0,1-1.2.27,1.66,1.66,0,0,1-1.83-1.81,1.64,1.64,0,0,1,1.62-1.85c1.3,0,1.66.9,1.66,2.12h-2.41a.91.91,0,0,0,1,.88,2.47,2.47,0,0,0,1.16-.35Zm-.61-1.9c0-.44-.24-.82-.74-.82a.79.79,0,0,0-.81.82Z" transform="translate(-5.26 -7.72)"/><path class="cls-1" d="M153.68,53.8h.81v.79h0a1.08,1.08,0,0,1,1-.88.92.92,0,0,1,.28,0v.92a.92.92,0,0,0-.41-.07c-.74,0-.74.92-.74,1.42v1.28h-.91Z" transform="translate(-5.26 -7.72)"/><path class="cls-1" d="M158.19,52.55h1c1,0,2.24,0,2.24,1.29a1.09,1.09,0,0,1-1,1.1h0c.26,0,.41.28.5.49l.76,1.85h-1l-.57-1.47c-.14-.36-.26-.49-.66-.49h-.31v2h-.95Zm.95,2h.31c.47,0,1-.06,1-.65s-.53-.62-1-.62h-.31Z" transform="translate(-5.26 -7.72)"/><path class="cls-1" d="M165.14,57.1a2.42,2.42,0,0,1-1.2.27,1.66,1.66,0,0,1-1.83-1.81,1.64,1.64,0,0,1,1.63-1.85c1.3,0,1.66.9,1.66,2.12H163a.92.92,0,0,0,1,.88,2.47,2.47,0,0,0,1.16-.35Zm-.61-1.9c0-.44-.23-.82-.74-.82a.8.8,0,0,0-.81.82Z" transform="translate(-5.26 -7.72)"/><path class="cls-1" d="M168.44,56.9h0a1.29,1.29,0,0,1-1.07.47c-1.07,0-1.47-.88-1.47-1.83s.4-1.83,1.47-1.83a1.24,1.24,0,0,1,1,.49h0v-2h.91v5.09h-.89Zm-.83-.23c.6,0,.8-.64.8-1.13s-.23-1.12-.82-1.12-.75.65-.75,1.12S167,56.67,167.61,56.67Z" transform="translate(-5.26 -7.72)"/><path class="cls-1" d="M173.48,57.29h-.87v-.47h0a1.45,1.45,0,0,1-1.15.55c-.82,0-1.18-.58-1.18-1.37V53.8h.91v1.86c0,.43,0,1,.59,1s.8-.72.8-1.16V53.8h.91Z" transform="translate(-5.26 -7.72)"/><path class="cls-1" d="M176.69,54.55a1.5,1.5,0,0,0-.62-.13c-.57,0-.93.45-.93,1.11s.31,1.14.94,1.14a2.19,2.19,0,0,0,.71-.16l0,.75a3.06,3.06,0,0,1-.91.11,1.83,1.83,0,0,1,0-3.66,3,3,0,0,1,.88.12Z" transform="translate(-5.26 -7.72)"/><path class="cls-1" d="M177.73,54.46h-.67V53.8h.67v-.7l.91-.3v1h.81v.66h-.81v1.63c0,.3.08.58.43.58a.71.71,0,0,0,.41-.1l0,.72a2.2,2.2,0,0,1-.67.08,1,1,0,0,1-1.11-1.13Z" transform="translate(-5.26 -7.72)"/><path class="cls-1" d="M180.1,52.29h.9v.87h-.9Zm0,1.51h.9v3.49h-.9Z" transform="translate(-5.26 -7.72)"/><path class="cls-1" d="M183.56,53.71a1.76,1.76,0,0,1,1.84,1.86,1.83,1.83,0,0,1-3.66,0A1.75,1.75,0,0,1,183.56,53.71Zm0,3c.7,0,.89-.63.89-1.21a.89.89,0,1,0-1.76,0C182.69,56,182.87,56.67,183.56,56.67Z" transform="translate(-5.26 -7.72)"/><path class="cls-1" d="M186.11,53.8H187v.47h0a1.3,1.3,0,0,1,1.15-.56c.82,0,1.18.59,1.18,1.37v2.21h-.91V55.43c0-.43,0-1-.59-1s-.8.72-.8,1.16v1.71h-.91Z" transform="translate(-5.26 -7.72)"/><path class="cls-1" d="M192.3,54a3.23,3.23,0,0,1,1.22-.27c1.06,0,1.51.45,1.51,1.48v.45c0,.35,0,.61,0,.87s0,.51,0,.78h-.8a2.6,2.6,0,0,1,0-.52h0a1.26,1.26,0,0,1-1.08.6,1.12,1.12,0,0,1-1.23-1,1,1,0,0,1,.6-1,2.8,2.8,0,0,1,1.18-.2h.5c0-.57-.25-.76-.79-.76a1.84,1.84,0,0,0-1.08.38Zm1.07,2.73a.77.77,0,0,0,.64-.31,1.16,1.16,0,0,0,.19-.72h-.39c-.41,0-1,.07-1,.6C192.79,56.58,193,56.71,193.37,56.71Z" transform="translate(-5.26 -7.72)"/><path class="cls-1" d="M195.92,53.8h.87v.47h0a1.31,1.31,0,0,1,1.15-.56c.83,0,1.19.59,1.19,1.37v2.21h-.91V55.43c0-.43,0-1-.59-1s-.81.72-.81,1.16v1.71h-.91Z" transform="translate(-5.26 -7.72)"/><path class="cls-1" d="M202.4,56.9h0a1.29,1.29,0,0,1-1.07.47c-1.08,0-1.47-.88-1.47-1.83s.39-1.83,1.47-1.83a1.24,1.24,0,0,1,1,.49h0v-2h.9v5.09h-.88Zm-.83-.23c.6,0,.8-.64.8-1.13s-.23-1.12-.82-1.12-.75.65-.75,1.12S201,56.67,201.57,56.67Z" transform="translate(-5.26 -7.72)"/><path class="cls-1" d="M206.11,52.55h1c1,0,2.23,0,2.23,1.29a1.09,1.09,0,0,1-1,1.1h0c.26,0,.41.28.51.49l.76,1.85H208.6L208,55.82c-.14-.36-.26-.49-.66-.49h-.31v2h-.95Zm.95,2h.32c.46,0,1-.06,1-.65s-.53-.62-1-.62h-.32Z" transform="translate(-5.26 -7.72)"/><path class="cls-1" d="M213.07,57.1a2.49,2.49,0,0,1-1.21.27,1.84,1.84,0,0,1-.2-3.66c1.3,0,1.66.9,1.66,2.12h-2.41a.91.91,0,0,0,1,.88,2.5,2.5,0,0,0,1.16-.35Zm-.62-1.9c0-.44-.23-.82-.74-.82a.78.78,0,0,0-.8.82Z" transform="translate(-5.26 -7.72)"/><path class="cls-1" d="M216.3,54.55a1.42,1.42,0,0,0-.61-.13c-.56,0-.93.45-.93,1.11s.31,1.14,1,1.14a2.19,2.19,0,0,0,.7-.16l0,.75a3.06,3.06,0,0,1-.91.11,1.83,1.83,0,0,1,0-3.66,3.12,3.12,0,0,1,.88.12Z" transform="translate(-5.26 -7.72)"/><path class="cls-1" d="M218.66,53.71a1.76,1.76,0,0,1,1.83,1.86,1.83,1.83,0,0,1-3.66,0A1.75,1.75,0,0,1,218.66,53.71Zm0,3c.69,0,.88-.63.88-1.21a.92.92,0,0,0-.88-1,.93.93,0,0,0-.88,1C217.78,56,218,56.67,218.66,56.67Z" transform="translate(-5.26 -7.72)"/><path class="cls-1" d="M220.82,53.8h1l.87,2.54h0l.85-2.54h.91l-1.29,3.49h-1Z" transform="translate(-5.26 -7.72)"/><path class="cls-1" d="M227.78,57.1a2.42,2.42,0,0,1-1.2.27,1.66,1.66,0,0,1-1.83-1.81,1.64,1.64,0,0,1,1.62-1.85c1.31,0,1.67.9,1.67,2.12h-2.42a.92.92,0,0,0,1,.88,2.47,2.47,0,0,0,1.16-.35Zm-.61-1.9c0-.44-.23-.82-.74-.82a.8.8,0,0,0-.81.82Z" transform="translate(-5.26 -7.72)"/><path class="cls-1" d="M228.78,53.8h.8v.79h0a1.06,1.06,0,0,1,1-.88.89.89,0,0,1,.28,0v.92a.89.89,0,0,0-.41-.07c-.74,0-.74.92-.74,1.42v1.28h-.9Z" transform="translate(-5.26 -7.72)"/><path class="cls-1" d="M232.85,56.35h0l.84-2.55h.93l-1.31,3.47c-.29.77-.5,1.53-1.45,1.53a2.05,2.05,0,0,1-.65-.1l.06-.67a1.33,1.33,0,0,0,.47.07.57.57,0,0,0,.59-.63L231,53.8h1Z" transform="translate(-5.26 -7.72)"/><path class="cls-1" d="M101.32,15.53a24.16,24.16,0,0,0-9.49-1.94c-8.59,0-13.34,5.8-13.34,13.33S83.13,40.06,91,40.06a20.32,20.32,0,0,0,4.85-.53v-9.6H88v-5.8h14.87V44A46.73,46.73,0,0,1,91,45.85c-11.92,0-20.2-6-20.2-18.4,0-12.6,7.7-19.67,20.2-19.67A36.34,36.34,0,0,1,101.8,9.31Z" transform="translate(-5.26 -7.72)"/><path class="cls-1" d="M110.66,8.42h20.46v5.8H118v9.07h12.45v5.8H118V45.22h-7.38Z" transform="translate(-5.26 -7.72)"/><path class="cls-1" d="M137,8.42H147.1c11.28,0,21.25,3.79,21.25,18.4s-10,18.4-21.25,18.4H137Zm7.38,31h4.11c6.17,0,12.13-4.59,12.13-12.6s-6-12.6-12.13-12.6h-4.11Z" transform="translate(-5.26 -7.72)"/><path class="cls-1" d="M174.47,8.42h8c7.91,0,17.35-.27,17.35,10a8.41,8.41,0,0,1-7.59,8.54V27c2,.16,3.16,2.16,3.9,3.8L202,45.22h-8.22l-4.43-11.49c-1.06-2.74-2-3.8-5.12-3.8h-2.37V45.22h-7.38Zm7.38,15.71h2.43c3.64,0,7.8-.53,7.8-5.12,0-4.42-4.11-4.79-7.8-4.79h-2.43Z" transform="translate(-5.26 -7.72)"/><path class="cls-1" d="M206.69,8.42h8c7.91,0,17.35-.27,17.35,10a8.41,8.41,0,0,1-7.59,8.54V27c2,.16,3.16,2.16,3.9,3.8l5.91,14.39H226l-4.43-11.49c-1.05-2.74-2-3.8-5.12-3.8h-2.37V45.22h-7.38Zm7.38,15.71h2.43c3.63,0,7.81-.53,7.81-5.12,0-4.42-4.12-4.79-7.81-4.79h-2.43Z" transform="translate(-5.26 -7.72)"/><path class="cls-2" d="M26.85,52h0L27,52Z" transform="translate(-5.26 -7.72)"/><path class="cls-3" d="M34.3,52.33h0Z" transform="translate(-5.26 -7.72)"/><line class="cls-4" x1="58.31" y1="3.23" x2="58.31" y2="47.4"/></svg>