<svg version="1.1" id="Layer_1" xmlns="http://www.w3.org/2000/svg" x="0" y="0" viewBox="0 0 1057.5 225.3" xml:space="preserve"><style type="text/css">.st0{fill:none}.st1{fill:#7caf41}.st2{fill:#fff}</style><path class="st0" d="M83.7 61.4H94v10.2H83.7z"/><path class="st1" d="M0 0h6.8v125.4H0z"/><path class="st2" d="M272.5 84.1h-9.7V60h-5.5v29.3h15.2v-5.2zm-35 57.8h-36v-31.5h-8.2v71.3h8.2v-32.3h36v32.3h8.2v-71.3h-8.2v31.5zm44.2-14.2c-15.4.3-28 13-28 28.4 0 15.5 12.6 26.9 28.1 26.9 11.9 0 22.6-6.3 26.5-17.6l.2-.7h-8.3l-.1.3c-2 5.5-8.1 11.9-18.5 12.1-10 0-19.2-8.4-19.9-18.1h48.1v-.5c.4-6.4-1-12.1-4.1-17-3.7-6.6-12.1-13.7-24-13.8zm-19.9 24.2c2-11.2 11.5-17 20-17 8.1 0 17.8 5.3 20.1 17h-40.1zm366.9-70.8h9l3.1 8.2h5.9l-10.9-28.8-.2-.5H631l-11.1 29.3h5.8l3-8.2zm4.6-13l2.6 7.8h-5.2l2.6-7.8zm-289.4 13h9l3.1 8.2h5.9L351 60.5l-.2-.5h-4.6L335 89.3h5.8l3.1-8.2zm4.6-13l2.6 7.8h-5.2l2.6-7.8zm-46.5 16h-9.7V60h-5.5v29.3H302v-5.2zm185.3-6.9h10V72h-10v-6.9h10V60h-15.5v29.3h5.5V77.2zM321.7 60h-5.5v29.3h5.5V60zM241 60h-5.5v29.3h5.5V60zM94 225.3h6.8v-44h59.9v-6.8H94v50.8zm104.2-136l4.5-17.5 4.5 17.5h4.7l8.2-29.3h-5.6l-4.9 18.8-4.8-18.8h-4.1l-4.9 18.9-4.7-18.9h-5.7l8.2 29.3h4.6zm196.5 92.4h7.8v-71.3h-7.8v71.3zm-294-49.4h59.9v-6.8h-59.9v-10.3h59.9v-6.8H77v116.9h6.8v-93H94v32h66.7v-6.8h-60v-25.2zm-6.7-6.7H83.7v-10.3H94v10.3zm270 46.9l-11.9-37.1h-6.7l-11.8 37.1-16.2-43.1-.1-.3h-8.2l20.4 52.3.1.3h8.4l10.7-33 10.9 33h8.4l20.6-52.7h-8.1L364 172.5zm371.4-46.1c-7.6 0-13 3.6-15.9 7.3v-5.9h-7.8v54h7.8v-29.7c-.1-6 1.6-11.1 4.8-14.1 4.2-4.1 9.6-4.4 11.1-4.4s6.9.3 11.1 4.4c3.1 3 4.9 8.1 4.9 14.1v29.6h7.8v-29.6c0-8.2-2.3-14.7-6.7-19-4.6-4.7-9.9-6.7-17.1-6.7zm141.9 9.7c-6.3-8.8-16.2-9.7-20.3-9.7-18.1 0-29 14.3-29 28.2 0 15.9 12.7 28.4 29 28.4 4 0 13.8-1 20.3-9.7v8.4h7.8v-54h-7.8v8.4zm-20.2 39.7c-12 0-21.1-9-21.1-20.9 0-14 10.6-21.3 21.1-21.3 11.4 0 20.6 9.5 20.6 21.2 0 11.8-9.1 21-20.6 21zm73.7 5.9h7.8v-54h-7.8v54zM814.6 136c-6.8-8.9-17.2-9.6-20.3-9.6-18.1 0-29 14.3-29 28.2 0 15.9 12.7 28.4 29 28.4 6.4 0 14.9-2.6 20.3-9.7v8.4h7.8v-72.6h-7.8V136zm-20.2 39.8c-12 0-21.1-9-21.1-20.9 0-14 10.6-21.3 21.1-21.3 11.4 0 20.6 9.5 20.6 21.2 0 11.8-9.1 21-20.6 21zm116-66.7h-7.8v18.7h-11.1v7.2h11.1v46.8h7.8V135h12.7v-7.2h-12.7v-18.7zm-519.2-29L383.3 60h-7.6v29.3h5.5V68.6l8.3 20.7h3.4l8.3-20.8v20.8h5.5V60h-7.6l-7.9 20.1zm583.9 46.3c-13.5 0-28.1 11-28.1 28.7 0 15.1 12.9 27.9 28.1 27.9 15.3 0 28.3-13 28.3-28.3-.1-15.4-13-28.3-28.3-28.3zm.1 49.4c-11.2 0-20.4-9.4-20.4-20.8 0-13.2 10.6-21.4 20.4-21.4 8.2 0 20.4 6.6 20.4 20.8-.1 13.4-10.4 21.4-20.4 21.4zm-44.4-53.5h7.8v-13.2h-7.8v13.2zm120 10.7c-4.6-4.6-9.9-6.6-17.1-6.6-7.6 0-13 3.6-15.9 7.3v-5.9h-7.8v54h7.8v-29.7c-.1-6 1.6-11.1 4.8-14.1 4.2-4.1 9.6-4.4 11.1-4.4s6.9.3 11.1 4.4c3.1 3 4.9 8.1 4.9 14.1v29.6h7.8v-29.6c0-8.2-2.3-14.8-6.7-19.1zm-532-73h-5.5v29.3h15.2v-5.2h-9.7V60zm175.5 96.2c0 9.4-2.5 12.7-5.4 15.5-2.8 2.8-6.3 4.1-10.8 4.1-5 0-9-1.6-11.9-4.8-2.5-3.1-3.7-7.5-3.7-13.6v-29.6h-7.8v29.7c0 7.6 1.6 13.5 4.8 17.4 2.4 3 8.1 8.1 18.6 8.1 9.8 0 14.6-5.3 16.6-8.3v7.1h7.4v-54h-7.8v28.4zm-180.2-45.8h-7.8V129h-21.1v-18.7h-7.8V129h-11.1v7.2h11.1v45.5h7.8v-45.5h21.1v45.5h7.8v-45.5h12.7V129h-12.7v-18.6zm57.6-35.7c0-8.5-6.7-15.2-15.2-15.2-8.4 0-15.2 6.8-15.2 15.2 0 8.4 6.8 15.2 15.2 15.2 8.3-.1 15.2-6.9 15.2-15.2zm-24.9-.1c0-4.2 3-10 9.7-10s9.7 5.9 9.7 10.1c0 4.1-3 9.9-9.7 9.9s-9.7-5.8-9.7-10zm-109.3 53.1c-15.4.3-28 13-28 28.4 0 15.5 12.6 26.9 28.1 26.9 11.9 0 22.6-6.3 26.5-17.6l.2-.7H456v.3c-2 5.5-8.1 11.9-18.5 12.1-10 0-19.2-8.4-19.9-18.1h48.1v-.5c.4-6.4-1-12.1-4.1-17-3.8-6.6-12.1-13.7-24.1-13.8zm-19.9 24.2c2-11.2 11.5-17 20-17 8.1 0 17.8 5.3 20.1 17h-40.1zm202.6-25.5c-13.5 0-28.1 11-28.1 28.7 0 15.1 12.9 27.9 28.1 27.9 15.3 0 28.3-13 28.3-28.3 0-15.4-13-28.3-28.3-28.3zm.1 49.4c-11.2 0-20.4-9.4-20.4-20.8 0-13.2 10.6-21.4 20.4-21.4 8.2 0 20.4 6.6 20.4 20.8-.1 13.4-10.4 21.4-20.4 21.4zM606 89.3l-7.9-10.5c2.8-.5 7.4-2.7 7.4-9.1 0-2.8-1-5.4-2.8-7.1-1.8-1.8-4.3-2.5-7.9-2.5h-9.3v29.3h5.5V77.8l8.2 11.5h6.8zm-15.1-14.9v-9.2h3.6c4 0 5.5 2.3 5.5 4.5 0 3.1-2.3 4.7-7 4.7h-2.1zM550 181.7h8.2V149h28v-7.5h-28v-24.9h29v-7.5H550v72.6zM441 85h5.4v-7.6h7.5V72h-7.5v-7.6H441V72h-7.5v5.4h7.5V85z"/><path class="st1" d="M94 54.6H83.7V0H77v54.6H23.6V0h-6.8v61.4H77v10.2H17v53.7h6.8v-47H77v30.1h6.8v-30H94v30.1h6.8V.1H94v54.5zm0 17H83.7V61.4H94v10.2z"/></svg>