<?xml version="1.0" encoding="utf-8"?>
<!-- Generator: Adobe Illustrator 16.0.4, SVG Export Plug-In . SVG Version: 6.00 Build 0)  -->
<!DOCTYPE svg PUBLIC "-//W3C//DTD SVG 1.1//EN" "http://www.w3.org/Graphics/SVG/1.1/DTD/svg11.dtd">
<svg version="1.1" id="Layer_1" xmlns="http://www.w3.org/2000/svg" xmlns:xlink="http://www.w3.org/1999/xlink" x="0px" y="0px"
	 width="594.681px" height="361.42px" viewBox="0 0 594.681 361.42" enable-background="new 0 0 594.681 361.42"
	 xml:space="preserve">
<g>
	<defs>
		<rect id="SVGID_1_" width="594.516" height="361.42"/>
	</defs>
	<clipPath id="SVGID_2_">
		<use xlink:href="#SVGID_1_"  overflow="visible"/>
	</clipPath>
	<g clip-path="url(#SVGID_2_)">
		<defs>
			<rect id="SVGID_3_" x="-0.319" y="-4.58" width="595" height="366"/>
		</defs>
		<clipPath id="SVGID_4_">
			<use xlink:href="#SVGID_3_"  overflow="visible"/>
		</clipPath>
		<rect clip-path="url(#SVGID_4_)" fill="#DA2128" width="594.511" height="361.42"/>
	</g>
</g>
<g>
	<defs>
		<rect id="SVGID_5_" x="-0.319" y="-4.58" width="595" height="366"/>
	</defs>
	<clipPath id="SVGID_6_">
		<use xlink:href="#SVGID_5_"  overflow="visible"/>
	</clipPath>
	<path clip-path="url(#SVGID_6_)" fill="#FFFFFF" d="M58.618,289.553c1.089,1.163,3.299,1.588,4.845,1.557
		c4.818-0.096,6.88-3.979,6.79-8.527c-0.09-4.563-2.354-7.517-6.338-7.438c-1.96,0.037-3.846,0.903-5.307,2.173L58.618,289.553
		 M48.636,267.809h9.982v2.13c2.135-1.716,5.11-3.018,8.441-3.192c9.1,0,13.68,7.799,13.68,15.066c0,9.275-5.589,16.84-15.226,16.84
		c-2.438,0-4.936-0.637-6.901-1.641l0.005,15.47h-9.993L48.636,267.809z"/>
	<path clip-path="url(#SVGID_6_)" fill="#FFFFFF" d="M170.951,289.553c1.089,1.163,3.299,1.588,4.845,1.557
		c4.818-0.096,6.88-3.979,6.79-8.527c-0.096-4.563-2.354-7.517-6.338-7.438c-1.96,0.037-3.846,0.903-5.307,2.173L170.951,289.553
		 M160.969,267.809h9.982v2.13c2.136-1.716,5.111-3.018,8.442-3.192c9.1,0,13.68,7.799,13.68,15.066
		c0,9.275-5.589,16.84-15.226,16.84c-2.438,0-4.936-0.637-6.901-1.641l0.005,15.47h-9.993L160.969,267.809z"/>
	<path clip-path="url(#SVGID_6_)" fill="#FFFFFF" d="M107.44,278.98c0-3.076-1.487-5.854-4.936-5.854
		c-3.272,0-5.769,2.896-6.423,5.854H107.44 M115.053,294.222c-3.512,2.954-8.861,4.426-13.621,4.426
		c-10.88,0-15.821-7.677-15.821-15.3c0-8.979,6.784-16.602,16.118-16.602c11.422,0,14.986,8.037,14.986,18.259H95.959
		c0,2.306,1.488,6.205,7.199,6.205c3.628,0,5.647-1.073,8.441-2.954L115.053,294.222z"/>
	<path clip-path="url(#SVGID_6_)" fill="#FFFFFF" d="M138.061,290.854c4.936,0,6.423-4.256,6.423-8.155s-1.487-8.154-6.423-8.154
		c-4.935,0-6.423,4.255-6.423,8.154S133.126,290.854,138.061,290.854 M138.061,266.746c11.061,0,16.771,6.97,16.771,15.953
		s-5.711,15.953-16.771,15.953s-16.771-6.97-16.771-15.953S127,266.746,138.061,266.746"/>
	<polyline clip-path="url(#SVGID_6_)" fill="#FFFFFF" points="199.357,253.273 209.706,253.273 209.716,297.585 199.368,297.585 
		199.357,253.273 	"/>
	<path clip-path="url(#SVGID_6_)" fill="#FFFFFF" d="M237.373,278.98c0-3.076-1.487-5.854-4.935-5.854
		c-3.273,0-5.77,2.896-6.423,5.854H237.373 M244.986,294.222c-3.512,2.954-8.861,4.426-13.621,4.426
		c-10.88,0-15.821-7.677-15.821-15.3c0-8.979,6.784-16.602,16.118-16.602c11.422,0,14.986,8.037,14.986,18.259h-20.756
		c0,2.306,1.488,6.205,7.199,6.205c3.628,0,5.647-1.073,8.441-2.954L244.986,294.222z"/>
	<path clip-path="url(#SVGID_6_)" fill="#FFFFFF" d="M291.258,267.809h10.396v29.781h-10.359l-0.016-3.251
		c-2.358,2.306-5.971,4.313-9.658,4.313c-6.364,0-9.838-3.484-9.908-11.64c-0.048-6.088-0.042-12.644-0.032-19.204h10.343
		c0,0-0.026,11.522,0.027,17.669c0.016,2.423,0.69,4.314,3.782,4.314c1.663,0,4.032-1.419,5.387-2.721L291.258,267.809"/>
	<path clip-path="url(#SVGID_6_)" fill="#FFFFFF" d="M309.139,267.809h10.359l0.017,3.251c2.358-2.306,5.971-4.313,9.658-4.313
		c6.364,0,9.844,3.484,9.907,11.64c0.048,6.083,0.011,19.204,0.011,19.204h-10.301c0,0,0.037-11.522-0.011-17.669
		c-0.021-2.423-0.723-4.313-3.819-4.313c-1.663,0-4.032,1.418-5.387,2.72v19.263h-10.435V267.809"/>
	<polyline clip-path="url(#SVGID_6_)" fill="#FFFFFF" points="346.439,253.273 356.788,253.273 356.777,297.585 346.428,297.585 
		346.439,253.273 	"/>
	<path clip-path="url(#SVGID_6_)" fill="#FFFFFF" d="M364.007,254.575h10.343l-0.011,8.511h-10.349L364.007,254.575
		 M364.029,267.809h10.349v29.781h-10.349V267.809z"/>
	<path clip-path="url(#SVGID_6_)" fill="#FFFFFF" d="M381.809,297.59v-29.781h10.381l-0.006,3.549
		c2.657-2.662,6.03-4.611,9.775-4.611c3.687,0,6.316,1.243,8.543,4.611c3.129-2.662,7.277-4.611,11.146-4.611
		c7.018,0,9.802,4.903,9.854,11.167c0.053,6.561,0,13.121-0.006,19.677H421.18c0,0,0.053-11.522,0.005-17.255
		c-0.021-2.48-0.834-4.723-3.809-4.723c-1.844,0-4.213,1.413-5.45,2.715l-0.011,19.263h-10.418
		c0.011-5.731,0.021-11.522-0.021-17.255c-0.021-2.48-0.812-4.723-3.788-4.723c-1.843,0-4.233,1.413-5.472,2.715l-0.011,19.263
		H381.809"/>
	<path clip-path="url(#SVGID_6_)" fill="#FFFFFF" d="M438.796,254.575h10.349v8.511h-10.349V254.575z M438.833,267.809h10.349
		v29.781h-10.349V267.809z"/>
	<path clip-path="url(#SVGID_6_)" fill="#FFFFFF" d="M452.396,268.17h4.399l-0.011-10.317l10.035,0.021l-0.032,10.104l8.506-0.006
		v7.448l-8.484,0.006c0,0-0.063,8.511,0.006,11.05c0.068,2.598,0.76,3.825,3.081,3.782c1.424-0.026,2.598-0.754,3.767-1.487
		l2.449,6.928c-2.986,1.886-6.641,3.081-10.147,3.145c-8.383,0.159-8.946-5.089-9.132-11.942c-0.101-3.66,0.096-7.326-0.011-11.283
		h-4.457L452.396,268.17"/>
	<path clip-path="url(#SVGID_6_)" fill="#FFFFFF" d="M500.889,278.98c-0.026-3.076-1.535-5.854-4.983-5.854
		c-3.272,0-5.748,2.896-6.38,5.854H500.889 M508.624,294.222c-3.484,2.954-8.823,4.426-13.584,4.426
		c-10.885,0-15.884-7.677-15.942-15.3c-0.074-8.979,6.646-16.602,15.985-16.602c11.416,0,15.05,8.037,15.13,18.259h-20.756
		c0.021,2.306,1.54,6.205,7.246,6.205c3.629,0,5.642-1.073,8.426-2.954L508.624,294.222z"/>
	<path clip-path="url(#SVGID_6_)" fill="#FFFFFF" d="M536.951,275.846c-1.101-1.168-3.311-1.609-4.856-1.588
		c-4.818,0.063-6.874,3.932-6.778,8.479c0.09,4.017,1.711,7.539,6.349,7.48c1.966-0.027,3.852-0.882,5.307-2.142L536.951,275.846
		 M547.065,297.59h-10.109l0.005-2.125c-2.125,1.711-4.754,3.013-8.085,3.188c-9.101,0-13.744-7.798-13.802-15.065
		c-0.075-9.276,5.455-16.841,15.093-16.841c2.438,0,4.818,0.59,6.789,1.599v-15.066h10.12L547.065,297.59z"/>
	<path clip-path="url(#SVGID_6_)" fill="#FFFFFF" d="M219.884,224.405c-2.258-2.014-3.549-5.127-3.543-9.44
		c0.032-10.784,27.561-75.873,27.524-87.04c-0.042-2.794-1.264-4.324-3.666-4.356c-3.692-0.069-10.752,6.497-14.275,10.965
		l-0.26,0.319l-5.599-4.425l0.138-0.298c4.218-8.638,22.737-25.532,32.454-25.898c4.016-0.006,7.134,1.009,9.244,3.166
		c2.104,2.157,3.14,5.387,3.14,9.685c-0.037,8.93-27.566,78.259-27.535,85.982c0.011,2.673,2.167,4.877,5.573,4.894
		c7.172,0.133,18.865-18.058,24.358-23.949l0.117-0.127h0.181c0.792,0.053,1.764,0.808,2.789,1.689
		c0.978,0.919,1.865,1.801,1.929,2.677v0.112l-0.053,0.095c-8.203,14.052-26.78,38.75-43.451,38.829
		C225.303,227.284,222.142,226.413,219.884,224.405"/>
	<path clip-path="url(#SVGID_6_)" fill="#FFFFFF" d="M264.058,75.496c7.129,0,12.899-5.749,12.899-12.83s-5.77-12.84-12.899-12.84
		c-7.119,0-12.898,5.759-12.898,12.84S256.939,75.496,264.058,75.496"/>
	<polyline clip-path="url(#SVGID_6_)" fill="#FFFFFF" points="145.148,224.022 145.148,210.896 162.233,210.896 162.233,142.322 
		87.497,142.322 87.497,210.896 106.085,210.896 106.085,224.022 48.556,224.022 48.556,210.896 66.066,210.896 66.066,62.071 
		48.556,62.071 48.556,48.949 106.085,48.949 106.085,62.071 87.497,62.071 87.497,127.755 162.233,127.755 162.233,62.071 
		145.148,62.071 145.148,48.949 202.725,48.949 202.725,62.071 184.901,62.071 184.901,210.896 202.73,210.896 202.73,224.022 
		145.148,224.022 	"/>
	<polyline clip-path="url(#SVGID_6_)" fill="#FFFFFF" points="325.375,226.902 294.143,115.473 282.965,115.473 282.965,104.083 
		325.47,104.083 325.47,115.473 315.249,115.473 334.486,185.21 357.037,115.473 346.232,115.473 346.232,104.083 376.836,104.083 
		376.842,115.473 368.013,115.473 331.34,226.902 325.375,226.902 	"/>
	<path clip-path="url(#SVGID_6_)" fill="#FFFFFF" d="M483.182,226.328v-26.116h5.791l0.292,0.213
		c0.037,0.031,0.414,0.308,0.792,0.754c0.371,0.441,5.323,7.246,5.35,7.278c2.693,3.857,11.124,7.103,18.37,7.055
		c9.839-0.016,17.394-7.368,17.409-16.979c0-0.308-0.011-0.627-0.021-0.94c-0.43-8.224-4.754-14.227-17.105-24.033
		c-19.662-15.258-25.399-23.216-26.026-36.301c-0.032-0.648-0.053-1.301-0.053-1.939c0-9.318,3.495-17.452,9.472-23.221
		c5.982-5.77,14.418-9.175,24.209-9.169c6.083-0.016,10.344,0.818,17.728,4.032v-5.478h7.608l0.005,29.58h-6.194l-0.261-0.707
		c-4.329-11.603-11.522-17.76-20.527-17.77c-9.243,0.048-15.396,6.401-15.448,15.704c0,0.356,0.005,0.707,0.026,1.062
		c0.398,8.133,5.998,15.98,21.048,27.487c17.845,13.515,22.685,20.719,23.316,34.292c0.043,0.755,0.059,1.493,0.059,2.231
		c0.011,9.706-3.379,17.733-9.482,23.264c-6.099,5.535-14.833,8.548-25.378,8.548c-7.23,0.005-13.042-0.803-21.474-3.612v4.765
		H483.182"/>
	<path clip-path="url(#SVGID_6_)" fill="#FFFFFF" d="M444.263,204.303c-4.102,8.059-9.743,12.356-16.617,12.362
		c-6.131-0.011-11.029-3.942-14.844-12.421c-3.761-8.446-6.168-21.266-7.028-38.223c0,0-0.048-8.054-0.048-10.115
		c0-14.003,2.109-25.187,5.935-32.73c3.852-7.56,9.19-11.433,16.027-11.454c7.385-0.032,13.876,6.63,17.356,18.567
		c2.523,10.003,4.94,23.253,5.429,32.953c0.122,2.434,0.187,4.803,0.187,7.108C450.665,184.546,448.333,196.254,444.263,204.303
		 M471.899,153.893c-1.52-30.08-19.471-52.658-42.898-52.695c-26.021,0.101-44.418,29.894-44.461,69.079
		c0,2.146,0.059,4.33,0.171,6.529c1.46,28.671,19.683,51.202,42.25,51.26c25.394-0.148,45.039-31.816,45.071-68.834
		C472.032,157.462,471.989,155.683,471.899,153.893"/>
</g>
</svg>
