<?xml version="1.0" encoding="utf-8"?>
<!-- Generator: Adobe Illustrator 16.0.0, SVG Export Plug-In . SVG Version: 6.00 Build 0)  -->
<!DOCTYPE svg PUBLIC "-//W3C//DTD SVG 1.1//EN" "http://www.w3.org/Graphics/SVG/1.1/DTD/svg11.dtd">
<svg version="1.1" id="Capa_1" xmlns="http://www.w3.org/2000/svg" xmlns:xlink="http://www.w3.org/1999/xlink" x="0px" y="0px"
	 width="800px" height="800px" viewBox="0 0 800 800" enable-background="new 0 0 800 800" xml:space="preserve">
<path d="M84.5,218l315-182l315,182v364.001L399.5,764l-315-181.999V218z M398.536,193c-22.433,0-45.234,6.135-65.34,17.261
	c-35.097,19.45-61.907,54.897-72.031,95.352c-5.452,21.839-5.985,44.992-2.092,67.129c3.944,22.452,11.553,44.063,20.653,64.8
	c19.657,44.842,45.862,85.823,74.83,124.516c9.93,13.271,20.069,26.392,31.325,38.488c2.256,2.412,2.625,2.76,4.998,4.084
	c5.653,3.178,12.835,2.91,18.251-0.658c2.062-1.362,2.423-1.937,4.133-3.734l0.108-0.132c5.697-6.961,11.219-14.12,16.671-21.334
	c29.789-39.365,57.222-80.402,79.451-124.441c14.496-28.738,27.36-59.208,31.687-91.454c2.423-18.141,1.334-36.703-2.784-54.506
	c-7.478-32.353-25.498-61.926-50.311-82.67c-11.142-9.312-23.603-16.855-36.843-22.285C434.954,196.746,417.495,193,399.915,193
	C399.453,193,398.998,193,398.536,193z M399.806,232c23.61,0,47.104,8.658,65.585,24.111c23.545,19.68,38.521,49.94,40.312,81.367
	c0.691,12.114-0.888,23.937-3.729,35.492c-6.606,26.871-18.432,51.868-31.441,75.965c-20.738,38.466-45.163,74.449-71.7,109.191
	c-20.263-24.973-38.724-51.347-55.439-78.952c-14.357-23.709-27.445-48.374-37.282-74.517c-6.965-18.509-12.503-37.799-13.059-57.51
	c-0.793-28.256,9.41-57.184,27.626-78.364C340.574,245.651,369.728,232,399.107,232C399.345,232,399.569,232,399.806,232z
	 M399.5,310c-23.404,0-42.376,20.147-42.376,45s18.973,45,42.376,45c23.404,0,42.377-20.147,42.377-45S422.904,310,399.5,310z"/>
</svg>
