<?xml version="1.0" encoding="UTF-8" standalone="no"?>
<!DOCTYPE svg PUBLIC "-//W3C//DTD SVG 1.1//EN" "http://www.w3.org/Graphics/SVG/1.1/DTD/svg11.dtd">
<svg width="100%" height="100%" viewBox="0 0 100 100" version="1.1" xmlns="http://www.w3.org/2000/svg" xmlns:xlink="http://www.w3.org/1999/xlink" xml:space="preserve" style="fill-rule:evenodd;clip-rule:evenodd;stroke-linejoin:round;stroke-miterlimit:1.41421;">
    <path d="M80.105,92.654L19.895,92.654L1.289,35.391L50,0L98.711,35.391L80.105,92.654ZM65.097,69.547C69.638,69.547 73.332,65.917 73.332,61.456L73.332,42.575C73.332,38.114 69.638,34.483 65.097,34.483L34.903,34.483C30.362,34.483 26.668,38.114 26.668,42.575L26.668,61.456C26.668,65.917 30.362,69.547 34.903,69.547L65.097,69.547ZM67.842,50.667L67.842,61.456C67.842,62.945 66.613,64.153 65.097,64.153L34.903,64.153C33.387,64.153 32.158,62.945 32.158,61.456L32.158,50.667L67.842,50.667ZM62.352,58.758C63.11,58.758 63.725,58.154 63.725,57.41C63.725,56.665 63.11,56.061 62.352,56.061L56.862,56.061C56.105,56.061 55.49,56.665 55.49,57.41C55.49,58.154 56.105,58.758 56.862,58.758L62.352,58.758ZM65.097,39.878C66.613,39.878 67.842,41.086 67.842,42.575L67.842,45.272L32.158,45.272L32.158,42.575C32.158,41.086 33.387,39.878 34.903,39.878L65.097,39.878Z"/>
</svg>
