<?xml version="1.0" encoding="UTF-8" standalone="no"?><!DOCTYPE svg PUBLIC "-//W3C//DTD SVG 1.1//EN" "http://www.w3.org/Graphics/SVG/1.1/DTD/svg11.dtd"><svg width="100%" height="100%" viewBox="0 0 1620 460" version="1.1" xmlns="http://www.w3.org/2000/svg" xmlns:xlink="http://www.w3.org/1999/xlink" xml:space="preserve" xmlns:serif="http://www.serif.com/" style="fill-rule:evenodd;clip-rule:evenodd;stroke-linejoin:round;stroke-miterlimit:1.41421;"><rect id="Artboard1" x="0" y="0" width="1620" height="460" style="fill:none;"/><g><path d="M804.716,376.298l14.642,0c4.441,0 8.13,-0.479 11.064,-1.44c2.933,-0.958 5.251,-2.288 6.952,-3.989c1.698,-1.699 2.891,-3.701 3.578,-6.005c0.684,-2.303 1.028,-4.797 1.028,-7.485c0,-5.976 -1.604,-10.597 -4.813,-13.86c-3.207,-3.263 -7.801,-4.895 -13.779,-4.895l-18.672,0l0,37.674Zm-25.582,37.84l12.421,0l0,-75.514l-12.421,0l0,-9.706l43.843,0c6.581,0 11.968,0.891 16.165,2.672c4.194,1.784 7.511,4.06 9.953,6.828c2.439,2.77 4.126,5.855 5.058,9.254c0.933,3.401 1.398,6.691 1.398,9.872c0,5.484 -0.959,9.994 -2.879,13.531c-1.919,3.536 -4.593,6.333 -8.019,8.39c-3.428,2.057 -7.514,3.483 -12.257,4.278c-4.744,0.795 -9.913,1.193 -15.505,1.193l-12.01,0l0,29.202l12.997,0l0,9.624l-38.744,0l0,-9.624Z" style="fill:#fff;fill-rule:nonzero;"/><path d="M911.833,394.765c-1.755,0 -3.962,-0.212 -6.621,-0.637c-2.662,-0.424 -5.47,-0.638 -8.431,-0.638c-2.139,0 -4.278,0.152 -6.417,0.453c-2.139,0.301 -4.045,0.892 -5.717,1.769c-1.673,0.877 -3.031,2.138 -4.071,3.784c-1.044,1.645 -1.563,3.811 -1.563,6.497c0,1.428 0.273,2.785 0.823,4.073c0.546,1.288 1.355,2.399 2.425,3.331c1.069,0.933 2.372,1.673 3.908,2.222c1.535,0.548 3.317,0.822 5.347,0.822c1.81,0 3.647,-0.164 5.511,-0.494c1.864,-0.328 3.687,-0.808 5.47,-1.439c1.781,-0.631 3.467,-1.398 5.059,-2.304c1.59,-0.904 3.016,-1.933 4.277,-3.085l0,-14.354Zm-40.552,-29.243c2.96,-2.961 6.634,-5.236 11.021,-6.826c4.388,-1.591 9.406,-2.386 15.055,-2.386c5.152,0 9.459,0.617 12.913,1.851c3.455,1.232 6.197,2.866 8.227,4.893c2.029,2.03 3.468,4.361 4.318,6.993c0.851,2.632 1.275,5.346 1.275,8.143l0,36.771l11.846,0l0,8.801l-22.787,0l-0.165,-6.829c-2.193,1.592 -4.25,2.921 -6.168,3.991c-1.921,1.069 -3.798,1.92 -5.634,2.55c-1.839,0.629 -3.689,1.081 -5.553,1.357c-1.865,0.274 -3.812,0.411 -5.841,0.411c-3.455,0 -6.568,-0.534 -9.336,-1.604c-2.771,-1.069 -5.129,-2.48 -7.073,-4.236c-1.949,-1.754 -3.429,-3.797 -4.443,-6.128c-1.016,-2.331 -1.522,-4.758 -1.522,-7.281c0,-4.111 0.753,-7.512 2.263,-10.199c1.507,-2.686 3.548,-4.826 6.127,-6.417c2.576,-1.589 5.607,-2.7 9.089,-3.33c3.483,-0.631 7.171,-0.947 11.065,-0.947c2.633,0 5.235,0.138 7.814,0.412c2.577,0.274 5.265,0.685 8.061,1.234l0,-7.98c0,-2.304 -0.398,-4.263 -1.193,-5.881c-0.795,-1.618 -1.891,-2.92 -3.289,-3.907c-1.399,-0.988 -3.032,-1.715 -4.895,-2.18c-1.865,-0.465 -3.839,-0.7 -5.922,-0.7c-3.784,0 -7.198,0.617 -10.242,1.851c-3.044,1.234 -5.526,3.113 -7.444,5.634l-7.567,-8.061Z" style="fill:#fff;fill-rule:nonzero;"/><path d="M945.494,414.961l13.246,0l0,-48.287l-13.74,0l0,-9.13l23.77,0l0.08,14.395c1.49,-3.016 3.08,-5.524 4.78,-7.527c1.7,-2.001 3.53,-3.605 5.51,-4.813c1.97,-1.205 4.11,-2.055 6.41,-2.549c2.31,-0.493 4.769,-0.74 7.409,-0.74c2.351,0 4.901,0.164 7.651,0.493l-0.411,11.434c-0.059,-0.109 -0.479,-0.165 -1.279,-0.165l-6.79,0c-4.051,0 -7.431,0.577 -10.11,1.726c-2.691,1.149 -4.84,2.791 -6.46,4.926c-1.62,2.136 -2.77,4.709 -3.46,7.719c-0.68,3.01 -1.02,6.377 -1.02,10.1l0,22.418l14.47,0l0,8.801l-40.056,0l0,-8.801Z" style="fill:#fff;fill-rule:nonzero;"/><path d="M1009.92,357.544l10.2,0l0,-21.223l12.42,-2.633l0,23.856l14.23,0l0,9.13l-14.23,0l0,33.315c0,2.523 0.04,4.717 0.12,6.58c0.09,1.865 0.35,3.414 0.78,4.649c0.44,1.233 1.13,2.166 2.06,2.796c0.93,0.631 2.28,0.947 4.03,0.947l9.71,0l0,8.801l-11.35,0c-4.28,0 -7.61,-0.63 -10,-1.893c-2.38,-1.259 -4.15,-3.002 -5.3,-5.223c-1.15,-2.22 -1.85,-4.825 -2.1,-7.814c-0.25,-2.988 -0.37,-6.238 -0.37,-9.748l0,-32.41l-10.2,0l0,-9.13Z" style="fill:#fff;fill-rule:nonzero;"/><path d="M1059.87,414.961l11.76,0l0,-48.287l-12.26,0l0,-9.13l24.35,0l0.33,8.554c4.22,-3.291 8.14,-5.743 11.76,-7.361c3.62,-1.618 7.46,-2.427 11.52,-2.427c3.02,0 5.72,0.493 8.1,1.481c2.39,0.987 4.42,2.413 6.09,4.276c1.67,1.865 2.95,4.101 3.83,6.705c0.87,2.605 1.31,5.526 1.31,8.76l-0.08,37.429l11.92,0l0,8.801l-33.06,0l0,-8.801l9.05,0l0,-32.905c0,-4.824 -0.74,-8.596 -2.23,-11.31c-1.48,-2.715 -4.16,-4.072 -8.06,-4.072c-3.78,0 -7.35,0.987 -10.69,2.962c-3.34,1.974 -6.5,4.387 -9.46,7.238l0,38.087l11.93,0l0,8.801l-36.11,0l0,-8.801Z" style="fill:#fff;fill-rule:nonzero;"/><path d="M1205.73,385.347c-0.33,-2.687 -1.04,-5.169 -2.14,-7.445c-1.1,-2.274 -2.52,-4.249 -4.28,-5.922c-1.75,-1.673 -3.85,-2.975 -6.29,-3.908c-2.44,-0.932 -5.17,-1.398 -8.19,-1.398c-3.34,0 -6.32,0.453 -8.92,1.357c-2.61,0.905 -4.85,2.167 -6.75,3.785c-1.89,1.618 -3.42,3.577 -4.6,5.881c-1.18,2.303 -2.02,4.853 -2.51,7.65l43.68,0Zm-44.01,8.39c0.16,3.181 0.82,6.074 1.97,8.678c1.15,2.606 2.74,4.841 4.77,6.704c2.03,1.865 4.46,3.305 7.28,4.32c2.83,1.014 6.02,1.522 9.59,1.522c2.14,0 4.25,-0.247 6.33,-0.741c2.08,-0.494 4.06,-1.193 5.92,-2.098c1.87,-0.904 3.6,-1.987 5.19,-3.249c1.59,-1.262 2.93,-2.686 4.03,-4.278l8.39,6.252c-2.8,4.278 -6.68,7.747 -11.64,10.406c-4.97,2.659 -11.15,3.989 -18.55,3.989c-5.71,0 -10.83,-0.904 -15.38,-2.714c-4.56,-1.81 -8.41,-4.278 -11.56,-7.403c-3.16,-3.126 -5.58,-6.787 -7.28,-10.983c-1.7,-4.194 -2.55,-8.677 -2.55,-13.449c0,-4.99 0.93,-9.595 2.8,-13.819c1.86,-4.222 4.41,-7.856 7.65,-10.899c3.23,-3.044 7.07,-5.415 11.51,-7.115c4.44,-1.7 9.27,-2.55 14.48,-2.55c5.43,0 10.2,0.973 14.31,2.919c4.12,1.948 7.56,4.579 10.33,7.898c2.76,3.318 4.84,7.155 6.21,11.515c1.37,4.361 2.05,8.927 2.05,13.696l0,1.399l-55.85,0Z" style="fill:#fff;fill-rule:nonzero;"/><path d="M1231.74,414.961l13.24,0l0,-48.287l-13.74,0l0,-9.13l23.78,0l0.08,14.395c1.48,-3.016 3.07,-5.524 4.77,-7.527c1.7,-2.001 3.54,-3.605 5.51,-4.813c1.98,-1.205 4.12,-2.055 6.42,-2.549c2.3,-0.493 4.77,-0.74 7.4,-0.74c2.36,0 4.91,0.164 7.65,0.493l-0.41,11.434c-0.06,-0.109 -0.48,-0.165 -1.28,-0.165l-6.78,0c-4.06,0 -7.43,0.577 -10.12,1.726c-2.69,1.149 -4.84,2.791 -6.46,4.926c-1.61,2.136 -2.77,4.709 -3.45,7.719c-0.69,3.01 -1.03,6.377 -1.03,10.1l0,22.418l14.48,0l0,8.801l-40.06,0l0,-8.801Z" style="fill:#fff;fill-rule:nonzero;"/><path d="M1299.62,402.128l10.94,0l0,4.359c0.71,1.371 1.53,2.605 2.47,3.702c0.93,1.097 2.07,2.043 3.41,2.838c1.34,0.795 2.92,1.412 4.73,1.851c1.81,0.439 3.92,0.658 6.33,0.658c4.83,0 8.54,-0.822 11.15,-2.467c2.6,-1.646 3.91,-4.032 3.91,-7.158c0,-1.754 -0.36,-3.167 -1.07,-4.235c-0.72,-1.07 -1.72,-1.934 -3,-2.592c-1.29,-0.658 -2.83,-1.165 -4.61,-1.521c-1.78,-0.357 -3.77,-0.699 -5.96,-1.029c-3.41,-0.493 -6.79,-1.123 -10.16,-1.892c-3.38,-0.768 -6.42,-1.904 -9.13,-3.414c-2.72,-1.507 -4.93,-3.509 -6.63,-6.004c-1.7,-2.496 -2.55,-5.718 -2.55,-9.667c0,-2.686 0.58,-5.208 1.73,-7.567c1.15,-2.356 2.8,-4.401 4.94,-6.128c2.14,-1.728 4.7,-3.084 7.69,-4.071c2.99,-0.988 6.35,-1.481 10.07,-1.481c3.3,0 6.39,0.589 9.3,1.768c2.9,1.18 5.43,2.647 7.57,4.4l0,-4.934l10.61,0l0,21.057l-10.61,0l0,-5.51c-3.9,-4.717 -9.35,-7.075 -16.37,-7.075c-4.11,0 -7.36,0.81 -9.75,2.427c-2.39,1.618 -3.58,3.825 -3.58,6.621c0,1.81 0.63,3.249 1.89,4.319c1.26,1.069 2.92,1.947 4.98,2.632c2.06,0.686 4.42,1.262 7.08,1.728c2.66,0.466 5.35,0.974 8.1,1.522c2.74,0.548 5.44,1.247 8.1,2.098c2.66,0.85 5.02,2.014 7.07,3.495c2.06,1.48 3.72,3.36 4.98,5.635c1.26,2.276 1.89,5.114 1.89,8.513c0,3.017 -0.61,5.773 -1.85,8.268c-1.23,2.495 -2.99,4.621 -5.26,6.374c-2.28,1.757 -5.03,3.127 -8.27,4.114c-3.24,0.987 -6.86,1.48 -10.86,1.48c-3.78,0 -7.17,-0.44 -10.16,-1.316c-2.99,-0.876 -5.71,-2.303 -8.18,-4.278l0,4.114l-10.94,0l0,-21.634Z" style="fill:#fff;fill-rule:nonzero;"/><path d="M1365.77,414.961l12.5,0l0,-76.091l-12.33,0l0,-9.952l24.59,0l0,35.124c7.79,-5.155 16.12,-7.732 25.01,-7.732c14.04,0 21.06,7.238 21.06,21.716c0,0.164 0,0.781 0,1.85c0,1.07 -0.02,2.456 -0.05,4.155c-0.02,1.7 -0.04,3.606 -0.04,5.716l0,25.214l11.85,0l0,8.801l-32.41,0l0,-8.801l8.39,0l0,-34.632c0,-1.863 -0.17,-3.632 -0.49,-5.306c-0.33,-1.672 -0.94,-3.125 -1.81,-4.359c-0.88,-1.234 -2.06,-2.208 -3.54,-2.921c-1.48,-0.711 -3.37,-1.069 -5.68,-1.069c-3.34,0 -6.98,0.576 -10.9,1.728c-3.92,1.151 -7.72,2.961 -11.39,5.428l0,41.131l11.93,0l0,8.801l-36.69,0l0,-8.801Z" style="fill:#fff;fill-rule:nonzero;"/><path d="M1466.97,336.073c0,-0.986 0.19,-1.918 0.57,-2.796c0.38,-0.877 0.92,-1.646 1.61,-2.304c0.68,-0.658 1.48,-1.164 2.38,-1.521c0.91,-0.356 1.88,-0.534 2.92,-0.534c2.14,0 3.94,0.685 5.39,2.055c1.45,1.372 2.18,3.073 2.18,5.1c0,2.03 -0.73,3.73 -2.18,5.101c-1.45,1.371 -3.25,2.057 -5.39,2.057c-1.04,0 -2.01,-0.179 -2.92,-0.535c-0.9,-0.356 -1.7,-0.864 -2.38,-1.522c-0.69,-0.658 -1.23,-1.426 -1.61,-2.304c-0.38,-0.876 -0.57,-1.809 -0.57,-2.797Zm-9.63,78.888l11.11,0l0,-48.287l-11.11,0l0,-9.13l23.36,0l0,57.417l11.19,0l0,8.801l-34.55,0l0,-8.801Z" style="fill:#fff;fill-rule:nonzero;"/><path d="M1546.11,414.961c3.51,0 6.64,-0.618 9.38,-1.851c2.74,-1.234 5.05,-2.921 6.91,-5.06c1.87,-2.139 3.29,-4.648 4.28,-7.526c0.99,-2.879 1.48,-5.992 1.48,-9.337c0,-3.291 -0.51,-6.416 -1.52,-9.377c-1.02,-2.962 -2.5,-5.566 -4.44,-7.816c-1.95,-2.247 -4.3,-4.029 -7.04,-5.345c-2.74,-1.317 -5.84,-1.975 -9.29,-1.975c-2.47,0 -4.79,0.329 -6.95,0.987c-2.17,0.659 -4.16,1.481 -5.97,2.469c-1.81,0.986 -3.44,2.083 -4.89,3.29c-1.46,1.207 -2.7,2.331 -3.74,3.371l0,29.614c1.26,0.987 2.64,1.988 4.15,3.002c1.51,1.017 3.17,1.934 4.98,2.756c1.81,0.823 3.77,1.495 5.88,2.016c2.11,0.521 4.37,0.782 6.78,0.782Zm-46.47,28.872l12.58,0l0,-77.159l-11.59,0l0,-9.13l23.03,0l0.66,8.801c3.12,-3.291 6.75,-5.785 10.89,-7.485c4.14,-1.7 8.44,-2.55 12.88,-2.55c5.1,0 9.68,0.905 13.74,2.713c4.05,1.81 7.49,4.278 10.32,7.404c2.82,3.126 4.99,6.787 6.5,10.981c1.5,4.196 2.26,8.68 2.26,13.45c0,4.718 -0.78,9.159 -2.35,13.325c-1.56,4.169 -3.78,7.816 -6.66,10.942c-2.88,3.125 -6.35,5.593 -10.4,7.403c-4.06,1.81 -8.59,2.714 -13.58,2.714c-4.44,0 -8.7,-0.728 -12.79,-2.18c-4.08,-1.452 -7.69,-3.604 -10.81,-6.458l0,27.312l13.57,0l0,10.117l-38.25,0l0,-10.2Z" style="fill:#fff;fill-rule:nonzero;"/><path d="M828.001,120.41c20.895,0 34.387,-16.782 34.387,-37.596c0,-21.142 -13.492,-37.925 -34.387,-37.925c-20.732,0 -34.306,16.783 -34.306,37.925c0,20.814 13.574,37.596 34.306,37.596Zm0,-86.626c30.438,0 49.03,21.718 49.03,49.03c0,27.231 -18.592,48.866 -49.03,48.866c-30.439,0 -48.867,-21.553 -48.867,-48.866c0,-27.476 18.51,-49.03 48.867,-49.03Z" style="fill:#fff;fill-rule:nonzero;"/><path d="M956.18,96.8c0,-13.41 -8.229,-23.775 -21.886,-23.775c-12.339,0 -21.8,8.309 -22.047,19.332c-0.082,0.165 -0.082,9.708 -0.082,9.872c0.658,11.024 9.378,18.839 21.553,18.839c14.315,0 22.462,-9.954 22.462,-24.268Zm-68.531,53.391l12.587,0l0,-38.419l0,-38.007l-11.6,0l0,-9.872l24.022,0c0,0 0.329,8.72 0.411,8.72c6.088,-6.499 14.151,-9.872 23.038,-9.872c20.483,0 32.823,15.384 32.823,34.47c0,18.839 -13,34.469 -32.99,34.469c-8.885,0 -17.358,-3.043 -23.529,-8.72c0,1.892 0.083,27.231 0.083,27.231l13.409,0.082l0,10.119l-38.254,0l0,-10.201Z" style="fill:#fff;fill-rule:nonzero;"/><path d="M1018.3,91.699l21.55,0c-1.73,-10.448 -8.88,-19.497 -20.89,-19.497c-13.25,0 -20.9,8.309 -22.79,19.497l22.13,0Zm5.67,8.556l-28.131,-0.165c1.73,12.752 9.461,21.307 23.611,21.307c8.55,0 16.7,-3.126 21.72,-9.131l10.53,4.607c-6.34,9.378 -18.02,14.807 -32.58,14.807c-22.791,0 -36.77,-15.465 -36.77,-34.633c0,-20.074 15.71,-34.306 36.44,-34.306c21.8,0 32.91,16.783 32.91,35.951c0,0.411 0,0.905 0,1.398l-27.73,0.165Z" style="fill:#fff;fill-rule:nonzero;"/><path d="M1065.77,119.999l11.77,0l0,-46.234l-12.26,0l0,-9.872l24.35,0c0,0 0.16,7.157 0.33,8.555c8.47,-6.581 15.14,-9.707 23.28,-9.707c12.09,0 19.5,8.144 19.5,21.143c0,1.233 -0.25,36.115 -0.25,36.115l11.93,0.164l0,9.954l-33.07,0l0,-9.872l9.05,0l0,-31.837c0,-9.707 -2.47,-15.137 -10.29,-15.137c-7.48,0 -14.31,4.936 -20.15,11.6l0,35.21l11.93,0l0,10.036l-36.12,0l0,-10.118Z" style="fill:#fff;fill-rule:nonzero;"/><path d="M779.134,232.401c0,-29.04 17.112,-49.031 46.974,-49.031c13.328,0 24.514,5.101 31.838,12.258l0,-10.777l10.694,0l0,28.711l-10.283,0c-6.334,-12.669 -17.935,-19.086 -31.591,-19.086c-20.731,0 -33.071,16.124 -33.071,37.514c0,21.142 12.916,37.843 33.565,37.843c13.739,0 29.863,-5.677 32.825,-24.516l11.105,5.841c-4.031,18.181 -20.568,30.109 -44.835,30.109c-29.04,0 -47.221,-19.908 -47.221,-48.866Z" style="fill:#fff;fill-rule:nonzero;"/><path d="M941.372,246.634c0,-13.41 -8.474,-23.776 -22.047,-23.776c-13.41,0 -21.883,10.366 -21.883,23.776c0,13.409 8.473,23.363 21.883,23.363c13.573,0 22.047,-9.954 22.047,-23.363Zm-57.011,0c0,-19.004 13.575,-34.306 35.128,-34.306c21.389,0 35.041,15.302 35.041,34.306c0,19.003 -13.736,34.633 -35.205,34.633c-21.389,0 -34.964,-15.63 -34.964,-34.633Z" style="fill:#fff;fill-rule:nonzero;"/><path d="M967.79,269.586l11.76,0l0,-46.234l-12.26,0l0,-9.872l24.36,0c0,0 0.16,7.157 0.32,8.555c8.479,-6.581 15.14,-9.707 23.29,-9.707c12.09,0 19.49,8.144 19.49,21.143c0,1.233 -0.24,36.115 -0.24,36.115l11.93,0.164l0,9.954l-33.08,0l0,-9.871l9.05,0l0,-31.838c0,-9.707 -2.46,-15.137 -10.28,-15.137c-7.49,0 -14.311,4.936 -20.16,11.6l0,35.21l11.93,0l0,10.036l-36.11,0l0,-10.118Z" style="fill:#fff;fill-rule:nonzero;"/><path d="M1054.51,213.48l10.44,0l0,-13.821l12.18,-10.037l0,23.858l13.41,0l0,10.036l-13.41,0l0,17.523c0,3.373 0,21.719 0.32,22.87c0.25,4.525 2.8,6.088 6.67,6.088c1.89,0 4.11,-0.411 6.42,-1.152l0,10.448c-2.88,0.74 -6.09,1.317 -8.89,1.317c-9.46,0 -16.12,-4.114 -16.53,-15.796c0,0 -0.42,-19.909 -0.42,-23.117l0,-18.181l-10.19,0l0,-10.036Z" style="fill:#fff;fill-rule:nonzero;"/><path d="M1104.53,269.586l13.25,0l0,-46.234l-13.74,0l0,-9.872l23.28,0c0,0 0.41,12.916 0.58,14.397c4.44,-10.531 12.67,-15.549 21.96,-15.549c1.24,0 9.79,0.329 9.79,0.329l-0.41,11.518c-0.25,-0.165 -7.24,-0.248 -8.06,-0.248c-16.21,0 -21.06,9.544 -21.06,24.516l0,21.225l14.48,0l0,10.036l-40.07,0l0,-10.118Z" style="fill:#fff;fill-rule:nonzero;"/><path d="M1213.88,250.747c-3.54,-0.083 -9.13,-1.317 -15.06,-1.317c-8.64,0 -17.77,1.728 -17.77,12.505c0,5.759 4.45,10.448 12.51,10.448c7.24,0 15.3,-2.797 20.32,-7.322l0,-14.314Zm-44.43,11.188c0,-16.371 12.92,-20.896 28.55,-20.896c5.1,0 10.53,0.576 15.88,1.645l0,-7.98c0,-9.213 -7.41,-12.669 -16.13,-12.669c-6.74,0 -12.09,2.386 -15.22,6.911l-11.51,-3.208c5.02,-8.639 14.8,-13.41 28.38,-13.41c20.73,0 26.74,10.53 26.74,21.801l0,35.621l11.84,0l0,9.954l-22.79,0c0,0 -0.08,-6.828 -0.16,-6.828c-8.72,6.335 -14.97,8.638 -23.2,8.638c-13.9,0 -22.38,-9.461 -22.38,-19.579Z" style="fill:#fff;fill-rule:nonzero;"/><path d="M1246.96,246.14c0,-17.77 13.16,-33.812 33.15,-33.812c7.16,0 14.81,1.645 18.59,7.075l0.09,-5.923l10.94,0l0,23.693l-10.62,0c-1.72,-9.543 -6.91,-14.232 -18.09,-14.232c-13.58,0 -20.98,9.707 -20.98,23.034c0,14.479 7.73,24.68 21.3,24.68c8.81,0 16.05,-3.702 20.16,-10.941l9.95,4.525c-5.01,11.023 -15.87,17.028 -30.43,17.028c-24.11,0 -34.06,-19.003 -34.06,-35.127Z" style="fill:#fff;fill-rule:nonzero;"/><path d="M1323.31,213.48l10.45,0l0,-13.821l12.17,-10.037l0,23.858l13.41,0l0,10.036l-13.41,0l0,17.523c0,3.373 0,21.719 0.33,22.87c0.25,4.525 2.8,6.088 6.66,6.088c1.9,0 4.12,-0.411 6.42,-1.152l0,10.448c-2.88,0.74 -6.09,1.317 -8.88,1.317c-9.46,0 -16.13,-4.114 -16.54,-15.796c0,0 -0.41,-19.909 -0.41,-23.117l0,-18.181l-10.2,0l0,-10.036Z" style="fill:#fff;fill-rule:nonzero;"/><path d="M1390.04,184.851c4.19,0 7.57,3.126 7.57,7.157c0,4.031 -3.38,7.157 -7.57,7.157c-4.19,0 -7.49,-3.126 -7.49,-7.157c0,-4.031 3.3,-7.157 7.49,-7.157Zm-17.11,84.653l11.11,0l0,-46.152l-11.11,0l0,-9.872l23.36,0l0,56.188l11.19,0l0,10.036l-34.55,0l0,-10.2Z" style="fill:#fff;fill-rule:nonzero;"/><path d="M1419.34,269.586l11.76,0l0,-46.234l-12.25,0l0,-9.872l24.35,0c0,0 0.16,7.157 0.33,8.555c8.47,-6.581 15.13,-9.707 23.28,-9.707c12.09,0 19.49,8.144 19.49,21.143c0,1.233 -0.25,36.115 -0.25,36.115l11.93,0.164l0,9.954l-33.07,0l0,-9.871l9.05,0l0,-31.838c0,-9.707 -2.46,-15.137 -10.28,-15.137c-7.49,0 -14.31,4.936 -20.15,11.6l0,35.21l11.92,0l0,10.036l-36.11,0l0,-10.118Z" style="fill:#fff;fill-rule:nonzero;"/><path d="M1565.04,251.816c0,-0.164 0,-9.954 0,-10.283c-0.41,-10.448 -9.71,-18.346 -21.72,-18.346c-13.82,0 -22.29,10.777 -22.29,23.94c0,12.34 7.98,22.294 22.05,22.294c11.76,0 21.96,-7.815 21.96,-17.605Zm-49.19,49.854l7.73,-8.556c5.59,4.031 12.26,6.005 18.92,6.005c9.79,0 22.21,-4.936 22.46,-19.661c0,-0.329 -0.25,-7.075 -0.25,-7.405c-4.6,4.278 -14.89,7.651 -23.86,7.651c-20.4,0 -32.9,-14.643 -32.9,-32.248c0,-19.004 13.08,-35.128 33.4,-35.128c8.8,0 16.45,2.961 23.28,9.049c0.08,0 0.25,-7.897 0.25,-7.897l24.59,0l0,9.872l-12.42,0.246c0,0 0.08,48.949 0.08,51.417c0,26.079 -18.34,34.306 -35.7,34.306c-10.2,0 -17.85,-2.222 -25.58,-7.651Z" style="fill:#fff;fill-rule:nonzero;"/><path d="M193.882,403.9l405.547,-297.115l-158.845,-66.296l-410.321,197.023l163.619,166.388Z" style="fill:#fff;fill-rule:nonzero;"/><path d="M515.243,403.9l-405.561,-297.115l166.51,-66.296l402.668,197.023l-163.617,166.388Z" style="fill:#fff;fill-rule:nonzero;"/><path d="M599.424,106.785l-158.846,-66.296l-82.969,39.838l166.634,81.533l75.181,-55.075Z" style="fill:#fff;fill-rule:nonzero;"/><path d="M186.034,162.718l168.523,123.471l169.692,-124.329l-166.635,-81.533l-171.58,82.391Z" style="fill:#fff;fill-rule:nonzero;"/><path d="M276.192,40.489l81.417,39.838l0,208.094l-247.927,-181.636l166.51,-66.296Z" style="fill:#fff;fill-rule:nonzero;"/><path d="M357.609,80.327l-171.575,82.391l168.523,123.471l3.052,-2.24l0,-203.622Z" style="fill:#e6e6e6;fill-rule:nonzero;"/></g></svg>