<?xml version="1.0" encoding="UTF-8" standalone="no"?>
<!DOCTYPE svg PUBLIC "-//W3C//DTD SVG 1.1//EN" "http://www.w3.org/Graphics/SVG/1.1/DTD/svg11.dtd">
<svg width="100%" height="100%" viewBox="0 0 100 100" version="1.1" xmlns="http://www.w3.org/2000/svg" xmlns:xlink="http://www.w3.org/1999/xlink" xml:space="preserve" style="fill-rule:evenodd;clip-rule:evenodd;stroke-linejoin:round;stroke-miterlimit:1.41421;">
    <path d="M69.742,92.212L30.258,92.212L5.641,61.342L14.427,22.849L50,5.718L85.573,22.849L94.359,61.342L69.742,92.212ZM58.926,59.151C58.927,55.89 67.109,54.647 70.584,51.518C73.877,48.553 72.488,44.43 72.488,44.43L55.185,53.906C55.185,53.906 54.527,52.809 55.881,50.763C58.07,47.454 63.535,42.999 65.745,39.202C67.873,35.549 64.327,31.229 64.327,31.229L50.049,49.025C47.823,46.259 53.575,35.615 53.575,32.049C53.575,28.019 50.208,25.786 49.219,25.237L43.064,47.404C42.009,51.214 43.645,53.484 45.697,54.912C46.559,55.512 49.655,57.291 49.655,59.439C49.655,61.417 48.229,62.116 46.887,62.116C42.228,62.116 39.587,52 33.413,52C28.922,52 27.221,56.027 27.221,56.027C30.35,56.68 33.385,59.245 36.093,64.573C38.437,69.184 42.21,72.693 47.079,72.693C54.315,72.693 56.741,66.305 58.897,64.363C60.939,62.523 65.273,63.706 67.299,63.259C69.589,62.754 70.804,59.169 70.81,59.151L58.926,59.151Z"/>
</svg>
