<?xml version="1.0" encoding="utf-8"?>
<!-- Generated by IcoMoon.io -->
<!DOCTYPE svg PUBLIC "-//W3C//DTD SVG 1.1//EN" "http://www.w3.org/Graphics/SVG/1.1/DTD/svg11.dtd">
<svg version="1.1" xmlns="http://www.w3.org/2000/svg" xmlns:xlink="http://www.w3.org/1999/xlink" width="768" height="768" viewBox="0 0 768 768">
<g id="icomoon-ignore">
</g>
<path d="M384 192c52.928 0 96 43.072 96 96s-43.072 96-96 96-96-43.072-96-96 43.072-96 96-96M384 128c-88.448 0-160 71.616-160 160s71.552 160 160 160 160-71.616 160-160-71.552-160-160-160z"></path>
<path d="M384 544c64.672 0 105.632 24.672 121.056 46.24-21.856 8.32-63.008 17.76-121.056 17.76-63.488 0-102.592-9.76-122.176-17.344 14.688-22.88 56.864-46.656 122.176-46.656M384 480c-120 0-192 64-192 128 0 32 72 64 192 64 112.576 0 192-32 192-64s-75.328-128-192-128z"></path>
</svg>
