<?xml version="1.0" encoding="utf-8"?>
<!-- Generator: Adobe Illustrator 16.0.0, SVG Export Plug-In . SVG Version: 6.00 Build 0)  -->
<!DOCTYPE svg PUBLIC "-//W3C//DTD SVG 1.1//EN" "http://www.w3.org/Graphics/SVG/1.1/DTD/svg11.dtd">
<svg version="1.1" id="Livello_1" xmlns="http://www.w3.org/2000/svg" xmlns:xlink="http://www.w3.org/1999/xlink" x="0px" y="0px"
	 width="592.47px" height="593.329px" viewBox="0 0 592.47 593.329" enable-background="new 0 0 592.47 593.329"
	 xml:space="preserve">
<path fill="none" stroke="#FFFFFF" stroke-width="1.2" stroke-miterlimit="10" d="M26.281,225.548"/>
<path fill="#FFFFFF" d="M296.236,0.43C132.629,0.43,0,133.059,0,296.664c0,163.606,132.629,296.235,296.235,296.235
	c163.605,0,296.234-132.629,296.234-296.235C592.47,133.059,459.841,0.43,296.236,0.43z M437.099,506.613
	c-6.07,3.285-13.658,1.025-16.942-5.046c-3.181-5.88-9.301-9.532-15.972-9.532c-6.396,0-12.278,3.351-15.557,8.8l-0.447,0.845
	c-7.551,13.964-22.098,22.639-37.964,22.639c-15.903,0-30.467-8.705-38.006-22.719l-0.463-0.861
	c-3.293-5.392-9.146-8.703-15.497-8.703c-6.396,0-12.279,3.351-15.559,8.803l-0.446,0.842
	c-7.551,13.964-22.097,22.639-37.961,22.639c-15.904,0-30.468-8.705-38.008-22.719l-0.467-0.868
	c-3.292-5.388-9.142-8.696-15.493-8.696c-6.689,0-12.817,3.665-15.991,9.564c-3.271,6.079-10.852,8.354-16.931,5.085
	c-6.079-3.271-8.356-10.852-5.085-16.931c7.54-14.014,22.104-22.719,38.007-22.719c15.864,0,30.41,8.674,37.962,22.637l0.534,0.988
	c3.295,5.366,9.131,8.658,15.472,8.658c6.397,0,12.287-3.357,15.562-8.814l0.396-0.751c7.542-14.013,22.105-22.718,38.007-22.718
	c15.86,0,30.406,8.673,37.961,22.635l0.538,0.994c3.295,5.364,9.129,8.654,15.467,8.654c6.399,0,12.289-3.356,15.564-8.814
	l0.396-0.75c7.54-14.014,22.104-22.719,38.008-22.719c15.861,0,30.406,8.674,37.96,22.636
	C445.43,495.743,443.17,503.328,437.099,506.613z M496.126,411.895c-7.539,14.014-22.103,22.719-38.007,22.719
	c-15.864,0-30.411-8.674-37.964-22.637l-0.546-1.011c-3.297-5.355-9.126-8.64-15.457-8.64c-6.399,0-12.291,3.36-15.566,8.824
	l-0.393,0.744c-7.539,14.014-22.103,22.719-38.007,22.719c-15.864,0-30.411-8.674-37.963-22.637l-0.53-0.979
	c-3.296-5.374-9.135-8.671-15.479-8.671c-6.399,0-12.29,3.36-15.565,8.823l-0.393,0.745c-7.539,14.014-22.102,22.719-38.007,22.719
	c-15.865,0-30.411-8.675-37.962-22.638l-0.532-0.983c-3.293-5.371-9.129-8.666-15.472-8.666c-6.4,0-12.291,3.36-15.566,8.823
	l-0.393,0.745c-7.539,14.014-22.103,22.719-38.007,22.719c-15.864,0-30.41-8.674-37.962-22.638
	c-3.284-6.072-1.024-13.657,5.049-16.941c6.073-3.285,13.657-1.023,16.941,5.049c3.179,5.878,9.299,9.53,15.972,9.53
	c6.398,0,12.283-3.352,15.56-8.805l0.443-0.836c7.55-13.969,22.097-22.646,37.964-22.646c15.905,0,30.469,8.708,38.007,22.726
	l0.46,0.856c3.289,5.394,9.143,8.705,15.498,8.705c6.398,0,12.282-3.352,15.559-8.804l0.443-0.837
	c7.55-13.969,22.097-22.646,37.963-22.646c15.904,0,30.469,8.707,38.011,22.724l0.463,0.859c3.29,5.393,9.144,8.704,15.498,8.704
	c6.398,0,12.282-3.352,15.56-8.805l0.443-0.837c7.551-13.968,22.098-22.646,37.963-22.646c15.904,0,30.469,8.708,38.009,22.725
	l0.475,0.883c3.293,5.378,9.139,8.68,15.483,8.68c6.69,0,12.817-3.664,15.991-9.562c3.271-6.08,10.852-8.356,16.93-5.086
	C497.121,398.235,499.398,405.815,496.126,411.895z M551.074,327.196c-6.07,3.287-13.657,1.026-16.941-5.047
	c-3.181-5.879-9.301-9.53-15.973-9.53c-6.396,0-12.276,3.349-15.555,8.797l-0.449,0.848c-7.552,13.964-22.099,22.638-37.963,22.638
	c-15.903,0-30.467-8.705-38.006-22.719l-0.467-0.868c-3.29-5.388-9.141-8.695-15.492-8.695c-6.396,0-12.28,3.352-15.561,8.803
	l-0.445,0.841c-7.551,13.964-22.097,22.639-37.961,22.639c-14.553,0-27.968-7.306-35.924-19.282
	c-1.097-0.956-2.054-2.109-2.787-3.465c-3.13-5.784-9.104-9.404-15.646-9.522c-6.538,0.139-12.493,3.767-15.606,9.551
	c-0.736,1.368-1.699,2.532-2.805,3.495c-7.958,11.941-21.36,19.226-35.883,19.226c-15.902,0-30.466-8.705-38.006-22.719
	l-0.468-0.869c-3.29-5.387-9.14-8.694-15.49-8.694c-6.396,0-12.278,3.351-15.559,8.801l-0.447,0.844
	c-7.552,13.964-22.098,22.638-37.961,22.638c-15.904,0-30.468-8.705-38.008-22.719l-0.468-0.869
	c-3.291-5.387-9.141-8.694-15.492-8.694c-6.689,0-12.817,3.665-15.992,9.563c-3.271,6.08-10.853,8.354-16.931,5.085
	c-6.079-3.271-8.355-10.852-5.084-16.931c7.54-14.013,22.104-22.718,38.006-22.718c15.864,0,30.411,8.674,37.962,22.637l0.533,0.985
	c3.295,5.367,9.131,8.66,15.473,8.66c6.397,0,12.287-3.357,15.563-8.816l0.396-0.75c7.542-14.012,22.105-22.716,38.007-22.716
	c15.864,0,30.41,8.674,37.961,22.637l0.532,0.983c3.295,5.369,9.131,8.662,15.472,8.662c6.399,0,12.29-3.357,15.565-8.816
	l0.394-0.748c7.54-14.013,22.104-22.718,38.007-22.718c0.11,0,0.218,0.01,0.328,0.011c0.129-0.001,0.256-0.013,0.385-0.013
	c15.859,0,30.405,8.672,37.961,22.632l0.538,0.993c3.297,5.365,9.133,8.657,15.472,8.657c6.397,0,12.286-3.356,15.562-8.813
	l0.397-0.753c7.543-14.012,22.106-22.716,38.008-22.716c15.864,0,30.41,8.674,37.962,22.637l0.534,0.987
	c3.294,5.366,9.129,8.658,15.469,8.658c6.398,0,12.29-3.358,15.566-8.817l0.394-0.747c7.539-14.013,22.103-22.718,38.007-22.718
	c15.862,0,30.408,8.673,37.961,22.636C559.406,316.327,557.146,323.912,551.074,327.196z"/>
</svg>
