<svg width="6415" height="2076" viewBox="0 0 6415 2076" fill="none" xmlns="http://www.w3.org/2000/svg">
<rect width="3320" height="2075" fill="#00D1FF"/>
<path d="M1311.86 0H989.083C989.083 756.222 272.055 926.833 2.30518 945.278V1258.83C896.861 1233.47 1323.39 571.778 1311.86 0Z" fill="#E077FF" fill-opacity="0.8"/>
<path d="M3320 1849.05L2902.7 2075H3320V1849.05Z" fill="#E4FF36" fill-opacity="0.8"/>
<path d="M285.889 0H0V382.722C431.6 1002.46 179.833 1615.43 0 1844.44V2070.39H405.778C1014.44 1159.23 579.463 310.482 285.889 0Z" fill="#E4FF36" fill-opacity="0.8"/>
<path d="M1205.8 2072.69V147.555L3320 1288.81V1759.14L1648.47 862.277V2072.69H1205.8Z" fill="#E4FF36" fill-opacity="0.8"/>
<path d="M2026.58 1888.25V0H2466.95V1175.83L3320 712.417V1187.36L2026.58 1888.25Z" fill="#E077FF" fill-opacity="0.8"/>
<path d="M5121 2075.25V187H5561.36V1362.83L6414.42 899.417V1374.36L5121 2075.25Z" fill="#E077FF" fill-opacity="0.8"/>
<path d="M0 942.972V140.639L3084.83 1802.94L2586.83 2075H1095.14L1597.75 1802.94L0 942.972Z" fill="#ADFFED" fill-opacity="0.8"/>
</svg>
