<?xml version="1.0" encoding="UTF-8" standalone="no"?>
<!DOCTYPE svg PUBLIC "-//W3C//DTD SVG 1.1//EN" "http://www.w3.org/Graphics/SVG/1.1/DTD/svg11.dtd">
<svg width="100%" height="100%" viewBox="0 0 147 49" version="1.1" xmlns="http://www.w3.org/2000/svg" xmlns:xlink="http://www.w3.org/1999/xlink" xml:space="preserve" style="fill-rule:evenodd;clip-rule:evenodd;stroke-linejoin:round;stroke-miterlimit:1.41421;">
    <rect x="24.1" y="23.1" width="95" height="2" style="fill:rgb(153,153,153);"/>
    <path d="M24.1,48.3C10.8,48.3 0,37.4 0,24.1C0,10.8 10.8,0 24.1,0C37.4,0 48.2,10.8 48.2,24.1C48.2,37.4 37.4,48.3 24.1,48.3ZM24.1,6C14.1,6 6,14.2 6,24.1C6,34 14.1,42.2 24.1,42.2C34.1,42.2 42.2,34.1 42.2,24.1C42.2,14.1 34.1,6 24.1,6ZM24.1,20.2C26.308,20.2 28.1,21.992 28.1,24.2C28.1,26.408 26.308,28.2 24.1,28.2C21.892,28.2 20.1,26.408 20.1,24.2C20.1,21.992 21.892,20.2 24.1,20.2Z" style="fill:rgb(255,98,0);"/>
    <path d="M59.7,48.3L59.7,0L101.5,24.1L59.7,48.3ZM65.7,10.4L65.7,37.9L89.5,24.1L65.7,10.4ZM74.1,20.2C76.308,20.2 78.1,21.992 78.1,24.2C78.1,26.408 76.308,28.2 74.1,28.2C71.892,28.2 70.1,26.408 70.1,24.2C70.1,21.992 71.892,20.2 74.1,20.2Z" style="fill:rgb(255,185,0);"/>
    <path d="M104.7,48.3L104.7,0L146.5,24.1L104.7,48.3ZM110.7,10.4L110.7,37.9L134.5,24.1L110.7,10.4ZM119.1,20.2C121.308,20.2 123.1,21.992 123.1,24.2C123.1,26.408 121.308,28.2 119.1,28.2C116.892,28.2 115.1,26.408 115.1,24.2C115.1,21.992 116.892,20.2 119.1,20.2Z" style="fill:rgb(0,129,255);"/>
</svg>
