<?xml version="1.0" encoding="utf-8"?>
<!-- Generator: Adobe Illustrator 27.4.1, SVG Export Plug-In . SVG Version: 6.00 Build 0)  -->
<svg version="1.1" id="Camada_1" xmlns="http://www.w3.org/2000/svg" xmlns:xlink="http://www.w3.org/1999/xlink" x="0px" y="0px"
	 viewBox="0 0 1500 1500" style="enable-background:new 0 0 1500 1500;" xml:space="preserve">
<image style="overflow:visible;" width="1450" height="993" xlink:href="../../Library/CloudStorage/GoogleDrive-lucas.pretti@okfn.org/.shortcut-targets-by-id/0B79xBlVd-Nf6ZzMzUlZSTWwxV28/Open Knowledge All Team/Brand 2023/Illustrations/L 1500px - web transp/Icons/board.png"  transform="matrix(1 0 0 1 -3164.6372 4237.4756)">
</image>
<image style="overflow:visible;" width="1133" height="1032" xlink:href="../../Library/CloudStorage/GoogleDrive-lucas.pretti@okfn.org/.shortcut-targets-by-id/0B79xBlVd-Nf6ZzMzUlZSTWwxV28/Open Knowledge All Team/Brand 2023/Illustrations/L 1500px - web transp/Icons/books.png"  transform="matrix(1 0 0 1 -3164.6372 4237.4756)">
</image>
<image style="overflow:visible;" width="1357" height="1143" xlink:href="../../Library/CloudStorage/GoogleDrive-lucas.pretti@okfn.org/.shortcut-targets-by-id/0B79xBlVd-Nf6ZzMzUlZSTWwxV28/Open Knowledge All Team/Brand 2023/Illustrations/L 1500px - web transp/Icons/campagne.png"  transform="matrix(1 0 0 1 -3164.6372 4237.4756)">
</image>
<image style="overflow:visible;" width="845" height="1103" xlink:href="../../Library/CloudStorage/GoogleDrive-lucas.pretti@okfn.org/.shortcut-targets-by-id/0B79xBlVd-Nf6ZzMzUlZSTWwxV28/Open Knowledge All Team/Brand 2023/Illustrations/L 1500px - web transp/Icons/case-study.png"  transform="matrix(1 0 0 1 -3164.6372 4237.4756)">
</image>
<image style="overflow:visible;" width="1265" height="951" xlink:href="../../Library/CloudStorage/GoogleDrive-lucas.pretti@okfn.org/.shortcut-targets-by-id/0B79xBlVd-Nf6ZzMzUlZSTWwxV28/Open Knowledge All Team/Brand 2023/Illustrations/L 1500px - web transp/Icons/collaboration.png"  transform="matrix(1 0 0 1 -3164.6372 4237.4756)">
</image>
<image style="overflow:visible;" width="1339" height="1035" xlink:href="../../Library/CloudStorage/GoogleDrive-lucas.pretti@okfn.org/.shortcut-targets-by-id/0B79xBlVd-Nf6ZzMzUlZSTWwxV28/Open Knowledge All Team/Brand 2023/Illustrations/L 1500px - web transp/Icons/connect-community.png"  transform="matrix(1 0 0 1 -3164.6372 4237.4756)">
</image>
<image style="overflow:visible;" width="1357" height="681" xlink:href="../../Library/CloudStorage/GoogleDrive-lucas.pretti@okfn.org/.shortcut-targets-by-id/0B79xBlVd-Nf6ZzMzUlZSTWwxV28/Open Knowledge All Team/Brand 2023/Illustrations/L 1500px - web transp/Icons/contact.png"  transform="matrix(1 0 0 1 -3164.6372 4237.4756)">
</image>
<image style="overflow:visible;" width="1059" height="1080" xlink:href="../../Library/CloudStorage/GoogleDrive-lucas.pretti@okfn.org/.shortcut-targets-by-id/0B79xBlVd-Nf6ZzMzUlZSTWwxV28/Open Knowledge All Team/Brand 2023/Illustrations/L 1500px - web transp/Icons/create-open-data.png"  transform="matrix(1 0 0 1 -3164.6372 4237.4756)">
</image>
<image style="overflow:visible;" width="1198" height="998" xlink:href="../../Library/CloudStorage/GoogleDrive-lucas.pretti@okfn.org/.shortcut-targets-by-id/0B79xBlVd-Nf6ZzMzUlZSTWwxV28/Open Knowledge All Team/Brand 2023/Illustrations/L 1500px - web transp/Icons/data.png"  transform="matrix(1 0 0 1 -3164.6372 4237.4756)">
</image>
<image style="overflow:visible;" width="1162" height="1032" xlink:href="../../Library/CloudStorage/GoogleDrive-lucas.pretti@okfn.org/.shortcut-targets-by-id/0B79xBlVd-Nf6ZzMzUlZSTWwxV28/Open Knowledge All Team/Brand 2023/Illustrations/L 1500px - web transp/Icons/funders.png"  transform="matrix(1 0 0 1 -3164.6372 4237.4756)">
</image>
<image style="overflow:visible;" width="1005" height="1001" xlink:href="../../Library/CloudStorage/GoogleDrive-lucas.pretti@okfn.org/.shortcut-targets-by-id/0B79xBlVd-Nf6ZzMzUlZSTWwxV28/Open Knowledge All Team/Brand 2023/Illustrations/L 1500px - web transp/Icons/governance.png"  transform="matrix(1 0 0 1 -3164.6372 4237.4756)">
</image>
<image style="overflow:visible;" width="1255" height="807" xlink:href="../../Library/CloudStorage/GoogleDrive-lucas.pretti@okfn.org/.shortcut-targets-by-id/0B79xBlVd-Nf6ZzMzUlZSTWwxV28/Open Knowledge All Team/Brand 2023/Illustrations/L 1500px - web transp/Icons/impact.png"  transform="matrix(1 0 0 1 -3164.6372 4237.4756)">
</image>
<image style="overflow:visible;" width="1275" height="1127" xlink:href="../../Library/CloudStorage/GoogleDrive-lucas.pretti@okfn.org/.shortcut-targets-by-id/0B79xBlVd-Nf6ZzMzUlZSTWwxV28/Open Knowledge All Team/Brand 2023/Illustrations/L 1500px - web transp/Icons/jobs.png"  transform="matrix(1 0 0 1 -3164.6372 4237.4756)">
</image>
<image style="overflow:visible;" width="1246" height="1065" xlink:href="../../Library/CloudStorage/GoogleDrive-lucas.pretti@okfn.org/.shortcut-targets-by-id/0B79xBlVd-Nf6ZzMzUlZSTWwxV28/Open Knowledge All Team/Brand 2023/Illustrations/L 1500px - web transp/Icons/knowledge.png"  transform="matrix(1 0 0 1 -3164.6372 4237.4756)">
</image>
<image style="overflow:visible;" width="1163" height="1026" xlink:href="../../Library/CloudStorage/GoogleDrive-lucas.pretti@okfn.org/.shortcut-targets-by-id/0B79xBlVd-Nf6ZzMzUlZSTWwxV28/Open Knowledge All Team/Brand 2023/Illustrations/L 1500px - web transp/Icons/mission.png"  transform="matrix(1 0 0 1 -3164.6372 4237.4756)">
</image>
<image style="overflow:visible;" width="943" height="914" xlink:href="../../Library/CloudStorage/GoogleDrive-lucas.pretti@okfn.org/.shortcut-targets-by-id/0B79xBlVd-Nf6ZzMzUlZSTWwxV28/Open Knowledge All Team/Brand 2023/Illustrations/L 1500px - web transp/Icons/policy.png"  transform="matrix(1 0 0 1 -3164.6372 4237.4756)">
</image>
<image style="overflow:visible;" width="1413" height="1197" xlink:href="../../Library/CloudStorage/GoogleDrive-lucas.pretti@okfn.org/.shortcut-targets-by-id/0B79xBlVd-Nf6ZzMzUlZSTWwxV28/Open Knowledge All Team/Brand 2023/Illustrations/L 1500px - web transp/Icons/press.png"  transform="matrix(1 0 0 1 -3164.6372 4237.4756)">
</image>
<image style="overflow:visible;" width="1302" height="998" xlink:href="../../Library/CloudStorage/GoogleDrive-lucas.pretti@okfn.org/.shortcut-targets-by-id/0B79xBlVd-Nf6ZzMzUlZSTWwxV28/Open Knowledge All Team/Brand 2023/Illustrations/L 1500px - web transp/Icons/reproducible-research.png"  transform="matrix(1 0 0 1 -3164.6372 4237.4756)">
</image>
<image style="overflow:visible;" width="948" height="1047" xlink:href="../../Library/CloudStorage/GoogleDrive-lucas.pretti@okfn.org/.shortcut-targets-by-id/0B79xBlVd-Nf6ZzMzUlZSTWwxV28/Open Knowledge All Team/Brand 2023/Illustrations/L 1500px - web transp/Icons/service.png"  transform="matrix(1 0 0 1 -3164.6372 4237.4756)">
</image>
<image style="overflow:visible;" width="1266" height="879" xlink:href="../../Library/CloudStorage/GoogleDrive-lucas.pretti@okfn.org/.shortcut-targets-by-id/0B79xBlVd-Nf6ZzMzUlZSTWwxV28/Open Knowledge All Team/Brand 2023/Illustrations/L 1500px - web transp/Icons/support.png"  transform="matrix(1 0 0 1 -3164.6372 4237.4756)">
</image>
<g>
	<path d="M323.6,274.2c10.1,7.2,20.3,14.4,30.6,21.7c0.1-0.2,0.4-0.8,0.7-1.4c-0.8,0.9-1.7,1.9-2.5,2.8c7.1,5.5,14.3,10.9,21.1,16.7
		c14.8,12.5,29.3,25.4,44.2,37.8c23.7,19.7,52.1,30.4,80.1,42c23.2,9.7,45.4,21.4,66.5,35.2c7.9,5.1,16.4,9.5,24.6,14.3
		c17.3,10,34.4,20.3,51.9,30c5.6,3.1,11.8,5.8,18.1,6.9c17.1,3,33.1,8.8,48.6,16.2c2.5,1.2,5.2,2.1,7.9,3.1c0.2,0.1,0.4,0.5,0.9,1.2
		c-3.9,2.7-7.9,5.5-11.9,8.3c0.2,0.4,0.4,0.7,0.6,1.1c3.2-1.9,6.5-3.7,9.6-5.8c15.5-10.9,30.8-21.9,46.2-32.8
		c6.4-4.5,12.5-9.8,19.5-12.9c2.7-1.2,4.7-3.9,7.9-4.2c0.6-0.1,0.9-2,1.5-3c0.5-0.8,1.1-1.5,1.9-2.1c12.9-9.3,25.6-19,38.9-27.9
		c14.6-9.7,29.3-19.1,44.7-27.5c11.3-6.1,23.7-10.3,35.6-15.3c25-10.5,50.1-20.7,74.8-31.8c11.8-5.3,22.7-12.4,33.9-19
		c10.6-6.2,21.1-12.7,31.5-19.1c1.5-0.9,2.9-2,4.7-3.3c-5.7-1.6-7.8-5.5-6.4-10.6c0.1-0.5,0.4-1,0.4-1.4
		c0.8-16.9,13.3-24.8,25.3-33.1c10.5-7.3,20.9-14.8,31.5-22c3.2-2.1,7-3.3,10.4-5.2c4.2-2.4,8.2-5.1,12.4-7.5c2.2-1.2,4.7-1.8,7-2.8
		c1.6-0.6,3.2-1.3,4.9-1.9c5,4.5,5.6,13.3,1.1,18.3c-8.3,9.2-17.9,16.6-29.2,22c-6.6,3.1-12.3,8.7-19.1,10.3
		c-12.1,2.9-20,11-29.3,18.7c7.5,9.7,14.9,19.1,22.2,28.7c4.9,6.5,9.5,13.2,14.4,19.7c10.8,14.3,21.1,29.1,32.9,42.6
		c15,17.2,30.9,33.8,47.2,49.9c13,12.8,27.2,24.3,41.1,36.6c31.9-26.4,59.1-56.7,87.1-86.1c5.1,2.1,4.2,6.4,4.6,10.6
		c0.6,6.5-3.6,11-6.4,15.4c-8.8,14.2-19.3,27.2-31.9,38.5c-1.5,1.3-2.7,2.9-3.9,4.5c-10,12.8-23.6,21.7-35.6,32.1
		c-4.3,3.8-9.3,6.8-13.8,10.4c-3.8,3.1-7.7,2.9-11.6,0.9c-3.5-1.8-7-3.9-10.1-6.4c-26.3-21.1-49.4-45.5-71.4-71
		c-25.6-29.7-48.1-61.6-68.3-95.1c-1-1.7-2.2-3.2-3.2-4.8c-0.5,0.3-0.7,0.4-0.7,0.5c0.3,9.2-6.9,12.4-13.2,16.2
		c-19.7,12.1-39.1,24.9-60.6,33.7c-15.8,6.5-31.8,12.6-47.6,19.3c-13.7,5.8-27.6,11-40.5,18.3c-20,11.3-39.5,23.4-58.5,36.3
		c-20.6,14-40.1,29.7-60.6,43.9c-29,20-58.4,39.5-88,58.7c-14.1,9.2-29.1,16.9-43.2,26c-7.1,4.5-13.3,10.5-19.7,16
		c-2.7,2.3-0.6,8.6,3.8,11.4c4,2.6,8.4,3.3,12.9,1.8c24-7.9,47.9-15.9,71.9-23.7c15-4.8,30.2-8.8,45.1-13.8
		c5.6-1.9,10.8-5.2,16.1-8.2c3.9-2.2,7-2,9.3,2c1.6,2.8,3,5.9,3.8,9c0.3,1-1.2,2.9-2.4,3.8c-10.9,8.4-21.6,16.9-32.8,24.9
		c-31,22.1-61.3,44.9-86.9,73.2c-10,11-18.2,23.7-27.1,35.6c-1.2,1.5-1.6,3.6-2.4,5.5c-1.9,4.8-2.2,8.8,2.7,12.6
		c3.7,2.8,6.1,7.2,8.7,10.5c13-9.3,25.8-19.3,39.5-28c21.4-13.7,43.3-26.5,65-39.8c18.9-11.6,37.8-23.4,56.7-35
		c2.8-1.7,5.9-3.1,8.8-4.7c10.8-6,21.5-12.1,32.4-18c2.7-1.5,5.7-2.9,8.7-3.1c1.8-0.1,3.8,2.1,6,3.4c-10.8,7.7-20.6,14.6-30.5,21.6
		c-7.5,5.3-15,10.7-22.6,15.9c-5.1,3.4-10.6,6.2-15.5,9.8c-14.3,10.2-30,18.3-44.6,28c-9.7,6.4-19.2,13.2-28.8,19.7
		c-14.7,9.9-29.7,19.4-44.1,29.8c-9,6.4-17.2,14-25.7,21.1c-2.3,1.9-4.4,4-6.8,5.8c-6.2,4.5-6,11.1-5.9,17.6c0.1,4.1,4,4.4,6.7,4.3
		c7.7-0.3,15.7-0.4,23.2-2.2c27.2-6.7,51.6-19.7,75.7-33.6c18-10.3,36.9-19,55.2-28.7c8-4.3,15.7-9.2,23.5-14c8-5,15.8-10.4,24-15.1
		c8.8-5.1,17.9-9.6,27-14.2c5.4-2.7,7.7-1.8,12.3,4.6c-7.2,5.3-14.3,10.7-21.6,15.8c-8,5.6-16.1,11.2-24.5,16.3
		c-6.1,3.7-13.1,6-18.8,10.2c-14,10.1-29,19.5-40.6,31.9c-15.7,16.7-34.7,29.5-49.9,46.5c-8.2,9.2-16.4,18.4-24.1,28
		c-2.1,2.7-3.2,6.6-3.7,10.1c-1.1,8.2,5,13,13.2,11.6c23.9-4.2,44.5-16,64.6-28.7c7.7-4.8,13.9-11.9,21.2-17.3
		c11.2-8.3,22.9-15.8,34-24.2c7.9-6,15.2-12.9,22.8-19.3c11.4-9.4,22.7-18.8,34.3-27.8c13-10,26.1-20,39.5-29.4
		c9-6.3,18.8-11.3,27.9-17.3c6.6-4.4,12.8-9.5,19.2-14.2c3.5-2.6,11.5-2.4,14.8,0.2c2.4,1.8,3.3,3.6,0.6,6c-1.9,1.6-3.2,4-5.1,5.4
		c-9.8,7.4-15,18.1-21.1,28.2c-13.2,21.8-27.3,42.9-44,62.3c-6.9,8-15.2,15.1-18.1,25.8c-1.1,4.1-2.3,8.5-2.1,12.6
		c0.6,13.5,3.5,26.7,8.2,39.4c0.3,0.8,0.5,1.6,0.7,2c1.9-2.9,3-4.8,4.4-6.5c7.1-8.5,14-17.2,21.6-25.3
		c19.7-20.8,40.4-40.4,61.8-59.5c23.1-20.5,46.6-40.5,67.1-63.7c5.7-6.4,10.5-13.6,15.8-20.4c2.8-3.6,6.3-6.7,8.4-10.7
		c4.7-8.6,9.7-17.3,12.9-26.6c5-14.1,9.1-28.5,12.7-43c5.4-22,9.3-44.5,17.5-65.8c1.1-3,1-6.4,1.5-9.6c0.2-1.3,0.6-2.5,1-3.8
		c4.5-14.1,10-27.7,20.5-38.7c3.3-3.5,6.6-4,9.7-0.5c4.5,5,7.5,11.8,2.8,19.9c-6.4,11-12,22.7-16.1,34.7
		c-6.2,18.4-10.9,37.3-16.1,56c-5.2,18.7-9.8,37.7-15.6,56.2c-2.7,8.8-7.5,17-11.6,25.3c-2.6,5.2-5.7,10.1-9,15.7
		c8.5,6.3,17,11.8,24.5,18.5c12.1,10.8,24.5,21.5,34.9,33.9c9,10.7,15.6,23.5,22.8,35.7c2,3.4,2,8,3.8,11.6
		c6.1,12.3,11.8,24.9,19.1,36.4c5.4,8.5,12.9,15.9,20,23.1c14,14.2,28.4,28,42.7,41.9c2.8,2.8,5.8,5.5,9.1,8.6
		c2.7-1.3,5.7-3.2,8.9-4c3.8-0.8,7.8-0.9,11.7-0.8c21.7,0.9,37,12.9,50.5,28.5c6.6,7.7,12.9,15.6,20.1,22.6
		c8.7,8.4,18.1,16,27.3,23.9c7.9,6.8,16.6,13,23.7,20.6c3.8,4,5.9,10.2,7,15.8c0.4,2.3-3.5,5.8-6,8c-0.9,0.8-3.6-0.2-5.4-0.7
		c-15.6-4.6-26.2-16.5-38.2-26.5c-21-17.4-38.7-38-56.7-58.3c-6.3-7.1-14.3-12.7-21.2-18.7c-7.2,11.9-13.4,23-20.5,33.4
		c-6.7,9.8-14.5,18.9-21.7,28.4c-11.3,14.9-22.6,30-33.8,45c-5.2,7-10.1,14.3-15.6,21c-10.6,12.8-21.4,25.3-32.3,37.8
		c-9.7,11.1-19.3,22.3-29.5,33.1c-6.9,7.3-14.6,14-22.2,20.6c-5.4,4.7-7.7,4.4-14.1,0.4c-0.5-0.4-1.2-0.6-3.1-1.5
		c7.7-10.3,15.1-20.2,22.6-30.2c-22.5-15.6-44.7-31.8-67.8-46.5c-10.4-6.6-22.7-10.1-34.2-15c-23.4-9.9-46.2-20.8-65.6-37.6
		c-1.9-1.6-2.9-4.2-4.3-6.4c-3.5,6.8-7.7,14.5-11.5,22.3c-6.4,13.1-12.5,26.4-19,39.5c-7.5,15.3-16.2,30-22.8,45.7
		c-5.8,13.7-9.5,28.2-13.7,41.2c7.5,5.8,13.9,10.3,19.9,15.4c2.2,1.8,3.8,4.6,4.9,7.3c6.1,13.7,7.3,28.4,8,43.2
		c0.8,16.9,2.4,33.9,2.3,50.8c-0.1,8.3-3.1,16.7-5.2,25c-0.7,2.9-5.7,3.9-8.3,1.8c-3.6-2.9-6.8-6.2-6.9-11.5
		c-0.3-12.3-0.8-24.6-1.5-36.9c-1.3-23-2.8-46-4.2-68.9c-0.1-1.6-0.5-3.3-0.9-4.9c-1.9-8-4-9.3-10.7-4.9c-1.9,1.2-1.7,5.6-2.3,8.6
		c-0.3,1.5-0.5,3.1-0.9,5.7c2.3,3.6,6,8.4,3.2,14.3c-1.3,2.7-4,5.3-6.6,6.8c-9.2,5.3-18.2,11.3-28.1,14.7
		c-9.9,3.4-20.7,5.3-31.1,5.5c-20.7,0.4-41.4-0.3-62-1.8c-12.5-0.9-24.8-4.1-37.2-6.3c-13-2.4-26.1-4.2-38.9-7.5
		c-11.3-2.9-22.3-7.5-33.3-11.5c-4.4-1.6-8.6-3.7-13-4.9c-6-1.7-10.7-4.6-13.5-10.8c9.9-0.7,19.1,2.4,28.3,4.9
		c31.2,8.4,63,12.4,95.1,14.8c23.3,1.7,46.6,2.5,69.8-1c13.3-2,26.5-5,39.4-8.7c2.7-0.8,6.2-4.8,7.3-9.5c4.3-19.2,9-38.3,14-57.3
		c5.7-21.9,16.9-41.5,26.6-61.8c12.6-26.4,25.3-52.8,36.3-79.9c5.6-13.7,7.2-29,11.1-43.4c6.8-25.2,13.9-50.3,20.9-75.5
		c2.3-8.3,4.6-16.7,6.7-25.1c0.4-1.5,0.1-3.1,0.1-5c0.8-0.2,1.9-0.7,2.7-0.5c6.5,2.3,11,11.1,10.4,18.1
		c-1.5,19.2-7.3,37.4-11.2,56.1c-4.4,20.7-8.2,41.5-12.4,62.3c-0.8,3.8-2.1,7.4-3.2,11.1c7,5,14.2,11,22.3,15.6
		c17.5,9.9,35.3,19.4,54.4,26.4c16.9,6.2,33.6,13.1,49.8,20.9c6.9,3.3,12.3,9.6,18.4,14.6c5.6,4.5,11.4,8.6,16.6,13.5
		c5.3,5,10,10.7,15,16.1c0.9,1,1.6,2,2.8,3.5c4.6-5.2,8.9-9.8,12.9-14.5c13.5-16,27.3-31.9,40.3-48.3c8.4-10.5,15.5-22,23.6-32.8
		c5-6.8,10.9-12.9,16.2-19.5c3.5-4.4,6.5-9.1,9.7-13.7c6.2-8.9,12.2-17.8,18.5-26.6c2.3-3.2,2.1-5.5-0.9-8.2
		c-10.5-9.4-20.9-18.9-31.1-28.5c-7.9-7.5-15.4-15.5-23.3-23c-13.3-12.5-24.5-26.5-33.6-42.4c-11.7-20.5-24.2-40.6-36.4-60.8
		c-8-13.2-19.8-22.7-30.7-33.3c-7.1-7-14.4-13.8-20.6-19.8c-6.8,6.1-13.4,11.9-19.8,18c-7.4,7.2-14.2,15-21.8,22
		c-18.5,17.2-37.4,34.1-56,51.3c-8.3,7.7-16.1,15.8-23.9,24c-8.4,8.8-16.4,18-24.8,26.8c-4.4,4.6-9.4,8.7-14.1,13
		c-1.5,1.4-2.6,3.4-4.3,4.6c-4.5,3.1-13.9,2-18.4-2.1c-7.9-7.3-11.9-16.8-15.6-26.8c-3.3-9.1-3.6-18.5-3.3-27.8
		c0.3-7.1,2.4-14.4,5.2-21c5.1-12.2,10.7-24.1,17.1-35.7c4.1-7.5,10-14,15.1-20.9c0.5-0.6,0.8-1.4,0.8-2.3
		c-24.3,14.8-43.4,35.8-66.2,52.5c5.7,10,4.5,20.7,6.1,30.9c2.2,14.6,2.4,29.3,1.5,43.9c-0.3,5.4-1.4,10.7-2.1,16.1
		c-3.1,21.4-3.2,42.7-0.5,64.1c0,0.3,0.4,0.5,0.6,0.7c17.4-18.1,32-38,40.8-61.6c7.1-0.4,9.9,2.5,7.7,8.7
		c-5.1,13.9-9.6,28.1-16.5,41.1c-5,9.5-13.5,17.2-20.4,25.7c-1,1.3-2.4,2.3-3.2,3.7c-6.6,10.8-12.6,21.7-14.2,34.6
		c-0.6,4.9-3.1,9.7-4.7,14.4c-7.1-2-8.6-4.1-8.8-10.2c-0.4-14.5-1.4-28.9-1.4-43.4c-0.1-11.9,0.8-23.8,1.4-35.7
		c0.4-8.8,1-17.6,1.3-26.5c0.3-8.1,0.5-16.2,0.6-24.4c0.1-13.3,0.1-26.5,0.2-39.8c0-9.6,0-19.2,0-30c-9.5,7.3-17.8,13.5-26,19.9
		c-6.3,4.9-12.3,10.3-18.7,15c-4.5,3.3-5.5,7.3-4.9,12.4c1.6,14,0,27.8-2.9,41.4c-1.1,5.1-6.3,7.6-13.1,7.9c0-14.9,0-29.9,0-46.3
		c-6,2.9-10.7,4.9-15.1,7.3c-6.5,3.5-12.9,7.3-19.3,10.9c-1.3,0.7-2.8,1.1-4.2,1.4c-6.8,1.2-13.6,2.8-20.5,3.2
		c-3.9,0.3-8.6-0.4-11.7-2.5c-6.5-4.2-12.7-9.1-18.2-14.6c-3.9-3.8-6.3-8.7-5.1-15.2c1.3-7.1,0.2-14.6,1.2-21.8
		c0.5-3.8,2.7-7.9,5.3-10.7c6.7-7.3,14.1-13.9,21.1-20.8c0.2-0.1,0-0.6,0-1.5c-9,3.5-17.7,7-26.5,10.3c-4.5,1.7-9.2,2.8-13.7,4.6
		c-4.7,1.9-9.3,4.2-13.8,6.5c-0.8,0.4-1.6,1.9-1.5,2.8c0.8,11.2,2.2,22.4,2.6,33.6c0.3,7.4-0.6,14.9-1.3,22.3
		c-0.1,1.5-2.1,2.8-3.2,4.1c-1.3-1.3-3.5-2.3-3.8-3.8c-3.1-13.8-5.9-27.6-8.6-41.5c-1.2-6.5-1.6-13.2-2.9-19.8
		c-0.4-2.1-2-4.6-3.8-5.6c-14.8-8.3-22.3-30.2-15.3-45.9c2.3-5.1,4.8-10,7.2-15c-2.9-3-5.9-5.8-8.7-8.9c-4.1-4.4-6-9.7-5.8-15.8
		c0.1-2.3,1-5.8-3.4-5.7c-3.7,0.1-5.3,2.4-5.8,5.6c-1.1,7.7-2.2,15.4-3,23.1c-1.6,16.4-3.7,32.7-4.4,49.1
		c-1.3,27.9-2.2,55.9-2.2,83.8c0,12.1,2.6,24.3,4,36.4c1.2,9.7,2.2,19.4,3.6,29c1.9,13.1,7.2,25.1,12.1,37.3
		c4.6,11.5,8.8,23.3,11.9,35.3c4.3,17,4.1,34.4,3.1,51.8c-6.6,10.8-1.8,23.3-5.1,34.8c-2.6,9.1-2.5,19.1-3.9,28.6
		c-0.8,4.9-2.4,9.6-3.5,14.5c-0.8,3.3-1.5,6.7-1.8,10.1c-0.7,6.5-6.6,12.6-13.2,13.3c0-5.7-0.1-11.5,0-17.2
		c0.7-32.3,1.5-64.6,2.3-96.9c0.5-24-2.3-47.4-10.8-70c-3.3-8.8-6.4-17.7-9.5-26.5c-1.8-5.2-3.3-10.4-5.2-16.5
		c-9.8,11.6-22,17.4-35.2,21.7c-3.1-5.7,1.9-8.9,4.2-12.1c4.8-6.7,10.8-12.5,16.3-18.6c1.6-1.7,2.8-3.9,4.8-5.1
		c8.4-4.9,9.4-12.4,9.3-21.3c-0.3-22.9-0.1-45.9,0.6-68.8c0.8-28.3,1.8-56.5,3.4-84.8c0.6-11.8,2.8-23.4,4.4-35.1
		c0.8-6.3,5.8-8.4,10.1-9.8c-9.6-8.2-19.3-16.6-29.2-24.9c-5.9-4.9-12.2-9.5-18.2-14.3c-2.3-1.8-4.4-3.9-6.3-6.2
		c-2.7-3.5-4-7,0.9-10c1.7-1.1,2.9-3,5.2-5.4c23.5,18.2,47,36.4,70.9,54.9c3-4.1,5.9-8.4,9.1-12.5c5.2-6.8,10.4-13.6,15.9-20.2
		c2.6-3.1,5.8-5.7,8.8-8.5c0.9-0.9,1.9-1.6,3.7-3c-5.1-3.1-9.5-6.1-14.2-8.6c-15.6-8.4-31.3-16.7-47-25c-6.7-3.6-13.5-7-20.1-10.6
		c-4.6-2.5-4.7-4.2-0.8-8c3.8-3.7,8.3-3.5,13-2.2c3.2,0.9,6.7,2.7,9.5,2c1.6-0.4,2.5-5,3.1-7.8c1.8-7.9,8.8-11.3,14-16.2
		c2.6-2.5,5.6-4.5,9-7.1c-3.1-1.9-6.1-3.7-9.1-5.7c-5.3-3.5-5.1-5.5-0.2-9.2c3.9-2.9,7.8-3.9,12.4-1.8c2.1,1,4.7,1.1,6.6,2.3
		c8.1,5.2,14,0.9,20.3-3.8c6.6-4.9,13.9-9,20.7-13.6c6-4,11.8-8.2,18.5-12.8c-6.5-2-11.7-3.9-17.1-5.2c-17-4.1-34.2-7.8-51.2-12.1
		c-4.6-1.2-9-3.7-13.2-6c-22.1-12.3-44.1-24.7-66.1-37.2c-7.5-4.3-14.5-9.4-22.2-13.5c-11.7-6.2-23.7-12-35.7-17.7
		c-13.6-6.4-27.5-12.3-41.2-18.8c-13.2-6.2-26.5-12.4-39.2-19.6c-6.9-3.9-12.7-10-19.1-14.9c-2.5-1.9-5.7-2.9-8-5
		c-6.4-5.8-12.6-11.8-18.5-18.1c-3.9-4.3-6.8-9.5-10.6-13.8c-7.2-8-15-15.4-22.2-23.4c-5.5-6.1-10.6-12.6-15.4-19.2
		C316.3,282.3,317.3,279,323.6,274.2z M654,611.3c0,0.4-0.1,0.7-0.1,1.1c7.6,2.9,15.4,5.6,22.8,8.8c5.8,2.5,9.6-0.1,13.7-3.7
		c9-7.8,18.3-15.2,27.4-22.7c3.2-2.6,6.4-5.1,9.6-7.6c-11.6,6-24.9,6.4-36.6,11.9C679.3,604.4,666.4,607.3,654,611.3z"/>
	<path d="M377,1133.4c2.9,3.7,7.1,6.6,7.5,10c1.4,12.1-6.6,15.9-20,15.3c-12.1-0.5-20.8-7.3-30.8-11.5c-6.7-2.9-12.1-9.2-17.7-14.3
		c-13.5-12.3-26.7-25-40.3-37.1c-6.1-5.4-11.3-11.2-16-17.8c-5.7-8-13.3-14.6-20.1-21.7c-14.6-15.2-27.4-31.5-36.3-50.7
		c-1.9-4.1-7.1-7.3-11.7-8.7c-2.7-0.8-5.6-2-7.7-3.9c-6.5-6.1-13.5-3-20.2-1.3c-17.9,4.5-34.3,12.7-50.7,21
		c-9.3,4.7-18.7,9.3-28.1,13.7c-7.1,3.3-14.3,0.7-15.9-5.9c-0.3-1.4,0.5-4,1.7-4.7c12-7.4,24-14.7,36.2-21.8
		c9.8-5.7,19.7-11.1,29.6-16.5c19.4-10.6,40.2-13.3,61.9-10.8c8.1,6,15.4,0.7,22.7-1.9c2.3-0.8,4.2-2.6,6.1-4.2
		c26.8-22.3,53.5-44.7,80.4-67c15.6-12.9,24.5-29.4,29.3-49.1c3.6-14.7,10.5-28.6,15.4-43c5.2-15.3,15.5-27.5,24-40.7
		c1-1.6,2.9-2.6,4.3-3.8c9.8,5.3,11.4,13.9,5.4,25.1c-4.7,8.7-9.7,17.5-12.7,26.9c-6.4,20-12.4,40.3-16.9,60.8
		c-4.4,20-15.7,34.5-31.7,45.9c-19.1,13.6-38.7,26.5-57.8,40.2c-11.9,8.5-23.1,18-34.9,26.8c-3.5,2.6-7.7,4.3-11.4,6.7
		c-1.2,0.8-1.9,2.3-2.9,3.5c1.1,0.8,2.3,1.6,3.4,2.3c0.9,0.6,2.2,0.9,2.8,1.7c9,11.1,17.8,22.3,26.8,33.4c7.5,9.1,14.8,18.5,23,27
		c19.7,20.5,39.7,40.7,59.9,60.8c5.6,5.5,12.2,10,18.9,14.6c-0.6-5.9,3.3-8.3,6.8-11.2c17.1-13.8,33.8-28,51.3-41.4
		c13.9-10.6,30.5-15.8,46.8-21.6c15.9-5.7,31.5-12.5,47.2-18.8c10.9-4.4,21.9-8.7,32.9-13.2c16.5-6.7,32.9-13.7,45.4-26.9
		c7.5,5.7,8.7,8.8,2.5,18.4c-6.9,10.7-18.3,15.4-29,20.8c-9.2,4.7-18.9,8.6-28.3,12.9c-14.9,6.8-29.5,14.2-44.6,20.5
		c-13.1,5.6-26.6,10-39.9,15.2c-11.6,4.5-21.3,11.9-30.9,19.6c-6.1,4.9-13.1,8.6-19.3,13.2C387.5,1124.5,382,1129.4,377,1133.4z"/>
	<path d="M232.3,526.8c-5-7.3-1.7-13.9,7-15.6c4.4-0.9,7.4-0.3,10.3,2.9c6.3,6.7,12.6,13.4,19.1,19.9c4.6,4.7,10.1,8.5,14.3,13.5
		c15.4,18.3,26.8,38.8,33.7,61.7c5,16.6,14.3,31,23.3,45.5c17.6,28.4,42.2,50.3,66.7,72.4c18.3,16.5,36.7,32.8,54.3,50
		c11.8,11.5,22.2,24.3,33.1,36.7c1.9,2.2,3.6,4.8,4.5,7.6c0.5,1.6-0.3,4.3-1.5,5.5c-3.5,3.6-9,3.3-12.9,0.2
		c-4.8-3.8-9.8-7.4-14.5-11.3c-6.2-5.2-12.1-10.8-18.4-15.9c-20.4-16.6-38.1-36.2-58.4-53c-10.4-8.6-19.5-18.7-29.1-28.4
		c-8.5-8.6-17.1-17-24.9-26.1c-5.9-6.8-11.2-14.3-15.8-22c-7-11.7-13.5-23.7-19.8-35.8c-2.4-4.6-3.5-9.8-5.3-14.6
		c-3.5-9.2-6.3-18.8-10.9-27.5c-9.9-18.5-22.2-35.4-37.5-50c-1.7-1.6-3.2-3.3-4.8-4.9C240.6,534,236.4,530.4,232.3,526.8z"/>
	<path d="M578.2,736c-8.3,4.7-15.8,4.5-23,1.2c-10.7-4.9-21.3-10-31.5-15.7c-18.5-10.4-36.7-21.3-55-32c-0.2-0.1-0.6,0-1.2,0
		c5.4,15.1,11.4,29.6,20.9,42.7c10.5,14.4,20.5,29.1,30.6,43.7c5.3,7.7,6.3,16,4.9,25.6c-1.2,8.2-3.9,14.9-9.4,20.5
		c-2.3,2.4-5.5,4.3-8.7,5.3c-3.7,1.2-6.3-1.8-4.2-5c4.7-7.2,4.6-15.5,5.7-23.4c0.5-3.3-0.6-7.5-2.3-10.4
		c-6.5-10.8-13.2-21.5-20.5-31.7c-8.9-12.2-19-23.7-24.4-38c-4-10.6-6.7-21.8-9.9-32.7c-2.1-7.2-4.2-14.4-6.3-21.6
		c-1.7-5.5-4.3-11-4.8-16.6c-0.3-3.4,2.7-7,4.6-11.4c5.8,5.2,10.8,9.7,15.8,14.1c20.4,17.8,41.6,34.5,65.4,47.9
		c16.9,9.5,32.7,21.1,48.8,31.9C575.4,731.6,576.4,733.8,578.2,736z"/>
	<path d="M320.3,298.5c-2.3,2-4.3,4.6-7,6c-7.9,4.2-13.9,10.6-20.4,16.6c-11.9,11-23.6,22-31,36.8c-2.5,4.9-4.7,9.9-7.1,14.8
		c-6.2,12.9-12.1,25.9-18.6,38.7c-7.4,14.6-10.7,30.4-13.1,46.4c-1.5,10-1.9,20.2-2,30.3c-0.1,6.8-2.9,13.9,1.6,20.4
		c-1.1,0.7-2.4,2.3-3.3,2c-8.2-1.8-13.6-6.2-17.4-14.4c-3.5-7.6-2.9-15.3-3.1-22.7c-0.3-10.7,2.4-21.5,2.8-32.3
		c0.5-12.9,7.3-23.4,12.2-34.5c5.1-11.6,11.1-22.9,16.4-34.4c4.9-10.6,11-20.5,19.4-28.6c10.9-10.6,22.5-20.4,33.7-30.7
		c7.7-7,17-10.8,27.1-13c3-0.7,6-1.6,9-2.4C319.7,297.8,320,298.2,320.3,298.5z"/>
	<path d="M1133.9,1126.9c5.5-1.2,9.8-2.3,14.1-3c6.6-1,12.7,1.3,18.3,4.4c5.3,2.9,10.4,6.3,15.2,10c13.9,10.8,28.1,21.3,41.2,33
		c10.6,9.5,19.7,20.6,29.5,31.1c6.7,7.1,13.1,14.5,20.1,21.3c3.3,3.2,3.2,6.6,1,9.2c-1.7,1.9-5.5,3.4-8.1,3
		c-11.4-1.8-19.7-9.1-27.7-16.8c-4.1-3.9-7.6-8.4-11.8-12.2c-11.3-10.2-22.6-20.2-34.2-30.1c-13.8-11.8-27.7-23.3-41.6-34.9
		c-3.6-3-7.6-5.4-11.3-8.2C1136.2,1131.7,1132.7,1130.1,1133.9,1126.9z"/>
	<path d="M406.8,1122.7c8.3,17.9,10.5,35.1,5.5,52.9c-2.8,10.3-10.3,17.3-18.3,24c-15.6,13.1-30.7,26.8-46.2,40.1
		c-9.3,8-18.7,15.9-28.4,23.5c-2.8,2.2-6.7,3.2-10.2,4.5c-0.7,0.3-1.9-0.2-2.6-0.6c-6.4-3.8-8.5-12.4-3.3-17.7
		c6.8-7,14.4-13.2,21.8-19.7c15.1-13.3,30.2-26.6,45.4-39.8c7.7-6.7,15.1-13.7,23.4-19.5c9.9-6.8,11.5-15.7,8.9-26.2
		c-1.4-5.5-2.4-11,0.3-16.3C403.9,1126.2,405.2,1124.8,406.8,1122.7z"/>
	<path d="M232.3,526.8c4.2,3.6,8.3,7.3,12.5,10.9c1,1.7,2,3.3,3,5c-5.5,4.6-9.6,5-16.8,0.7c-8.8-5.3-17.3-10.9-25.8-16.6
		c-13.6-9.2-27.5-18-40.6-27.9c-18.4-13.9-36.4-28.4-54.1-43.1C98.9,446,88.1,435.4,77,425.3c-2.8-2.5-2.4-6.2,0.8-8.2
		c6.2-3.9,10.7-4.2,16.2,0.5c11.6,9.8,22.5,20.5,34.3,30c22.9,18.3,46.1,36.2,69.3,54.1c10.1,7.8,20.5,15.3,30.7,22.9
		C229.7,525.3,231,526,232.3,526.8z"/>
	<path d="M601.4,1135.1c-1.1,2.3-1.7,4.3-2.9,5.8c-9.6,10.9-9.2,24.8-12.1,37.8c3.8,20,0,40.1-0.3,60.1c-0.1,5.3-0.1,10.7-0.9,15.9
		c-0.6,3.6-2.2,7.1-4.1,10.2c-1,1.7-4.4,3.8-5.5,3.2c-3.4-1.8-8.7-2-9-7.5c-0.6-10.6-2-21.1-1.7-31.7c0.6-21.9,1.7-43.9,3.4-65.7
		c1-12.9,6-24.5,15.4-33.8c4.6-4.6,8.5-5.4,12.3-2.1C598.3,1129.2,599.6,1132.4,601.4,1135.1z"/>
	<path d="M1216,417.4c4.9-4.4,9.9-8.7,14.6-13.2c11-10.7,21.9-21.6,33-32.3c1.9-1.8,4.1-3.3,6.3-4.9c3.7-2.6,7.5-4,11.2-0.2
		c4,4.1,4.2,10.3-0.1,14.1c-11.6,10.4-23.8,20-35.2,30.6c-5.5,5.1-12.3,6.3-18.7,8.5c-2.8,1-6.5-0.8-9.8-1.3
		C1216.8,418.3,1216.4,417.9,1216,417.4z"/>
	<path d="M1182.4,254.1c0.4,3.1,0.8,5.7,1.1,8.2c0.1,0.8-0.2,1.8,0.1,2.4c3.5,5.8,0.8,10.1-3.5,13.8c-4,3.5-8.3,6.7-12.6,9.8
		c-10.2,7.4-20.8,14.1-30.4,22.1c-4.4,3.7-8.8,2.6-13.2,3c-2.3,0.2-4.7-1.3-7.1-2c1.6-2.2,3-4.7,5-6.5
		c15.9-13.8,31.9-27.5,47.9-41.1C1173.3,260.7,1177.2,257.9,1182.4,254.1z"/>
	<path d="M1139.2,349.9c23-20.6,46.1-41.3,70.2-62.8c2.1,2.5,3.7,4.3,5.1,6.2c3.5,4.8,2.3,8.9-2,12.4c-11.7,9.5-23.4,18.9-35,28.3
		c-2.2,1.8-4.2,3.8-6.4,5.5c-9.1,7.1-19.6,10.3-30.5,12.5C1140.1,351.3,1139.6,350.6,1139.2,349.9z"/>
	<path d="M1185.2,377.2c15.6-21.5,34-38.1,57.6-49.9c0.1,2.3,0.6,4.8,0.4,7.4c-0.2,2.7-0.6,5.6-1.5,8.1c-0.9,2.5-2.1,5.4-4,7.1
		c-9.5,8.4-19.3,16.5-29.1,24.5c-3.5,2.8-7.3,6.2-11.4,6.8C1193.5,381.7,1189.3,378.7,1185.2,377.2z"/>
	<path d="M958,782.6c-14.2,15.8-28.2,31.4-42.5,47.4c-3.6-1.3-5-4.2-4.2-8.7c1.3-8,5.2-14.7,10.2-20.8c4.3-5.1,8.8-10,13.6-14.5
		c5.1-4.7,11.8-5.5,18.4-6.3C954.9,779.5,956.5,781.5,958,782.6z"/>
	<path d="M1217.7,1108.2c2.2-8.8,4.7-12.2,10.5-11.7c2.8,0.3,7.7,2.8,7.8,4.5c0.3,4.9-1.4,9.9-2.4,14.9
		C1226,1118,1222.5,1111.7,1217.7,1108.2z"/>
</g>
</svg>
