<?xml version="1.0" encoding="UTF-8"?>
<svg id="Ebene_2" xmlns="http://www.w3.org/2000/svg" viewBox="0 0 587.74 166.07"><defs><style>.cls-1{letter-spacing:.05em;}.cls-2{letter-spacing:.01em;}.cls-3{letter-spacing:.05em;}.cls-4{letter-spacing:.05em;}.cls-5{letter-spacing:.05em;}.cls-6{letter-spacing:.05em;}.cls-7{letter-spacing:.05em;}.cls-8{letter-spacing:.05em;}.cls-9{letter-spacing:.02em;}.cls-10{letter-spacing:.05em;}.cls-11{letter-spacing:0em;}.cls-12,.cls-13,.cls-14{fill:#fff;}.cls-15{letter-spacing:.05em;}.cls-13{font-family:HKGrotesk-ExtraBold, 'HK Grotesk';font-size:18.1px;}.cls-13,.cls-14{font-weight:700;isolation:isolate;}.cls-16{letter-spacing:0em;}.cls-17{letter-spacing:.04em;}.cls-18{letter-spacing:.01em;}.cls-19{letter-spacing:.02em;}.cls-20{letter-spacing:.03em;}.cls-21{letter-spacing:.01em;}.cls-22{letter-spacing:.06em;}.cls-23{letter-spacing:.05em;}.cls-24{letter-spacing:.04em;}.cls-25{letter-spacing:0em;}.cls-26{letter-spacing:.06em;}.cls-27{letter-spacing:.06em;}.cls-28{letter-spacing:.06em;}.cls-29{letter-spacing:.02em;}.cls-30{letter-spacing:.01em;}.cls-31{letter-spacing:.06em;}.cls-32{letter-spacing:.05em;}.cls-33{letter-spacing:.06em;}.cls-34{letter-spacing:.05em;}.cls-35{letter-spacing:.05em;}.cls-36{letter-spacing:-.03em;}.cls-37{letter-spacing:.02em;}.cls-38{letter-spacing:0em;}.cls-14{font-family:HKGrotesk-Bold, 'HK Grotesk';font-size:53.7px;}</style></defs><g id="Layer_2"><g><g><path class="cls-12" d="m83.07,54.68c13.91,0,25.78,10.1,27.88,23.88l12.13-12.13,30.36-30.36-23.5-23.5-30.36,30.36V0h-33.21v60.08c4.89-3.49,10.73-5.4,16.7-5.4Zm21.02-7.24l25.91-25.85,14.54,14.48-25.85,25.85-4.95,4.89c-3.24-6.22-8.32-11.24-14.48-14.54l4.83-4.83Zm-10.73-41.09v43.57c-6.67-2.03-13.84-2.03-20.51.06V6.35h20.51Z"/><path class="cls-12" d="m111.01,87.51c-2.41,15.43-16.96,25.97-32.39,23.5-4.38-.7-8.57-2.41-12.19-5.02v60.08h33.21v-42.99l30.36,30.36,23.5-23.5-30.36-30.36-12.13-12.07Zm-17.65,35.56v36.64h-20.51v-43.57c6.67,2.1,13.84,2.1,20.51.06v6.86Zm36.64,21.47l-25.85-25.91-4.89-4.89c6.22-3.24,11.24-8.32,14.54-14.54l4.89,4.89,25.85,25.85-14.54,14.61Z"/><path class="cls-12" d="m12.57,36.07l30.36,30.36H0v33.21h42.93l-30.36,30.36,23.5,23.5,24.01-24.01v-29.78c-7.24-9.91-7.24-23.37,0-33.34v-29.72l-24.07-24.07-23.43,23.5Z"/></g><text class="cls-14" transform="translate(164.27 85.48)"><tspan class="cls-37" x="0" y="0">O</tspan><tspan class="cls-30" x="41.11" y="0">p</tspan><tspan class="cls-21" x="73.04" y="0">e</tspan><tspan class="cls-9" x="102.94" y="0">n </tspan><tspan class="cls-29" x="149.23" y="0">Kn</tspan><tspan class="cls-25" x="216.27" y="0">o</tspan><tspan class="cls-2" x="246.84" y="0">w</tspan><tspan class="cls-38" x="287.92" y="0">l</tspan><tspan class="cls-18" x="303.29" y="0">e</tspan><tspan class="cls-19" x="333.11" y="0">d</tspan><tspan class="cls-16" x="365.1" y="0">g</tspan><tspan class="cls-9" x="393.02" y="0">e</tspan></text><text class="cls-13" transform="translate(168.47 120.41)"><tspan class="cls-20" x="0" y="0">F</tspan><tspan class="cls-34" x="10.66" y="0">O</tspan><tspan class="cls-4" x="25.13" y="0">R A </tspan><tspan class="cls-11" x="61.19" y="0">F</tspan><tspan class="cls-5" x="71.1" y="0">A</tspan><tspan class="cls-26" x="84.35" y="0">I</tspan><tspan class="cls-27" x="90.21" y="0">R</tspan><tspan class="cls-4" x="102.36" y="0">, </tspan><tspan class="cls-1" x="113.55" y="0">S</tspan><tspan class="cls-23" x="124.89" y="0">U</tspan><tspan class="cls-15" x="137.62" y="0">S</tspan><tspan class="cls-36" x="148.93" y="0">T</tspan><tspan class="cls-5" x="158.97" y="0">A</tspan><tspan class="cls-31" x="172.22" y="0">I</tspan><tspan class="cls-3" x="178.09" y="0">N</tspan><tspan class="cls-6" x="191.52" y="0">A</tspan><tspan class="cls-35" x="204.77" y="0">B</tspan><tspan class="cls-8" x="216.83" y="0">L</tspan><tspan class="cls-4" x="226.85" y="0">E A</tspan><tspan class="cls-33" x="256.82" y="0">N</tspan><tspan class="cls-4" x="270.38" y="0">D </tspan><tspan class="cls-32" x="288.82" y="0">O</tspan><tspan class="cls-24" x="303.3" y="0">P</tspan><tspan class="cls-22" x="314.24" y="0">E</tspan><tspan class="cls-5" x="325.77" y="0">N </tspan><tspan class="cls-17" x="344.56" y="0">F</tspan><tspan class="cls-7" x="355.41" y="0">U</tspan><tspan class="cls-5" x="368.23" y="0">T</tspan><tspan class="cls-28" x="379.71" y="0">U</tspan><tspan class="cls-10" x="392.67" y="0">R</tspan><tspan class="cls-4" x="404.64" y="0">E</tspan></text></g></g></svg>