<?xml version="1.0" standalone="no"?>
<!DOCTYPE svg PUBLIC "-//W3C//DTD SVG 20010904//EN"
 "http://www.w3.org/TR/2001/REC-SVG-20010904/DTD/svg10.dtd">
<svg version="1.0" xmlns="http://www.w3.org/2000/svg"
 width="700.000000pt" height="700.000000pt" viewBox="0 0 700.000000 700.000000"
 preserveAspectRatio="xMidYMid meet">
<g transform="translate(0.000000,700.000000) scale(0.100000,-0.100000)"
fill="#000000" stroke="none">
<path d="M3239 6996 c-2 -2 -49 -7 -103 -10 -82 -6 -330 -42 -411 -60 -528
-117 -1010 -345 -1420 -671 -276 -220 -535 -501 -731 -798 -105 -157 -136
-212 -228 -402 -145 -297 -248 -615 -297 -915 -5 -36 -12 -83 -15 -105 -3 -22
-7 -49 -9 -60 -12 -58 -20 -223 -20 -420 1 -312 11 -412 79 -760 29 -149 125
-437 208 -625 213 -482 504 -877 908 -1231 66 -58 223 -181 276 -216 11 -7 45
-31 77 -53 32 -22 60 -40 62 -40 3 0 29 -15 58 -34 178 -114 468 -248 697
-323 98 -32 337 -96 405 -108 75 -13 163 -27 200 -31 22 -2 50 -7 63 -9 128
-29 644 -26 845 4 34 5 80 12 102 15 22 4 63 11 90 16 28 5 62 11 76 14 69 11
309 80 434 124 219 78 419 171 588 274 43 26 80 48 82 48 9 0 245 167 310 219
770 613 1236 1491 1312 2471 12 163 5 537 -12 630 -1 8 -6 40 -10 70 -47 373
-167 760 -341 1100 -41 80 -80 154 -87 164 -7 11 -39 63 -71 115 -117 188
-284 401 -439 560 -87 89 -232 224 -282 262 -16 13 -38 31 -49 41 -10 9 -69
53 -130 97 -279 200 -584 358 -896 464 -239 82 -473 135 -710 162 -25 3 -61 8
-80 11 -39 5 -526 14 -531 10z m386 -861 c50 -3 106 -8 125 -10 19 -3 55 -8
80 -10 25 -3 52 -8 60 -10 8 -2 30 -7 47 -10 79 -13 310 -74 358 -94 11 -5 63
-26 115 -46 95 -38 237 -107 340 -166 54 -30 270 -176 280 -188 3 -3 43 -38
90 -78 397 -335 699 -815 825 -1313 20 -82 40 -176 60 -295 26 -160 27 -545 0
-708 -2 -12 -6 -38 -9 -57 -77 -510 -336 -1024 -703 -1396 -113 -114 -147
-145 -288 -257 -135 -107 -381 -250 -556 -322 -183 -76 -396 -138 -584 -170
-163 -28 -481 -39 -665 -22 -437 39 -880 204 -1245 465 -212 151 -340 273
-554 528 -52 61 -189 274 -241 374 -157 303 -260 636 -286 923 -3 34 -7 73
-10 87 -5 29 -6 351 0 395 2 17 6 57 10 90 9 83 18 146 31 205 3 14 7 36 10
49 12 64 49 197 82 291 128 374 332 698 618 986 243 244 478 407 788 546 166
75 409 151 552 174 22 3 42 7 45 9 3 2 33 7 65 10 33 4 69 9 80 11 11 2 74 7
140 10 66 4 121 7 122 8 3 3 124 -2 218 -9z"/>
<path d="M3375 4109 c-135 -18 -230 -64 -329 -162 -373 -367 -98 -998 424
-972 151 7 268 60 377 170 113 116 167 250 165 414 -5 329 -310 592 -637 550z"/>
</g>
</svg>
