<?xml version="1.0" encoding="utf-8"?>
<!-- Generated by IcoMoon.io -->
<!DOCTYPE svg PUBLIC "-//W3C//DTD SVG 1.1//EN" "http://www.w3.org/Graphics/SVG/1.1/DTD/svg11.dtd">
<svg version="1.1" xmlns="http://www.w3.org/2000/svg" xmlns:xlink="http://www.w3.org/1999/xlink" width="768" height="768" viewBox="0 0 768 768">
<g id="icomoon-ignore">
</g>
<path d="M645.664 122.336c-12.224-12.256-28.608-18.752-45.28-18.752-8 0-16.096 1.504-23.808 4.608-142.368 57.184-249.344 152.32-336.544 299.424-3.264 5.504-5.216 11.36-6.688 17.344-44.16 6.88-83.2 28.896-110.144 63.776-29.312 37.92-41.44 86.24-34.112 136.128l6.912 47.136 47.136 6.944c9.376 1.376 18.848 2.048 28.16 2.048 87.776 0 158.368-61.088 171.744-146.048 6.016-1.504 11.872-3.68 17.408-6.976 147.136-87.296 242.272-194.208 299.36-336.544 9.536-23.776 3.936-50.976-14.144-69.088zM171.296 616.992c-6.144 0-12.448-0.512-18.88-1.408-9.888-67.328 33.76-121.92 96-128.672l32.672 32.672c-6.144 56.32-51.36 97.408-109.792 97.408zM327.776 472.928l-32.672-32.672c12.16-20.512 24.768-39.456 37.696-57.728 0.864 1.312 52.448 52.896 52.448 52.896-18.176 12.832-37.056 25.408-57.472 37.504zM411.232 416.192c0 0-58.272-57.632-60.128-58.368 68.704-89.088 148.832-149.92 249.312-190.176-40.16 100.064-100.608 179.936-189.184 248.544z"></path>
</svg>
