<?xml version="1.0" encoding="utf-8"?>
<!-- Generator: Adobe Illustrator 16.0.0, SVG Export Plug-In . SVG Version: 6.00 Build 0)  -->
<!DOCTYPE svg PUBLIC "-//W3C//DTD SVG 1.1//EN" "http://www.w3.org/Graphics/SVG/1.1/DTD/svg11.dtd">
<svg version="1.1" id="Capa_1" xmlns="http://www.w3.org/2000/svg" xmlns:xlink="http://www.w3.org/1999/xlink" x="0px" y="0px"
	 width="800px" height="800px" viewBox="0 0 800 800" enable-background="new 0 0 800 800" xml:space="preserve">
<path d="M236.446,760L32.081,502.881l72.937-319.984l295.316-142.43L695.65,182.576l72.937,320.36L564.222,760H236.446z M606,334
	c0-19.33-15.67-35-35-35H229c-19.33,0-35,15.67-35,35s15.67,35,35,35h342C590.33,369,606,353.33,606,334z M606,476
	c0-19.33-15.67-35-35-35H229c-19.33,0-35,15.67-35,35s15.67,35,35,35h342C590.33,511,606,495.33,606,476z"/>
</svg>
