<svg id="Layer_1" data-name="Layer 1" xmlns="http://www.w3.org/2000/svg" xmlns:xlink="http://www.w3.org/1999/xlink" width="198.63" height="69.05" viewBox="0 0 198.63 69.05"><defs><clipPath id="clip-path" transform="translate(-15.3 -19.47)"><path d="M73.38,42.31l.81,0,.7-.08v.21l-1.3,1.54L72,44.06c.54-.66,1-1.24,1.41-1.75" fill="#f3b641" clip-rule="evenodd"/></clipPath></defs><title>GPSDD-Logo_FINAL_TypeReversed</title><path d="M19.27,37.75l-1,2h.57c1.42,0,2.84-.11,4.26-.09s2.82.11,4.23.2c1.23.08,2.45.2,3.68.31.09,0,.22,0,.27,0,.27-.31.52-.64.87-1.08-2.2-.3-4.28-.65-6.37-.86S21.51,37.9,19.27,37.75Z" transform="translate(-15.3 -19.47)" fill="#334286" fill-rule="evenodd"/><path d="M36,72.58c-.24-.15-.45-.34-.73-.55A72.92,72.92,0,0,0,33.86,84.7l1.86.91c0-.42,0-.73,0-1,.05-2.54.07-5.08.16-7.61,0-1.22.18-2.43.33-3.64C36.24,73,36.31,72.78,36,72.58Z" transform="translate(-15.3 -19.47)" fill="#334286" fill-rule="evenodd"/><path d="M71,29.39c-.32,1.23-.65,2.47-1,3.7-.23.78-.49,1.55-.75,2.31-.32.93-.67,1.85-1,2.78a2.28,2.28,0,0,0-.25,1c.07.31.41.56.68.9a76.63,76.63,0,0,0,4.48-11.64l-1.61-1.37C71.35,27.93,71.18,28.66,71,29.39Z" transform="translate(-15.3 -19.47)" fill="#4cae4d" fill-rule="evenodd"/><path d="M39.49,74.72a1.13,1.13,0,0,0-.06.29c.17,2,.27,4,.54,6s.7,4.09,1.08,6.13a.65.65,0,0,0,.33.46c.52.17,1.07.27,1.7.42A68.59,68.59,0,0,1,40.6,75.31Z" transform="translate(-15.3 -19.47)" fill="#f3b641" fill-rule="evenodd"/><path d="M29.43,26.05,28,27.15a83,83,0,0,1,10.85,6.37L40,33A85.27,85.27,0,0,0,29.62,26Z" transform="translate(-15.3 -19.47)" fill="#047fae" fill-rule="evenodd"/><path d="M29.11,64.3c-.11.12-.19.18-.24.25C28,65.78,27,67,26.15,68.25s-1.58,2.38-2.35,3.59c-.56.88-1.09,1.78-1.63,2.67a.37.37,0,0,0,0,.29c.34.45.69.9,1.07,1.37.07-.11.13-.18.17-.26.21-.4.4-.82.62-1.22.77-1.4,1.52-2.82,2.36-4.19,1-1.67,2.12-3.3,3.18-5a.37.37,0,0,0,.06-.28C29.46,64.94,29.29,64.65,29.11,64.3Z" transform="translate(-15.3 -19.47)" fill="#047fae" fill-rule="evenodd"/><path d="M77.05,32.61a1.66,1.66,0,0,0-.2.25c-.2.36-.37.74-.57,1.1-.9,1.6-1.78,3.21-2.72,4.79-.83,1.38-1.74,2.71-2.63,4a1.08,1.08,0,0,0,.3,1.4.63.63,0,0,0,.13-.11c.66-.87,1.35-1.73,2-2.62.81-1.14,1.61-2.29,2.37-3.46s1.39-2.17,2-3.27c.14-.24.5-.47.25-.83Z" transform="translate(-15.3 -19.47)" fill="#047fae" fill-rule="evenodd"/><path d="M61,74.49,60,75A79.19,79.19,0,0,0,70.2,82l1.47-1.09c-1.88-1-3.69-2-5.44-3S62.75,75.61,61,74.49Z" transform="translate(-15.3 -19.47)" fill="#047fae" fill-rule="evenodd"/><path d="M52.4,83.49c-1.17-1.93-2.23-3.92-3.34-5.89a1.11,1.11,0,0,0-1.3-.41A69.06,69.06,0,0,0,54,88.38l1.62-.21c-.2-.31-.39-.6-.59-.89C54.13,86,53.19,84.8,52.4,83.49Z" transform="translate(-15.3 -19.47)" fill="#4cae4d" fill-rule="evenodd"/><path d="M22.53,32.73a74,74,0,0,1,12.18,3.61l1-.77a78.37,78.37,0,0,0-11.77-4.41Z" transform="translate(-15.3 -19.47)" fill="#4cae4d" fill-rule="evenodd"/><path d="M64.86,22.87s-.11,0-.14,0c0,.73.1,1.44.09,2.15,0,2.23-.08,4.46-.18,6.7,0,1.06-.21,2.13-.35,3.19a1.37,1.37,0,0,0,.89,1.32l0-.06c.2-1.16.44-2.31.61-3.47.14-1,.24-1.92.32-2.89.15-1.95.27-3.9.39-5.85a.38.38,0,0,0-.12-.28C65.9,23.4,65.38,23.14,64.86,22.87Z" transform="translate(-15.3 -19.47)" fill="#334286" fill-rule="evenodd"/><path d="M31.72,68.56a2.25,2.25,0,0,0-.22.35c-.32.72-.64,1.45-.94,2.17-.42,1-.86,2-1.24,2.94s-.62,1.8-.92,2.71-.55,1.77-.89,2.62c-.23.58-.3,1,.35,1.34a5.78,5.78,0,0,1,1,.81l.29-1.23c.33-1.31.64-2.62,1-3.91q.45-1.62,1-3.21c.35-1.05.72-2.1,1.13-3.13A1.07,1.07,0,0,0,31.72,68.56Z" transform="translate(-15.3 -19.47)" fill="#4cae4d" fill-rule="evenodd"/><path d="M27.42,60.53c-.7.76-1.41,1.5-2.1,2.27-2,2.18-3.91,4.39-5.89,6.57a.73.73,0,0,0-.09,1.09,9.66,9.66,0,0,1,.49.87l.22-.27c.74-1,1.46-2,2.23-2.91S24.05,66,25,64.93s1.74-1.9,2.65-2.82A1,1,0,0,0,27.42,60.53Z" transform="translate(-15.3 -19.47)" fill="#f3b641" fill-rule="evenodd"/><path d="M34.47,23,33,23.74a2,2,0,0,0,.25.3c.69.52,1.4,1,2.09,1.54a75.21,75.21,0,0,1,6.9,6,1.12,1.12,0,0,0,1.44,0A79.38,79.38,0,0,0,34.47,23Z" transform="translate(-15.3 -19.47)" fill="#f3b641" fill-rule="evenodd"/><path d="M44.63,19.8c.08.14.14.26.21.37.61.85,1.26,1.67,1.83,2.55,1.08,1.65,2.12,3.33,3.15,5A23.84,23.84,0,0,1,51,30c.34.74.77,1,1.5.79a69.11,69.11,0,0,0-6.27-11.14Z" transform="translate(-15.3 -19.47)" fill="#4cae4d" fill-rule="evenodd"/><path d="M73.11,51.25c0,.38.06.69.1,1.08a69.35,69.35,0,0,0,10-7.77c-.17-.52-.31-1-.47-1.48A72.17,72.17,0,0,1,73.11,51.25Z" transform="translate(-15.3 -19.47)" fill="#334286" fill-rule="evenodd"/><path d="M74.46,68.66c-1.77-.09-3.54-.31-5.3-.49a1.18,1.18,0,0,0-1.27.81c.85.54,11.68,1.81,12.42,1.38.17-.31.33-.57.46-.85s.2-.51.32-.83l-.49,0C78.55,68.71,76.5,68.75,74.46,68.66Z" transform="translate(-15.3 -19.47)" fill="#334286" fill-rule="evenodd"/><path d="M21,44.35c-1,.16-2.11.36-3.15.59-.73.17-1.7.06-1.69,1.24,0,0,0,0,0,.08l-.13.79c2.16-.53,4.22-1.1,6.31-1.53s4.23-.72,6.42-1.08l.47-1c-1.36.12-2.62.21-3.88.35C23.85,43.94,22.41,44.13,21,44.35Z" transform="translate(-15.3 -19.47)" fill="#f3b641" fill-rule="evenodd"/><path d="M71.15,73.9c-1-.31-2.07-.66-3.09-1-.82-.28-1.63-.57-2.42-.9a1.09,1.09,0,0,0-1.4.54A74.47,74.47,0,0,0,75.73,77L77,75.42l-2.22-.54C73.55,74.56,72.35,74.25,71.15,73.9Z" transform="translate(-15.3 -19.47)" fill="#4cae4d" fill-rule="evenodd"/><path d="M80,37.86c-.93,1.18-1.82,2.4-2.8,3.54-1.41,1.65-2.87,3.27-4.35,4.87-.63.68-.74,1-.3,1.75A75.05,75.05,0,0,0,81,39l-.78-1.47C80.12,37.68,80.06,37.77,80,37.86Z" transform="translate(-15.3 -19.47)" fill="#f3b641" fill-rule="evenodd"/><path d="M64.26,82.14c-1.13-.92-2.25-1.86-3.34-2.83s-2.08-1.91-3.11-2.87a1,1,0,0,0-1.4-.06c.14.67,8,8,9.06,8.51l1.25-.65.07-.17-.2-.16C65.82,83.32,65,82.76,64.26,82.14Z" transform="translate(-15.3 -19.47)" fill="#f3b641" fill-rule="evenodd"/><path d="M21.54,60.15c-1.65,1.32-3.21,2.76-4.79,4.13l.51,1.5A74.7,74.7,0,0,1,27,57.34l-.25-1.08C24.91,57.61,23.18,58.82,21.54,60.15Z" transform="translate(-15.3 -19.47)" fill="#334286" fill-rule="evenodd"/><path d="M60.27,26.38c-.13-1.12-.34-2.23-.53-3.34-.11-.65-.26-1.29-.41-1.92,0-.14-.13-.34-.24-.38-.51-.16-1-.27-1.67-.44.11.38.19.65.26.92.25,1,.51,2,.73,3,.35,1.53.71,3.06,1,4.6a33.21,33.21,0,0,1,.45,3.59.7.7,0,0,0,.56.7,4.69,4.69,0,0,1,.55.25c0-.25,0-.36-.05-.47C60.7,30.72,60.51,28.55,60.27,26.38Z" transform="translate(-15.3 -19.47)" fill="#f3b641" fill-rule="evenodd"/><path d="M52.1,77.17a68.49,68.49,0,0,0,7.83,9.93c.34-.1.56-.15.77-.22s.4-.16.65-.26A72.2,72.2,0,0,1,53.15,77Z" transform="translate(-15.3 -19.47)" fill="#334286" fill-rule="evenodd"/><path d="M79.4,62.55c-.83.18-1.66.39-2.49.56s-1.5.27-2.25.37c-1,.13-2,.22-3,.34a1,1,0,0,0-1,1,1.22,1.22,0,0,0,.26,0c.32,0,.64,0,1-.07,2.36-.24,4.71-.45,7.06-.73,1.12-.14,2.21-.4,3.31-.61.48-.09,1-.09,1-.8,0,0,0,0,0-.07.09-.35.17-.71.27-1.11-.67.18-1.28.37-1.89.52C81,62.21,80.17,62.37,79.4,62.55Z" transform="translate(-15.3 -19.47)" fill="#f3b641" fill-rule="evenodd"/><path d="M51.25,19.54a70.88,70.88,0,0,1,4.73,12l1.07.26A69.16,69.16,0,0,0,53,19.54Z" transform="translate(-15.3 -19.47)" fill="#047fae" fill-rule="evenodd"/><path d="M84.21,55.53l-.66.32-2.09,1c-.6.26-1.2.5-1.81.74s-1.28.53-1.93.77-1.39.49-2.09.73-1.65.55-2.48.78a1.08,1.08,0,0,0-.9,1.19,1.31,1.31,0,0,0,.28,0c.2,0,.39-.1.58-.15.73-.17,1.46-.33,2.19-.53s1.73-.52,2.59-.79c.56-.18,1.12-.37,1.67-.57.83-.3,1.65-.62,2.48-.94.68-.26,1.36-.53,2-.82.1,0,.23-.16.24-.25,0-.45,0-.91,0-1.41Z" transform="translate(-15.3 -19.47)" fill="#047fae" fill-rule="evenodd"/><path d="M27.16,47.5l-.13,0c-.31.06-11.46,3.86-11.6,3.93s0,0,0,0c0,.55-.07,1.1-.1,1.66.29-.11,11.68-4.66,12-4.68l.09-.06a6.17,6.17,0,0,1,.2-.85C27.43,47.44,27.29,47.52,27.16,47.5Z" transform="translate(-15.3 -19.47)" fill="#047fae" fill-rule="evenodd"/><path d="M20,55.42c-1.25.74-2.47,1.53-3.69,2.31-.27.18-.69.37-.74.61a6.15,6.15,0,0,0,.1,1.54,73.17,73.17,0,0,1,11-6.91c0-.35.07-.65.12-1.07-1.08.52-2.06,1-3,1.46C22.51,54,21.24,54.7,20,55.42Z" transform="translate(-15.3 -19.47)" fill="#4cae4d" fill-rule="evenodd"/><path d="M38.77,21.31c.6.63,1.14,1.18,1.66,1.75,1.33,1.46,2.68,2.91,4,4.41.82,1,1.54,2,2.32,3a.94.94,0,0,0,.5.39,3,3,0,0,0,.84-.09,75.54,75.54,0,0,0-7.93-9.91Z" transform="translate(-15.3 -19.47)" fill="#334286" fill-rule="evenodd"/><path d="M73.29,55.61c-.05.34-.08.63-.13,1a67.37,67.37,0,0,0,11.08-6.08c-.06-.52-.12-1-.18-1.54A68.11,68.11,0,0,1,73.29,55.61Z" transform="translate(-15.3 -19.47)" fill="#4cae4d" fill-rule="evenodd"/><path d="M22,70.68c-.36.59-.8,1.12-1.19,1.69-.08.12-.15.33-.09.43.27.44.58.85.92,1.35l.25-.39L24,70.43a1.85,1.85,0,0,0,.12-.33l-1.07.15C22.69,70.29,22.28,70.23,22,70.68Z" transform="translate(-15.3 -19.47)" fill="#f3b641" fill-rule="evenodd"/><path d="M28.42,29.09c-.43-.24-.9-.42-1.36-.63a.52.52,0,0,0-.71.13,5.6,5.6,0,0,1-.43.41c-.24.23-.47.46-.73.73l3.7,1.43h.17c-.08-.54-.13-1.06-.25-1.56A.88.88,0,0,0,28.42,29.09Z" transform="translate(-15.3 -19.47)" fill="#047fae" fill-rule="evenodd"/><path d="M25.17,75.87c-.21.43-.41.87-.6,1.31-.05.13-.1.35,0,.43.4.46.83.89,1.3,1.39.49-1.27,1-2.48,1.42-3.69l-1.82.26A1.42,1.42,0,0,0,25.17,75.87Z" transform="translate(-15.3 -19.47)" fill="#047fae" fill-rule="evenodd"/><path d="M38.66,81.55c-.44.4-.87.77-1.28,1.16a.62.62,0,0,0-.13.4c0,.46,0,.92.06,1.37s.11,1,.17,1.5a.55.55,0,0,0,.2-.08c.42-.41.84-.82,1.25-1.25a.35.35,0,0,0,.11-.27c-.09-.89-.19-1.77-.3-2.66C38.74,81.66,38.68,81.59,38.66,81.55Z" transform="translate(-15.3 -19.47)" fill="#4cae4d" fill-rule="evenodd"/><path d="M76.24,38.23c.59-.06,1.07-.09,1.55-.17a.92.92,0,0,0,.53-.26c.41-.52.78-1.07,1.19-1.64l-1-1.52C77.77,35.85,77,37,76.24,38.23Z" transform="translate(-15.3 -19.47)" fill="#f3b641" fill-rule="evenodd"/><path d="M33.7,26.09c-.24-.21-.5-.38-.76-.57l-1.29-.9-1.44.93,4,2.57c-.09-.62-.15-1.12-.25-1.62A.89.89,0,0,0,33.7,26.09Z" transform="translate(-15.3 -19.47)" fill="#f3b641" fill-rule="evenodd"/><path d="M66.15,80.39c.07.44.14.87.22,1.3,0,.14,0,.34.1.41.56.44,1.13.84,1.71,1.26.42-.27.8-.5,1.16-.76.11-.07.16-.22.21-.29l-3.37-2.17A1.19,1.19,0,0,0,66.15,80.39Z" transform="translate(-15.3 -19.47)" fill="#f3b641" fill-rule="evenodd"/><path d="M78.64,59.89c-.11,0-.2.15-.29.22.53.27,1,.5,1.4.7a.73.73,0,0,0,.46.11c.92-.25,1.82-.53,2.73-.8a1.26,1.26,0,0,0,.28-.19l-2-.84C80.29,59.37,79.46,59.62,78.64,59.89Z" transform="translate(-15.3 -19.47)" fill="#f3b641" fill-rule="evenodd"/><path d="M56.46,22.39c-.11-.37-.24-.73-.38-1.18a.9.9,0,0,0-.17.23c-.21.49-.41,1-.62,1.48-.06.16-.19.34-.15.47.3.89.62,1.77,1,2.7,0,0,.15-.09.19-.16.15-.31.29-.62.42-.94s.37-.57.24-1S56.62,22.93,56.46,22.39Z" transform="translate(-15.3 -19.47)" fill="#f3b641" fill-rule="evenodd"/><path d="M44.73,83.3l-.37-1.11c-.07,0-.11.06-.13.09l-.64,1.41c-.06.13-.17.3-.13.42.27,1,.58,1.92.89,2.94a.74.74,0,0,0,.22-.21,4.84,4.84,0,0,0,.4-.9c.12-.39.46-.73.25-1.22S44.89,83.77,44.73,83.3Z" transform="translate(-15.3 -19.47)" fill="#f3b641" fill-rule="evenodd"/><path d="M73.22,33c.51,0,1-.09,1.4-.15.17,0,.42,0,.48-.14.3-.49.54-1,.79-1.5l-1.4-1.5Z" transform="translate(-15.3 -19.47)" fill="#047fae" fill-rule="evenodd"/><path d="M20.93,53.32l-1.74-.4A.27.27,0,0,0,19,53c-.73.37-1.46.74-2.19,1.13a7.36,7.36,0,0,0-.65.42,15.1,15.1,0,0,1,1.69.23,1.56,1.56,0,0,0,1.26-.26c.62-.36,1.26-.68,1.95-1C21,53.41,21,53.33,20.93,53.32Z" transform="translate(-15.3 -19.47)" fill="#047fae" fill-rule="evenodd"/><path d="M27,35.87c-.12-.5-.49-.63-.92-.71l-2-.36c.08.24.14.49.23.71.24.55.3,1.26,1.16,1.26a4,4,0,0,1,.59,0l1.37.23a1.08,1.08,0,0,0-.05-.26A5.38,5.38,0,0,1,27,35.87Z" transform="translate(-15.3 -19.47)" fill="#334286" fill-rule="evenodd"/><path d="M75.43,71.67a13.92,13.92,0,0,0-1.81-.29c-.19,0-.37,0-.61,0a5.86,5.86,0,0,1,.45,1.07c.12.53.49.67.92.76.17,0,.36,0,.54.08l1.49.3c-.19-.49-.32-.89-.5-1.26S75.63,71.73,75.43,71.67Z" transform="translate(-15.3 -19.47)" fill="#334286" fill-rule="evenodd"/><path d="M31.33,77.84c-.18.79-.33,1.6-.51,2.48a10.35,10.35,0,0,1,1.29-.48c.58-.15.63-.58.69-1s.15-1,.23-1.54c0-.1,0-.2,0-.3-.49.18-.95.33-1.4.53A.59.59,0,0,0,31.33,77.84Z" transform="translate(-15.3 -19.47)" fill="#334286" fill-rule="evenodd"/><path d="M49.34,83.55c-.07.36-.12.73-.2,1.1a1.24,1.24,0,0,0,.07,1.06,9.18,9.18,0,0,1,.5,1c.24.47.49.93.73,1.39h.1c.11-.76.23-1.51.33-2.21-.46-.87-.92-1.71-1.4-2.61A1.61,1.61,0,0,0,49.34,83.55Z" transform="translate(-15.3 -19.47)" fill="#047fae" fill-rule="evenodd"/><path d="M50.34,20.87,50,20.15a1.11,1.11,0,0,0-.1.24l-.15,1.15a2,2,0,0,0,.3,1.72,4.08,4.08,0,0,1,.32.58l.72,1.35a6.53,6.53,0,0,0,.2-1.05c0-.46.32-.91.06-1.39S50.66,21.5,50.34,20.87Z" transform="translate(-15.3 -19.47)" fill="#047fae" fill-rule="evenodd"/><path d="M67.67,29.44a17.27,17.27,0,0,1-.27,2l.64-.26c.53-.24,1.18-.3,1.22-1.14a15.31,15.31,0,0,1,.37-2c-.4.16-.69.3-1,.39C68.13,28.58,67.69,28.74,67.67,29.44Z" transform="translate(-15.3 -19.47)" fill="#334286" fill-rule="evenodd"/><path d="M71.67,79l1.34.67,1.47-1.38L71.4,77.11C71.49,77.78,71.58,78.39,71.67,79Z" transform="translate(-15.3 -19.47)" fill="#047fae" fill-rule="evenodd"/><path d="M77.67,65.74a2.07,2.07,0,0,0,.18.23c.32.32.63.65,1,1a.73.73,0,0,0,.43.19c.81,0,1.61-.1,2.41-.16a2,2,0,0,0,.33-.1l-1.32-1.47Z" transform="translate(-15.3 -19.47)" fill="#4cae4d" fill-rule="evenodd"/><path d="M44.17,23a2,2,0,0,0,.24.85c.34.52.75,1,1.13,1.51l.36.44V23.73l-1.79-2.41A6.77,6.77,0,0,0,44.17,23Z" transform="translate(-15.3 -19.47)" fill="#334286" fill-rule="evenodd"/><path d="M62.77,22.3l-1.33,1.51c.12,1,.25,1.89.39,2.91l1.37-1.25c-.07-1-.15-2-.22-3Z" transform="translate(-15.3 -19.47)" fill="#4cae4d" fill-rule="evenodd"/><path d="M21.86,41.59a1,1,0,0,0-1.08-.35l-.29,0-2,.19a1.3,1.3,0,0,0,.12.21c.25.26.54.5.78.78a1,1,0,0,0,1.07.45c.43-.09.87-.14,1.3-.19s.7,0,1.19-.09A11.28,11.28,0,0,1,21.86,41.59Z" transform="translate(-15.3 -19.47)" fill="#4cae4d" fill-rule="evenodd"/><path d="M76,66a.48.48,0,0,0-.34-.08l-2.12,0a1.72,1.72,0,0,0-.28.08c.65.87,1.29,1.59,2.5,1.33a7.88,7.88,0,0,1,1.4-.08,1,1,0,0,0-.08-.22C76.71,66.67,76.36,66.3,76,66Z" transform="translate(-15.3 -19.47)" fill="#4cae4d" fill-rule="evenodd"/><path d="M38.39,77.15c-.47.43-.86.79-1.24,1.17a.3.3,0,0,0-.07.21c0,.79,0,1.59,0,2.38,0,.06.07.12.2.31.35-.39.66-.71.93-1.06a1.37,1.37,0,0,0,.32-.65,10.09,10.09,0,0,0-.06-1.34C38.44,77.87,38.42,77.56,38.39,77.15Z" transform="translate(-15.3 -19.47)" fill="#4cae4d" fill-rule="evenodd"/><path d="M22.65,35.12a1.05,1.05,0,0,0-1.33-.74l-1.16,1.76,3,.3c-.05-.17-.08-.28-.12-.39A8.11,8.11,0,0,1,22.65,35.12Z" transform="translate(-15.3 -19.47)" fill="#334286" fill-rule="evenodd"/><path d="M82.58,48c-.92.11-1.89,0-2.61.79a9.21,9.21,0,0,1-1.29,1h1.87a.71.71,0,0,0,.38-.14c.69-.5,1.39-1,2.08-1.54a1.49,1.49,0,0,0,.16-.23l-.34.07A1.83,1.83,0,0,1,82.58,48Z" transform="translate(-15.3 -19.47)" fill="#334286" fill-rule="evenodd"/><path d="M17.24,60.4l.73-.1c.79-.11,1.65.11,2.31-.6a11.35,11.35,0,0,1,1.47-1.14H19.67Z" transform="translate(-15.3 -19.47)" fill="#334286" fill-rule="evenodd"/><path d="M73.09,34.3a1,1,0,0,0-.56.35c-.31.6-.55,1.24-.85,1.93.58-.08,1.12-.15,1.66-.24,0,0,.09-.1.12-.16l1.07-2.07c-.16,0-.28,0-.39,0A9.19,9.19,0,0,0,73.09,34.3Z" transform="translate(-15.3 -19.47)" fill="#047fae" fill-rule="evenodd"/><path d="M54.61,82.62c0,.66,0,1.19,0,1.71a1.33,1.33,0,0,0,.22.64c.34.5.73,1,1.09,1.47l.47.61c0-.81-.08-1.5-.13-2.27Z" transform="translate(-15.3 -19.47)" fill="#334286" fill-rule="evenodd"/><path d="M30.14,29.9l.26,1.87,2.24,1c-.1-.6-.19-1.12-.3-1.74Z" transform="translate(-15.3 -19.47)" fill="#047fae" fill-rule="evenodd"/><path d="M26.94,72.24c-.25.5-.49,1-.73,1.5-.08.15-.15.31-.25.51.59-.08,1.09-.13,1.57-.24a.69.69,0,0,0,.41-.34c.22-.43.39-.89.59-1.34.07-.17.16-.33.29-.61-.65.13-1.17.23-1.7.35C27.05,72.08,27,72.17,26.94,72.24Z" transform="translate(-15.3 -19.47)" fill="#047fae" fill-rule="evenodd"/><path d="M69.61,76.33c-.47-.19-.94-.41-1.41-.61a2,2,0,0,0-.36-.09c.1.6.18,1.1.27,1.6a.39.39,0,0,0,.18.18l1.61.81a4.09,4.09,0,0,0,.42.16l-.16-1.21A.92.92,0,0,0,69.61,76.33Z" transform="translate(-15.3 -19.47)" fill="#047fae" fill-rule="evenodd"/><path d="M19.91,47.56,18.35,48c-.31.09-.61.21-1,.35a9.71,9.71,0,0,0,1.07.5,2.6,2.6,0,0,0,1.16.24,19.18,19.18,0,0,0,2.27-.71c.06,0,.11-.1.19-.17a9.39,9.39,0,0,1-1.14-.53A1.08,1.08,0,0,0,19.91,47.56Z" transform="translate(-15.3 -19.47)" fill="#f3b641" fill-rule="evenodd"/><path d="M81.71,53.68l-1.46.8-.94.5c.38.07.65.15.92.18.48,0,1,.31,1.46.06.76-.37,1.51-.75,2.26-1.14.07,0,.1-.13.15-.21-.68-.1-1.31-.2-1.94-.27A.86.86,0,0,0,81.71,53.68Z" transform="translate(-15.3 -19.47)" fill="#047fae" fill-rule="evenodd"/><path d="M33.57,73.15c-.32.13-.64.26-1,.42a.74.74,0,0,0-.34.36c-.21.69-.38,1.39-.58,2.16a6,6,0,0,0,.78-.25c.3-.16.74-.32.84-.58a15.13,15.13,0,0,0,.5-2.11A1,1,0,0,0,33.57,73.15Z" transform="translate(-15.3 -19.47)" fill="#334286" fill-rule="evenodd"/><path d="M43.29,78.26a2,2,0,0,0-.08-.32c-.33.59-.62,1.09-.91,1.59.22.9.43,1.8.64,2.7h.11c.23-.48.49-1,.69-1.43a1,1,0,0,0,0-.58C43.62,79.56,43.45,78.91,43.29,78.26Z" transform="translate(-15.3 -19.47)" fill="#f3b641" fill-rule="evenodd"/><path d="M78.88,43.32a10.61,10.61,0,0,0-1,1.07l-.44.47c1.77.4,2.66-.84,3.7-2-.52.07-1,.1-1.37.18A2.09,2.09,0,0,0,78.88,43.32Z" transform="translate(-15.3 -19.47)" fill="#4cae4d" fill-rule="evenodd"/><path d="M57.53,26.13c-.12.1-.21.15-.24.22-.17.34-.33.68-.47,1a1.34,1.34,0,0,0-.17.64c.12.61.3,1.21.46,1.81,0,.16.11.32.19.56a8,8,0,0,1,.51-.95A1.28,1.28,0,0,0,58,28.26C57.84,27.58,57.7,26.89,57.53,26.13Z" transform="translate(-15.3 -19.47)" fill="#f3b641" fill-rule="evenodd"/><path d="M20.65,64.18a1.59,1.59,0,0,1-.13.13l-1.11,1.06a.91.91,0,0,0,.07.14,6,6,0,0,0,2-.39,10,10,0,0,0,1.73-1.76,8.07,8.07,0,0,1-1.1.15A1.63,1.63,0,0,0,20.65,64.18Z" transform="translate(-15.3 -19.47)" fill="#4cae4d" fill-rule="evenodd"/><path d="M28.23,35.67a12.07,12.07,0,0,1,.55,1.25c.11.39.42.46.72.53.58.12,1.17.21,1.8.32l-.66-1.5Z" transform="translate(-15.3 -19.47)" fill="#334286" fill-rule="evenodd"/><path d="M77.77,55.81a11.53,11.53,0,0,0-2.35,1l.06.1c.26.06.52.1.77.18a1.6,1.6,0,0,0,1.49,0,4.45,4.45,0,0,1,.71-.3l1.18-.5A3.64,3.64,0,0,0,77.77,55.81Z" transform="translate(-15.3 -19.47)" fill="#047fae" fill-rule="evenodd"/><path d="M47.33,81.67a3.55,3.55,0,0,1,.21.44l.68,1.56c.16-.73.29-1.34.43-2-.34-.76-.7-1.54-1.06-2.33C47.43,80.13,46.83,80.84,47.33,81.67Z" transform="translate(-15.3 -19.47)" fill="#047fae" fill-rule="evenodd"/><path d="M52.81,26l-.49-1.11h-.11c-.13.58-.26,1.15-.37,1.73a.75.75,0,0,0,.08.38l.81,1.78a1.84,1.84,0,0,0,.21.25,12.16,12.16,0,0,0,.33-1.28,2.22,2.22,0,0,0-.07-.85A7.89,7.89,0,0,0,52.81,26Z" transform="translate(-15.3 -19.47)" fill="#047fae" fill-rule="evenodd"/><path d="M36.86,28.32c-.53-.38-1-.78-1.64-1.23.06.7.12,1.24.18,1.86l1.89,1.35.11-.11C37,29.62,37.53,28.82,36.86,28.32Z" transform="translate(-15.3 -19.47)" fill="#f3b641" fill-rule="evenodd"/><path d="M75.91,39.32a1.21,1.21,0,0,0-.66.35,15.36,15.36,0,0,0-1,1.37,1.78,1.78,0,0,0-.12.27l1.72-.19,1.41-1.82A4.16,4.16,0,0,0,75.91,39.32Z" transform="translate(-15.3 -19.47)" fill="#f3b641" fill-rule="evenodd"/><path d="M30.47,82.69l1.74,1.12c.09-.88.18-1.71.27-2.6-.53.21-1,.42-1.42.55S30.38,82.12,30.47,82.69Z" transform="translate(-15.3 -19.47)" fill="#334286" fill-rule="evenodd"/><path d="M23.33,56.15a7.71,7.71,0,0,0-1.61,1c-.18.12-.35.28-.57.46.53,0,1,0,1.4,0a1.24,1.24,0,0,0,1-.34A3.58,3.58,0,0,1,24,57l1.06-.7v-.15A5.6,5.6,0,0,0,23.33,56.15Z" transform="translate(-15.3 -19.47)" fill="#334286" fill-rule="evenodd"/><path d="M52.28,79.26c-.07.61-.12,1.13-.18,1.67.68,1.26,1.31,2.13,1.51,2.13a7.09,7.09,0,0,1,0-.8,1.94,1.94,0,0,0-.42-1.64A11.44,11.44,0,0,1,52.28,79.26Z" transform="translate(-15.3 -19.47)" fill="#334286" fill-rule="evenodd"/><path d="M71.08,37.92c-.06,0-.11.11-.14.18l-.62,1.24c-.08.15-.14.31-.23.5l1.47-.26a.25.25,0,0,0,.13-.12c.36-.61.71-1.22,1.06-1.83l-.06-.12Z" transform="translate(-15.3 -19.47)" fill="#047fae" fill-rule="evenodd"/><path d="M46.94,25.18l-.13,0c.18.72-.24,1.5.27,2.21.38.53.73,1.08,1.1,1.62l.12,0a4.89,4.89,0,0,0,0-1.67A14.26,14.26,0,0,0,46.94,25.18Z" transform="translate(-15.3 -19.47)" fill="#334286" fill-rule="evenodd"/><path d="M23.3,41.11l.41.5c.47.51.92,1,1.75.83a7.72,7.72,0,0,1,1.18-.1l.45-.05-1-1.18Z" transform="translate(-15.3 -19.47)" fill="#4cae4d" fill-rule="evenodd"/><path d="M28.75,68.92a10.3,10.3,0,0,0-1,1.92c.32-.08.54-.14.77-.18s.41,0,.52-.07a2.93,2.93,0,0,0,.64-.72c.25-.39.45-.82.67-1.23A2.47,2.47,0,0,0,28.75,68.92Z" transform="translate(-15.3 -19.47)" fill="#047fae" fill-rule="evenodd"/><path d="M66,74.7A10.35,10.35,0,0,1,64.63,74a1.88,1.88,0,0,0,.05.56c.16.4,0,.94.51,1.2.31.16.6.35.91.52s.5.22.79.35c0-.28-.1-.49-.13-.7C66.68,75.43,66.65,74.92,66,74.7Z" transform="translate(-15.3 -19.47)" fill="#047fae" fill-rule="evenodd"/><path d="M33.55,31.63A12.32,12.32,0,0,0,33.83,33a1.58,1.58,0,0,0,.43.54.9.9,0,0,0,.29.16l1.31.64c-.09-.52-.17-1-.26-1.54Z" transform="translate(-15.3 -19.47)" fill="#047fae" fill-rule="evenodd"/><path d="M71.89,66.2a.74.74,0,0,0-.4-.21c-.49,0-1,0-1.54,0-.07.1-.14.22-.22.35l.66.84,2.38.13a.91.91,0,0,0-.12-.33C72.41,66.7,72.15,66.44,71.89,66.2Z" transform="translate(-15.3 -19.47)" fill="#4cae4d" fill-rule="evenodd"/><path d="M22.41,62.53c.49,0,.95-.09,1.4-.1s.77-.43,1.11-.71.65-.6.95-.87C24.21,60.49,23.32,61.51,22.41,62.53Z" transform="translate(-15.3 -19.47)" fill="#4cae4d" fill-rule="evenodd"/><path d="M63.31,27.35a1.05,1.05,0,0,0-.25.11,9.21,9.21,0,0,0-.75.78,1.1,1.1,0,0,0-.32.57c0,.66,0,1.33,0,2,0,.1,0,.2.05.43a4.57,4.57,0,0,1,.57-.62,1.48,1.48,0,0,0,.66-1.53A14.14,14.14,0,0,1,63.31,27.35Z" transform="translate(-15.3 -19.47)" fill="#4cae4d" fill-rule="evenodd"/><path d="M68,27.13l.72-.28a7.84,7.84,0,0,0,1-.35,2.4,2.4,0,0,0,.45-.52l-1.89-1.29C68.14,25.53,68.06,26.3,68,27.13Z" transform="translate(-15.3 -19.47)" fill="#334286" fill-rule="evenodd"/><path d="M18.93,66.57a1.36,1.36,0,0,0-1.18.59l.66,1.42,2-2.19a1.34,1.34,0,0,0-.36,0A4.69,4.69,0,0,1,18.93,66.57Z" transform="translate(-15.3 -19.47)" fill="#4cae4d" fill-rule="evenodd"/><path d="M43.43,28.06C43,27.49,42.45,27,42,26.4a3.31,3.31,0,0,0,.11,1.67,10.65,10.65,0,0,0,1.48,1.78c0-.53,0-.94,0-1.35A.7.7,0,0,0,43.43,28.06Z" transform="translate(-15.3 -19.47)" fill="#4cae4d" fill-rule="evenodd"/><path d="M74.85,47.26c-.06.06-.1.15-.17.24h.91a1.39,1.39,0,0,0,1.15-.4c.41-.44.88-.83,1.3-1.23C76.65,45.6,75.72,46.36,74.85,47.26Z" transform="translate(-15.3 -19.47)" fill="#4cae4d" fill-rule="evenodd"/><path d="M37.63,73.88a2.32,2.32,0,0,0-.4.72c-.11.63-.13,1.27-.18,1.91a1.44,1.44,0,0,0,.08.26c.13-.1.21-.18.3-.24a1.89,1.89,0,0,0,1-2C38.32,74.12,38.22,73.92,37.63,73.88Z" transform="translate(-15.3 -19.47)" fill="#4cae4d" fill-rule="evenodd"/><path d="M38.22,29.36c.06.66.12,1.19.17,1.74l1.7,1.34c0-.55-.05-1-.07-1.56Z" transform="translate(-15.3 -19.47)" fill="#f3b641" fill-rule="evenodd"/><path d="M61.61,76.87a7.14,7.14,0,0,1-.62-.5c-.21-.15-.43-.28-.6-.39-.3,1.55.77,2.18,1.85,2.93a6.5,6.5,0,0,1-.08-.77A1.24,1.24,0,0,0,61.61,76.87Z" transform="translate(-15.3 -19.47)" fill="#f3b641" fill-rule="evenodd"/><path d="M76.43,60.62,75.05,61l-1,.23c.43.22.72.38,1,.51a1.79,1.79,0,0,0,.78.23,9.15,9.15,0,0,0,1.36-.29c.29-.07.57-.16.86-.24,0,0,0-.09,0-.14l-1.68-.7S76.45,60.61,76.43,60.62Z" transform="translate(-15.3 -19.47)" fill="#f3b641" fill-rule="evenodd"/><path d="M26.4,65c-.31.35-.6.72-1,1.19A12.23,12.23,0,0,0,26.8,66a1.27,1.27,0,0,0,.56-.34,3.84,3.84,0,0,0,.44-.54l.64-.85A2.07,2.07,0,0,0,26.4,65Z" transform="translate(-15.3 -19.47)" fill="#f3b641" fill-rule="evenodd"/><path d="M73.38,42.31l.81,0,.7-.08v.21l-1.3,1.54L72,44.06c.54-.66,1-1.24,1.41-1.75" transform="translate(-15.3 -19.47)" fill="#f3b641" fill-rule="evenodd"/><g clip-path="url(#clip-path)"><rect x="55.14" y="21.19" width="5.98" height="4.92" fill="#f3b641"/></g><path d="M62.88,32A1.75,1.75,0,0,0,62,33.66a.71.71,0,0,0,.49.68c.14,0,.36-.08.52-.18a.47.47,0,0,0,.19-.33c.05-.57.07-1.14.1-1.71V31.6C63.14,31.76,63,31.88,62.88,32Z" transform="translate(-15.3 -19.47)" fill="#4cae4d" fill-rule="evenodd"/><path d="M66.67,35.24l1.47-.67.58-2.33L67.15,33Z" transform="translate(-15.3 -19.47)" fill="#334286" fill-rule="evenodd"/><path d="M24.66,46.4a8.55,8.55,0,0,0-1.57.31,9.27,9.27,0,0,0-.9.26l1.61.81,2.48-.66c-.28-.16-.46-.28-.66-.37A2.44,2.44,0,0,0,24.66,46.4Z" transform="translate(-15.3 -19.47)" fill="#f3b641" fill-rule="evenodd"/><path d="M71.27,71.07a11.72,11.72,0,0,0-2.07-.46c.2.45.36.84.6,1.4l2.38.65A5.47,5.47,0,0,0,71.9,72C71.71,71.66,71.56,71.19,71.27,71.07Z" transform="translate(-15.3 -19.47)" fill="#334286" fill-rule="evenodd"/><path d="M39.26,23.69a1.88,1.88,0,0,0-.33-.2,6.16,6.16,0,0,0,.36,1.88,8.32,8.32,0,0,0,1.48,1.55s.09,0,.09,0C41.22,25.4,40.17,24.58,39.26,23.69Z" transform="translate(-15.3 -19.47)" fill="#4cae4d" fill-rule="evenodd"/><path d="M61.21,82.92l-1.67-1.55c0,.43.08.81.09,1.19a1.21,1.21,0,0,0,.39.92c.39.34.74.73,1.11,1.09l.38.36c-.08-.66-.15-1.2-.23-1.74A.51.51,0,0,0,61.21,82.92Z" transform="translate(-15.3 -19.47)" fill="#4cae4d" fill-rule="evenodd"/><path d="M30,41.22c-.75-.09-1.51-.13-2.3-.19a2,2,0,0,0,2.12,1.3l.4-.58C30.37,41.46,30.26,41.25,30,41.22Z" transform="translate(-15.3 -19.47)" fill="#4cae4d" fill-rule="evenodd"/><path d="M65,79.74a1.23,1.23,0,0,0-.33-.56,6,6,0,0,0-.81-.59l-.72-.49c.1.65.18,1.2.25,1.71l1.78,1.35c0-.17,0-.26,0-.35A9.53,9.53,0,0,0,65,79.74Z" transform="translate(-15.3 -19.47)" fill="#f3b641" fill-rule="evenodd"/><path d="M24.51,67.38l-1.18,1.53a.69.69,0,0,0-.09.22l.35,0a10.11,10.11,0,0,0,1.1-.19,1.1,1.1,0,0,0,.52-.3,2.69,2.69,0,0,0,.38-.55c.2-.28.39-.56.64-.93l-1.63.17S24.54,67.35,24.51,67.38Z" transform="translate(-15.3 -19.47)" fill="#f3b641" fill-rule="evenodd"/><path d="M57,78.61c-.45,1.55.69,2.3,1.48,3.22l.13,0a4.73,4.73,0,0,0-.23-1.63A8.87,8.87,0,0,0,57,78.61Z" transform="translate(-15.3 -19.47)" fill="#4cae4d" fill-rule="evenodd"/><path d="M78,73.84a3.57,3.57,0,0,0,1.18-1.78l-1.9-.13Z" transform="translate(-15.3 -19.47)" fill="#334286" fill-rule="evenodd"/><path d="M66.81,70.09c-.23.19-.44.41-.79.76l2.47.88c-.25-.52-.43-1-.66-1.37A.91.91,0,0,0,66.81,70.09Z" transform="translate(-15.3 -19.47)" fill="#334286" fill-rule="evenodd"/><path d="M75.75,51.91a1.38,1.38,0,0,0-.21.21c1.27.27,1.89.07,3.39-1.06a.5.5,0,0,0,.1-.16C77.67,50.4,76.73,51.23,75.75,51.91Z" transform="translate(-15.3 -19.47)" fill="#334286" fill-rule="evenodd"/><path d="M72.94,57.82v1l2.55-.8C75.17,57.52,73.84,57.39,72.94,57.82Z" transform="translate(-15.3 -19.47)" fill="#047fae" fill-rule="evenodd"/><path d="M72.76,49.14c.06.22.12.46.2.75,1-.19,1.49-1,2.3-1.48A2.49,2.49,0,0,0,72.76,49.14Z" transform="translate(-15.3 -19.47)" fill="#4cae4d" fill-rule="evenodd"/><path d="M46.17,76.94l-.34-.1c0,.13-.16.27-.13.37.23.75.48,1.49.72,2.23h.1A13.6,13.6,0,0,0,47,77.93.94.94,0,0,0,46.17,76.94Z" transform="translate(-15.3 -19.47)" fill="#047fae" fill-rule="evenodd"/><path d="M50.13,77.62l1.16,2.08c.08-.62.15-1.13.21-1.64-.13-.24-.25-.48-.39-.7S50.19,77.22,50.13,77.62Z" transform="translate(-15.3 -19.47)" fill="#334286" fill-rule="evenodd"/><path d="M15.32,50.8,17.56,50l-2-.87C15.46,49.67,15.39,50.2,15.32,50.8Z" transform="translate(-15.3 -19.47)" fill="#f3b641" fill-rule="evenodd"/><path d="M16,61.52c.15.51.27.92.4,1.38l1.78-1.49,0-.09Z" transform="translate(-15.3 -19.47)" fill="#334286" fill-rule="evenodd"/><path d="M25.3,59.91l.08.13c.65-.24,1.48.25,2-.58-.09-.31-.17-.61-.28-1Z" transform="translate(-15.3 -19.47)" fill="#4cae4d" fill-rule="evenodd"/><path d="M32.7,72.39c1.15-.4,1.36-.55,1.64-1.16l-1-.89C33.15,71,32.93,71.67,32.7,72.39Z" transform="translate(-15.3 -19.47)" fill="#334286" fill-rule="evenodd"/><path d="M80.05,42l2.12-.38-.54-1.41Z" transform="translate(-15.3 -19.47)" fill="#4cae4d" fill-rule="evenodd"/><path d="M62.43,84.11l.34,2,1.39-.55-1.64-1.5Z" transform="translate(-15.3 -19.47)" fill="#4cae4d" fill-rule="evenodd"/><path d="M37.7,22.66c0-.34-.11-.76-.48-.74a4.74,4.74,0,0,0-1.31.47l2,1.86a3.88,3.88,0,0,0,0-.42C37.84,23.44,37.74,23.06,37.7,22.66Z" transform="translate(-15.3 -19.47)" fill="#4cae4d" fill-rule="evenodd"/><path d="M44.47,30.54c0,.25.21.63.39.67A3.22,3.22,0,0,0,46,31.07l-1.5-1.87A9.56,9.56,0,0,0,44.47,30.54Z" transform="translate(-15.3 -19.47)" fill="#4cae4d" fill-rule="evenodd"/><path d="M41.61,75.66c.14.82.26,1.52.39,2.21h.12a9.39,9.39,0,0,0,.57-1c.09-.22.18-.63.09-.69A6.73,6.73,0,0,0,41.61,75.66Z" transform="translate(-15.3 -19.47)" fill="#f3b641" fill-rule="evenodd"/><path d="M26.73,55.13v-1l-2,1.06A2,2,0,0,0,26.73,55.13Z" transform="translate(-15.3 -19.47)" fill="#334286" fill-rule="evenodd"/><path d="M49.12,28.84A10.85,10.85,0,0,0,49,30.23a.59.59,0,0,0,.31.46,4.72,4.72,0,0,0,1,0l-1.09-1.92Z" transform="translate(-15.3 -19.47)" fill="#334286" fill-rule="evenodd"/><path d="M62.79,73.4c-.2.15-.42.27-.72.46L63.76,75c-.1-.52-.18-.91-.26-1.31S63.12,73.13,62.79,73.4Z" transform="translate(-15.3 -19.47)" fill="#047fae" fill-rule="evenodd"/><path d="M32.09,36.86A11.89,11.89,0,0,0,32.61,38a.36.36,0,0,0,.32.1c.3-.23.58-.5,1-.83l-1.77-.61S32.06,36.8,32.09,36.86Z" transform="translate(-15.3 -19.47)" fill="#334286" fill-rule="evenodd"/><path d="M55.37,76.83a.73.73,0,0,0-.55,0c-.08,0-.19.22-.17.31a2.07,2.07,0,0,0,.3.66c.27.38.59.75.88,1.13l.11-.06a4.81,4.81,0,0,1,0-.76A1.29,1.29,0,0,0,55.37,76.83Z" transform="translate(-15.3 -19.47)" fill="#4cae4d" fill-rule="evenodd"/><path d="M54.49,21.58c.27-.68.48-1.22.7-1.79l-1.45-.15C54,20.29,54.22,20.87,54.49,21.58Z" transform="translate(-15.3 -19.47)" fill="#f3b641" fill-rule="evenodd"/><path d="M73.31,53.51v.64c.92.11,1.47-.67,2.25-.89A1.87,1.87,0,0,0,73.31,53.51Z" transform="translate(-15.3 -19.47)" fill="#334286" fill-rule="evenodd"/><path d="M58.37,30.43c-.28.48-.55,1-.87,1.5l1.29.53c-.12-.75-.21-1.37-.3-2Z" transform="translate(-15.3 -19.47)" fill="#f3b641" fill-rule="evenodd"/><path d="M66.27,36.69A1.36,1.36,0,0,0,67.08,38c.2-.61.4-1.23.59-1.85l-.09-.09Z" transform="translate(-15.3 -19.47)" fill="#334286" fill-rule="evenodd"/><path d="M69.72,41.64l.35.54L71,40.69c-.61.14-1.17,0-1.6.42Z" transform="translate(-15.3 -19.47)" fill="#047fae" fill-rule="evenodd"/><path d="M73,61.77c-.28-.08-.69-.21-.85-.08a3.18,3.18,0,0,0-.52,1c.5-.06.86-.09,1.21-.15s.7-.12,1.13-.2a3.76,3.76,0,0,0-1-.58Z" transform="translate(-15.3 -19.47)" fill="#f3b641" fill-rule="evenodd"/><path d="M53.89,29.07c-.11.51-.23,1-.32,1.55a.38.38,0,0,0,.16.32c.31.11.64.17,1.08.29l-.75-2.16Z" transform="translate(-15.3 -19.47)" fill="#047fae" fill-rule="evenodd"/><path d="M26.5,46.09l1.31.75c.13-.36.27-.72.45-1.19-.64.11-1.14.18-1.63.28C26.57,45.94,26.53,46.05,26.5,46.09Z" transform="translate(-15.3 -19.47)" fill="#f3b641" fill-rule="evenodd"/><path d="M45.34,88.36l1.28.12c-.21-.56-.39-1.06-.62-1.7C45.75,87.36,45.56,87.82,45.34,88.36Z" transform="translate(-15.3 -19.47)" fill="#f3b641" fill-rule="evenodd"/><path d="M25,50.45l1.73.54c.13-.44.23-.81.38-1.33l-2.09.7S25,50.42,25,50.45Z" transform="translate(-15.3 -19.47)" fill="#047fae" fill-rule="evenodd"/><path d="M41.61,20.47,43,22.06l.09,0c-.07-.62-.15-1.23-.23-1.88Z" transform="translate(-15.3 -19.47)" fill="#334286" fill-rule="evenodd"/><path d="M57.54,87.78l1-.31c-.42-.46-.79-.88-1.2-1.35C57.44,86.74,57.49,87.25,57.54,87.78Z" transform="translate(-15.3 -19.47)" fill="#334286" fill-rule="evenodd"/><path d="M29.45,67.7,31,67.38l-.76-1C30,66.86,29.73,67.23,29.45,67.7Z" transform="translate(-15.3 -19.47)" fill="#047fae" fill-rule="evenodd"/><path d="M82.18,47c.42,0,.73,0,1,0,.15,0,.42-.12.42-.18a4.92,4.92,0,0,0-.11-.87Z" transform="translate(-15.3 -19.47)" fill="#334286" fill-rule="evenodd"/><path d="M58.4,75.7l1.19,1c-.06-.54-.11-1-.17-1.51Z" transform="translate(-15.3 -19.47)" fill="#f3b641" fill-rule="evenodd"/><path d="M83,58.48l1.12.45.25-1.06L83,58.36Z" transform="translate(-15.3 -19.47)" fill="#f3b641" fill-rule="evenodd"/><path d="M36.73,33.52c.07.4.14.76.22,1.18l.88-.56L37,33.56Z" transform="translate(-15.3 -19.47)" fill="#047fae" fill-rule="evenodd"/><path d="M16.86,43.54,18,43.26l-.85-.81C17,42.84,17,43.17,16.86,43.54Z" transform="translate(-15.3 -19.47)" fill="#4cae4d" fill-rule="evenodd"/><path d="M15.48,55.61a.21.21,0,0,0-.17.12c0,.28,0,.56,0,1l1.42-.84c0-.05-.05-.09-.07-.09C16.27,55.7,15.88,55.64,15.48,55.61Z" transform="translate(-15.3 -19.47)" fill="#047fae" fill-rule="evenodd"/><path d="M27.73,63.43l.07.11.91-.16c-.1-.24-.16-.41-.28-.71Z" transform="translate(-15.3 -19.47)" fill="#f3b641" fill-rule="evenodd"/><path d="M48.59,20.71l.09-.06V19.47l-.83.1Z" transform="translate(-15.3 -19.47)" fill="#047fae" fill-rule="evenodd"/><path d="M71.59,45.15l.27.68.8-.9c-.28,0-.45,0-.61,0A3.61,3.61,0,0,0,71.59,45.15Z" transform="translate(-15.3 -19.47)" fill="#f3b641" fill-rule="evenodd"/><path d="M40.94,31.76c0,.26.06.52.09.84l.54-.32-.49-.56Z" transform="translate(-15.3 -19.47)" fill="#f3b641" fill-rule="evenodd"/><path d="M61.19,22l.43-.49-.71-.25Z" transform="translate(-15.3 -19.47)" fill="#4cae4d" fill-rule="evenodd"/><path d="M38.87,86.86l.55.16c0-.24,0-.42-.07-.71Z" transform="translate(-15.3 -19.47)" fill="#4cae4d" fill-rule="evenodd"/><path d="M83.69,52.51v.08h.77c-.07-.18-.12-.28-.17-.4Z" transform="translate(-15.3 -19.47)" fill="#047fae" fill-rule="evenodd"/><path d="M48,86.38l-.56-1.23c-.17-.39-.36-.77-.52-1.16s-.33-.88-.5-1.31c-.26-.7-.54-1.39-.79-2.09-.18-.5-.35-1-.51-1.53s-.41-1.22-.56-1.84a1.05,1.05,0,0,0-1.16-.79,68.93,68.93,0,0,0,3.94,12l1.6.13a4,4,0,0,0-.17-.52C48.53,87.45,48.26,86.92,48,86.38Z" transform="translate(-15.3 -19.47)" fill="#047fae" fill-rule="evenodd"/><path d="M23.32,51.21a13.12,13.12,0,0,0-2.13.81c0,.06,0,.12,0,.17a4.42,4.42,0,0,0,1.53.23,12.45,12.45,0,0,0,2.05-.84A2.91,2.91,0,0,0,23.32,51.21Z" transform="translate(-15.3 -19.47)" fill="#047fae" fill-rule="evenodd"/><path d="M51.8,88.38l.58.11-.51-.85C51.84,87.93,51.82,88.12,51.8,88.38Z" transform="translate(-15.3 -19.47)" fill="#047fae" fill-rule="evenodd"/><path d="M102.38,39.27a.19.19,0,0,1-.14.21l-.67.22-.77.26a6.42,6.42,0,0,1-2.3.36c-3,0-4.8-2.17-4.8-5.64S95.51,29,98.5,29a6.65,6.65,0,0,1,2.3.38l.72.25c.11,0,.16.12.11.22l-.44,1.17a.16.16,0,0,1-.22.11l-.69-.23a4.93,4.93,0,0,0-1.78-.28c-1.88,0-3,1.5-3,4s1.11,4,3,4a5.16,5.16,0,0,0,1.74-.25l.44-.14V35.94h-1.9c-.13,0-.19-.08-.16-.19L99,34.5a.19.19,0,0,1,.2-.15h3a.16.16,0,0,1,.17.18Z" transform="translate(-15.3 -19.47)" fill="#fff"/><path d="M106.35,38.32c0,.27.11.42.31.42h.11c.11,0,.17,0,.22.1l.47,1.11a.15.15,0,0,1-.08.23,1.78,1.78,0,0,1-.72.14,1.85,1.85,0,0,1-2-2V29.09a.15.15,0,0,1,.17-.17h1.4a.15.15,0,0,1,.17.17Z" transform="translate(-15.3 -19.47)" fill="#fff"/><path d="M115.83,36.34c0,2.45-1.38,4-3.6,4s-3.62-1.53-3.62-4,1.37-3.94,3.62-3.94S115.83,33.93,115.83,36.34Zm-5.5,0c0,1.51.71,2.4,1.9,2.4s1.88-.89,1.88-2.4S113.39,34,112.23,34,110.33,34.86,110.33,36.34Z" transform="translate(-15.3 -19.47)" fill="#fff"/><path d="M119.45,31.38a4.65,4.65,0,0,1-.25,1.75c-.08.22.06.33.25.16a2.58,2.58,0,0,1,2.07-.89c2,0,3.29,1.52,3.29,3.94s-1.36,4-3.62,4a4.8,4.8,0,0,1-2-.39l-1.38-.56a.23.23,0,0,1-.14-.21V29.09a.15.15,0,0,1,.17-.17h1.4a.15.15,0,0,1,.17.17Zm.45,7.1a3.4,3.4,0,0,0,1.29.26c1.19,0,1.9-.89,1.9-2.4S122.4,34,121.27,34s-1.83,1-1.83,2.34v2Z" transform="translate(-15.3 -19.47)" fill="#fff"/><path d="M127.65,32.63a5.68,5.68,0,0,1,1.7-.23c2.12,0,3.42,1.09,3.42,3V40a.15.15,0,0,1-.17.17h-.79a.18.18,0,0,1-.2-.14l-.12-.48c-.1-.22-.19-.22-.4,0a2.72,2.72,0,0,1-2.14.83c-1.74,0-2.71-.89-2.71-2.36s1-2.42,2.85-2.42h2v-.09c0-1-.61-1.47-1.77-1.47a4.32,4.32,0,0,0-1.23.15l-.56.18a.17.17,0,0,1-.22-.13L126.93,33a.16.16,0,0,1,.12-.22Zm1.44,4.28c-.77,0-1.13.36-1.13.89s.42,1,1.17,1c1.24,0,1.92-.61,1.92-1.77v-.11Z" transform="translate(-15.3 -19.47)" fill="#fff"/><path d="M136.66,38.32c0,.27.11.42.31.42h.11c.11,0,.17,0,.22.1l.47,1.11a.16.16,0,0,1-.08.23,1.78,1.78,0,0,1-.72.14,1.85,1.85,0,0,1-2.05-2V29.09a.15.15,0,0,1,.17-.17h1.39a.16.16,0,0,1,.18.17Z" transform="translate(-15.3 -19.47)" fill="#fff"/><path d="M98.28,43c2.38,0,3.78,1.3,3.78,3.47s-1.59,3.62-4.49,3.62H95.88v3.69a.15.15,0,0,1-.17.17H94.28a.15.15,0,0,1-.17-.17V43.16a.15.15,0,0,1,.17-.17Zm-2.4,5.53h1.69c1.76,0,2.68-.74,2.68-2.06a1.77,1.77,0,0,0-2-1.89h-2.4Z" transform="translate(-15.3 -19.47)" fill="#fff"/><path d="M104.78,46.42a5.79,5.79,0,0,1,1.71-.24c2.12,0,3.42,1.1,3.42,3v4.59a.16.16,0,0,1-.18.17H109a.19.19,0,0,1-.2-.14l-.13-.49c-.09-.22-.19-.22-.39,0a2.78,2.78,0,0,1-2.15.83c-1.74,0-2.71-.89-2.71-2.36s1-2.42,2.85-2.42h2v-.09c0-1-.61-1.47-1.77-1.47a4.3,4.3,0,0,0-1.22.15l-.56.17a.16.16,0,0,1-.22-.12l-.35-1.16a.17.17,0,0,1,.13-.22Zm1.44,4.28c-.76,0-1.12.36-1.12.89s.42,1,1.17,1c1.24,0,1.91-.61,1.91-1.77V50.7Z" transform="translate(-15.3 -19.47)" fill="#fff"/><path d="M116.43,47.58a.16.16,0,0,1-.18.17c-1.7.08-2.46,1.27-2.46,4.15v1.87a.15.15,0,0,1-.17.17h-1.39a.16.16,0,0,1-.18-.17V46.51a.16.16,0,0,1,.18-.17H113a.19.19,0,0,1,.2.14l.25.89c.1.18.18.21.32.05a2.91,2.91,0,0,1,2.47-1.24.17.17,0,0,1,.18.18Z" transform="translate(-15.3 -19.47)" fill="#fff"/><path d="M122.43,46.34a.15.15,0,0,1,.17.17v1.21a.15.15,0,0,1-.17.17h-1.76V51.7c0,.53.24.83.61.83a1.31,1.31,0,0,0,.41-.06.16.16,0,0,1,.24.08l.5,1.06c0,.09,0,.17-.08.24a2.41,2.41,0,0,1-1.07.26,2.18,2.18,0,0,1-2.35-2.41V47.89h-.76a.16.16,0,0,1-.18-.17V46.51a.16.16,0,0,1,.18-.17h.76v-1.8a.18.18,0,0,1,.14-.19l1.4-.47c.12,0,.2,0,.2.14v2.32Z" transform="translate(-15.3 -19.47)" fill="#fff"/><path d="M125.78,47.12c.1.19.19.18.36,0a2.82,2.82,0,0,1,2.16-1,2.69,2.69,0,0,1,2.87,3v4.63a.15.15,0,0,1-.17.17h-1.39a.16.16,0,0,1-.18-.17V49.33c0-1-.51-1.58-1.36-1.58-1.16,0-1.83.85-1.83,2.37v3.65a.16.16,0,0,1-.18.17h-1.39a.15.15,0,0,1-.17-.17V46.51a.15.15,0,0,1,.17-.17h.78a.17.17,0,0,1,.19.16Z" transform="translate(-15.3 -19.47)" fill="#fff"/><path d="M138.27,53.91a6.61,6.61,0,0,1-1.6.2c-2.36,0-3.7-1.53-3.7-4s1.35-4,3.64-4c1.88,0,3,.94,3,2.49,0,1.21-.73,1.9-2.3,2.14l-2.46.37a1.66,1.66,0,0,0,1.79,1.35,4.24,4.24,0,0,0,1.24-.16l.69-.17a.16.16,0,0,1,.21.13l.32,1.17a.17.17,0,0,1-.13.22Zm-1.21-4.45c.55-.1.85-.35.85-.75,0-.63-.48-1-1.33-1-1,0-1.74.64-1.87,2.08Z" transform="translate(-15.3 -19.47)" fill="#fff"/><path d="M145.89,47.58a.16.16,0,0,1-.18.17c-1.7.08-2.46,1.27-2.46,4.15v1.87a.15.15,0,0,1-.17.17h-1.39a.15.15,0,0,1-.17-.17V46.51a.15.15,0,0,1,.17-.17h.78a.19.19,0,0,1,.2.14l.26.89c.09.18.17.21.31.05a2.91,2.91,0,0,1,2.47-1.24.17.17,0,0,1,.18.18Z" transform="translate(-15.3 -19.47)" fill="#fff"/><path d="M149.51,50.57c-1.3-.33-1.91-1-1.91-2.13,0-1.41,1.05-2.26,2.86-2.26a7.9,7.9,0,0,1,1.95.25l.69.18a.16.16,0,0,1,.12.22L152.89,48a.17.17,0,0,1-.22.13l-.69-.19a5.81,5.81,0,0,0-1.52-.19c-.72,0-1.14.27-1.14.69s.22.58.7.72l1.57.41c1.36.34,2,1,2,2.18,0,1.47-1.1,2.36-2.95,2.36a8.75,8.75,0,0,1-2.4-.33l-.61-.17a.16.16,0,0,1-.12-.22l.36-1.17a.15.15,0,0,1,.2-.11l.56.15a7.83,7.83,0,0,0,2,.27c.77,0,1.21-.3,1.21-.78s-.22-.62-.74-.77Z" transform="translate(-15.3 -19.47)" fill="#fff"/><path d="M157.12,45.16a5.44,5.44,0,0,1-.25,1.79c-.06.17,0,.28.22.14a2.87,2.87,0,0,1,5,2v4.63a.15.15,0,0,1-.17.17h-1.4a.15.15,0,0,1-.17-.17V49.33c0-1-.52-1.58-1.36-1.58-1.27,0-1.82,1-1.84,2.37v3.65a.15.15,0,0,1-.17.17h-1.39a.16.16,0,0,1-.18-.17V42.88a.17.17,0,0,1,.18-.18H157a.16.16,0,0,1,.17.18Z" transform="translate(-15.3 -19.47)" fill="#fff"/><path d="M166.46,53.77a.15.15,0,0,1-.17.17H164.9a.16.16,0,0,1-.18-.17V47.89H164a.16.16,0,0,1-.18-.17V46.51a.16.16,0,0,1,.18-.17h2.33a.15.15,0,0,1,.17.17Zm0-10.14a1,1,0,0,1-1,1.06,1.06,1.06,0,0,1,0-2.11A1,1,0,0,1,166.45,43.63Z" transform="translate(-15.3 -19.47)" fill="#fff"/><path d="M170,47.14c.06.17.18.16.29,0a2.78,2.78,0,0,1,2.2-1c2.05,0,3.29,1.52,3.29,4s-1.32,4-3.51,4a3.16,3.16,0,0,1-1.43-.3l-.42-.18v3.51a.15.15,0,0,1-.17.17h-1.4a.15.15,0,0,1-.17-.17V46.51a.15.15,0,0,1,.17-.17h.79c.11,0,.17,0,.18.14Zm.87,5.12a2.87,2.87,0,0,0,1.29.27c1.21,0,1.9-.89,1.9-2.4s-.69-2.38-1.85-2.38-1.81,1-1.81,2.33v2Z" transform="translate(-15.3 -19.47)" fill="#fff"/><path d="M94.44,59.66a1.9,1.9,0,0,1,2-2.15,1.79,1.79,0,0,1,.76.16l.22.08a.11.11,0,0,1,.07.16l-.21.57a.11.11,0,0,1-.16.07l-.18-.07a1.21,1.21,0,0,0-.5-.1c-.66,0-1,.48-1,1.28V60.9H97c.09,0,.13,0,.13.13v.58c0,.09,0,.13-.13.13H95.37V67.6a.12.12,0,0,1-.13.13h-.67a.12.12,0,0,1-.13-.13V61.74h-.65c-.09,0-.13,0-.13-.13V61c0-.09,0-.13.13-.13h.65Z" transform="translate(-15.3 -19.47)" fill="#fff"/><path d="M105,64.31c0,2.19-1.18,3.56-3.1,3.56s-3.11-1.37-3.11-3.56,1.18-3.55,3.11-3.55S105,62.13,105,64.31Zm-5.28,0c0,1.69.81,2.71,2.18,2.71s2.19-1,2.19-2.71-.82-2.7-2.19-2.7S99.69,62.63,99.69,64.31Z" transform="translate(-15.3 -19.47)" fill="#fff"/><path d="M110.83,61.49c0,.08,0,.12-.13.12-1.52.07-2.39,1.36-2.39,3.77V67.6a.12.12,0,0,1-.13.13h-.67a.12.12,0,0,1-.13-.13V61c0-.09,0-.13.13-.13H108c.09,0,.13,0,.14.13l.1,1.07c0,.11.12.14.19,0a2.65,2.65,0,0,1,2.32-1.37c.09,0,.13,0,.13.13Z" transform="translate(-15.3 -19.47)" fill="#fff"/><path d="M118.94,62.81c-1.57-.58-2.13-1.35-2.13-2.55,0-1.57,1.22-2.49,3.1-2.49a7,7,0,0,1,2.15.35l.71.23a.12.12,0,0,1,.09.17l-.2.59a.11.11,0,0,1-.16.07l-.68-.22a6.11,6.11,0,0,0-1.91-.3c-1.28,0-2.14.62-2.14,1.6,0,.65.3,1.27,1.54,1.72l2,.75c1.34.49,2.15,1.16,2.15,2.46,0,1.7-1.44,2.68-3.44,2.68a7.54,7.54,0,0,1-2.68-.48l-.57-.22c-.07,0-.1-.08-.07-.15l.22-.59c0-.08.08-.11.15-.08l.57.21A6.75,6.75,0,0,0,120,67c1.34,0,2.47-.64,2.47-1.8,0-.84-.73-1.32-1.54-1.64Z" transform="translate(-15.3 -19.47)" fill="#fff"/><path d="M130.89,66.73c0-.13-.12-.13-.21,0a2.62,2.62,0,0,1-2.28,1.15,2.44,2.44,0,0,1-2.52-2.76V61c0-.09,0-.13.13-.13h.67c.08,0,.12,0,.12.13v4c0,1.24.63,2,1.69,2,1.41,0,2.23-1.06,2.23-2.87V61a.12.12,0,0,1,.13-.13h.67c.09,0,.13,0,.13.13V67.6a.12.12,0,0,1-.13.13h-.44a.12.12,0,0,1-.13-.13Z" transform="translate(-15.3 -19.47)" fill="#fff"/><path d="M135.77,64.38c-1.06-.27-1.54-.83-1.54-1.77,0-1.15.9-1.85,2.44-1.85a6,6,0,0,1,1.66.21l.56.17a.13.13,0,0,1,.08.18l-.15.55a.12.12,0,0,1-.17.09l-.54-.16a5.21,5.21,0,0,0-1.43-.19c-1,0-1.53.4-1.53,1s.28.81.92,1l1.65.47c1.11.28,1.6.88,1.6,1.81,0,1.24-1,2-2.6,2a6.15,6.15,0,0,1-2.15-.33l-.38-.13c-.09,0-.12-.08-.09-.17l.2-.57a.11.11,0,0,1,.16-.07l.37.13a5.82,5.82,0,0,0,1.89.29c1.06,0,1.67-.43,1.67-1.13,0-.53-.3-.84-.95-1Z" transform="translate(-15.3 -19.47)" fill="#fff"/><path d="M144.5,60.9c.09,0,.13,0,.13.13v.58c0,.09,0,.13-.13.13h-1.58v4.32c0,.61.27,1,.76,1a1.07,1.07,0,0,0,.37-.08c.07,0,.13,0,.17.08l.24.52a.12.12,0,0,1-.06.17,1.69,1.69,0,0,1-.72.16A1.6,1.6,0,0,1,142,66.08V61.74h-.65c-.09,0-.13,0-.13-.13V61c0-.09,0-.13.13-.13H142V59.19a.12.12,0,0,1,.11-.14l.68-.23c.08,0,.14,0,.14.11v2Z" transform="translate(-15.3 -19.47)" fill="#fff"/><path d="M147.57,61a5.06,5.06,0,0,1,1.52-.21,2.58,2.58,0,0,1,2.82,2.76V67.6a.12.12,0,0,1-.13.13h-.44a.13.13,0,0,1-.14-.13l0-.64c0-.19-.14-.17-.29,0a2.65,2.65,0,0,1-2.26.93,2,2,0,0,1-2.28-2.05c0-1.24.87-2.08,2.5-2.1H151v-.18a1.74,1.74,0,0,0-1.91-1.91,4.18,4.18,0,0,0-1.3.17l-.5.14a.12.12,0,0,1-.17-.08L147,61.3c0-.09,0-.14.09-.17Zm1.26,3.55c-1.08,0-1.58.5-1.58,1.24s.52,1.27,1.43,1.27A2.1,2.1,0,0,0,151,64.71v-.19Z" transform="translate(-15.3 -19.47)" fill="#fff"/><path d="M155.82,67.6a.12.12,0,0,1-.13.13H155a.12.12,0,0,1-.13-.13V61.74h-.65c-.09,0-.13,0-.13-.13V61c0-.09,0-.13.13-.13h1.45a.12.12,0,0,1,.13.13Zm0-9.39a.62.62,0,0,1-1.24,0,.62.62,0,1,1,1.24,0Z" transform="translate(-15.3 -19.47)" fill="#fff"/><path d="M159.37,61.9c0,.13.12.13.21,0a2.62,2.62,0,0,1,2.28-1.15,2.44,2.44,0,0,1,2.52,2.76V67.6a.12.12,0,0,1-.13.13h-.67c-.08,0-.12,0-.12-.13v-4c0-1.24-.63-2-1.69-2-1.41,0-2.23,1.06-2.23,2.87V67.6a.12.12,0,0,1-.13.13h-.67a.12.12,0,0,1-.13-.13V61c0-.09,0-.13.13-.13h.44c.09,0,.13,0,.13.13Z" transform="translate(-15.3 -19.47)" fill="#fff"/><path d="M167.87,61a5.18,5.18,0,0,1,1.53-.21,2.58,2.58,0,0,1,2.82,2.76V67.6a.12.12,0,0,1-.13.13h-.44a.13.13,0,0,1-.14-.13l0-.64c0-.19-.14-.17-.28,0a2.67,2.67,0,0,1-2.27.93,2,2,0,0,1-2.28-2.05c0-1.24.87-2.08,2.51-2.1h2.15v-.18a1.73,1.73,0,0,0-1.91-1.91,4.07,4.07,0,0,0-1.29.17l-.5.14c-.09,0-.15,0-.17-.08l-.16-.56c0-.09,0-.14.09-.17Zm1.27,3.55c-1.08,0-1.58.5-1.58,1.24S168.07,67,169,67a2.1,2.1,0,0,0,2.31-2.32v-.19Z" transform="translate(-15.3 -19.47)" fill="#fff"/><path d="M175.81,60.4a7.6,7.6,0,0,1-.11,1.44c0,.16.07.22.17.07A2.48,2.48,0,0,1,178,60.76c1.83,0,2.91,1.35,2.91,3.55s-1.17,3.56-3.11,3.56A4.44,4.44,0,0,1,176,67.5l-1-.44a.14.14,0,0,1-.1-.15V57.78a.12.12,0,0,1,.13-.13h.67c.09,0,.13,0,.13.13Zm.57,6.32a3.82,3.82,0,0,0,1.45.3c1.37,0,2.18-1,2.18-2.71s-.77-2.7-2.06-2.7-2.15,1.24-2.15,2.85v2Z" transform="translate(-15.3 -19.47)" fill="#fff"/><path d="M184.26,66.5c0,.32.13.52.37.52a.3.3,0,0,0,.13,0,.11.11,0,0,1,.16.07l.24.56a.12.12,0,0,1-.07.17,1.77,1.77,0,0,1-.46.07,1.22,1.22,0,0,1-1.3-1.37V57.78a.12.12,0,0,1,.13-.13h.67c.09,0,.13,0,.13.13Z" transform="translate(-15.3 -19.47)" fill="#fff"/><path d="M191.61,67.66a5.21,5.21,0,0,1-1.54.21c-2,0-3.13-1.37-3.13-3.56s1.18-3.55,3.12-3.55c1.61,0,2.58.78,2.58,2.11,0,1-.63,1.58-1.91,1.79l-2.78.46a2,2,0,0,0,2.12,1.9,4.27,4.27,0,0,0,1.33-.19l.43-.13a.15.15,0,0,1,.17.1l.17.57c0,.09,0,.14-.1.16Zm-1-3.78c.76-.13,1.14-.46,1.14-1,0-.8-.61-1.27-1.66-1.27-1.33,0-2.13.9-2.17,2.73Z" transform="translate(-15.3 -19.47)" fill="#fff"/><path d="M97.44,71.71c2.56,0,4.11,1.87,4.11,4.9s-1.56,4.91-4.11,4.91H94.29a.12.12,0,0,1-.13-.13V71.84c0-.09,0-.13.13-.13Zm-2.34,9h2.34c2,0,3.16-1.51,3.16-4s-1.17-4-3.16-4H95.1Z" transform="translate(-15.3 -19.47)" fill="#fff"/><path d="M108.32,81.44a4.91,4.91,0,0,1-1.54.22c-2,0-3.13-1.37-3.13-3.56s1.18-3.55,3.12-3.55c1.61,0,2.58.78,2.58,2.11,0,1-.63,1.58-1.91,1.79l-2.78.46a2,2,0,0,0,2.12,1.89,4.28,4.28,0,0,0,1.33-.18l.43-.13a.14.14,0,0,1,.17.1l.17.57c0,.09,0,.14-.1.16Zm-1-3.77c.76-.13,1.14-.46,1.14-1,0-.8-.61-1.27-1.67-1.27-1.32,0-2.12.9-2.16,2.72Z" transform="translate(-15.3 -19.47)" fill="#fff"/><path d="M115.66,79a22.18,22.18,0,0,0-.85,2.43.13.13,0,0,1-.15.12h-.77a.13.13,0,0,1-.14-.12A17.27,17.27,0,0,0,112.9,79L111,74.85c0-.1,0-.16.1-.16h.72a.14.14,0,0,1,.14.1l1.61,3.58a11.31,11.31,0,0,1,.57,1.71c0,.12.16.12.2,0a9,9,0,0,1,.57-1.71l1.61-3.58a.14.14,0,0,1,.14-.1h.71c.1,0,.15.06.1.16Z" transform="translate(-15.3 -19.47)" fill="#fff"/><path d="M123.9,81.44a5,5,0,0,1-1.54.22c-2,0-3.14-1.37-3.14-3.56s1.19-3.55,3.13-3.55c1.61,0,2.57.78,2.57,2.11,0,1-.62,1.58-1.9,1.79l-2.78.46a2,2,0,0,0,2.12,1.89,4.32,4.32,0,0,0,1.33-.18l.42-.13c.09,0,.15,0,.17.1l.17.57c0,.09,0,.14-.09.16Zm-1-3.77c.75-.13,1.14-.46,1.14-1,0-.8-.61-1.27-1.67-1.27-1.32,0-2.12.9-2.17,2.72Z" transform="translate(-15.3 -19.47)" fill="#fff"/><path d="M128.24,80.29c0,.31.13.51.37.51h.13a.11.11,0,0,1,.16.07l.24.56a.12.12,0,0,1-.07.17,1.7,1.7,0,0,1-.46.07,1.22,1.22,0,0,1-1.29-1.37V71.57c0-.09,0-.13.13-.13h.67c.08,0,.12,0,.12.13Z" transform="translate(-15.3 -19.47)" fill="#fff"/><path d="M137.14,78.1c0,2.19-1.19,3.56-3.11,3.56s-3.11-1.37-3.11-3.56,1.19-3.55,3.11-3.55S137.14,75.91,137.14,78.1Zm-5.29,0c0,1.69.81,2.7,2.18,2.7s2.19-1,2.19-2.7-.82-2.7-2.19-2.7S131.85,76.41,131.85,78.1Z" transform="translate(-15.3 -19.47)" fill="#fff"/><path d="M140.31,75.67c0,.13.12.15.2,0a2.54,2.54,0,0,1,2.18-1.14c1.83,0,2.91,1.35,2.91,3.55s-1.14,3.56-3.08,3.56a3.57,3.57,0,0,1-1.62-.34l-.43-.2V84.4c0,.08,0,.12-.13.12h-.67c-.08,0-.13,0-.13-.12V74.82a.12.12,0,0,1,.13-.13h.44c.09,0,.13,0,.15.13ZM141,80.5a3.26,3.26,0,0,0,1.45.3c1.37,0,2.19-1,2.19-2.7s-.77-2.7-2.09-2.7-2.13,1.23-2.13,2.85v2Z" transform="translate(-15.3 -19.47)" fill="#fff"/><path d="M148.75,75.66c0,.14.13.14.23,0a2.41,2.41,0,0,1,2.15-1.14,2,2,0,0,1,2,1.28c.1.16.22.13.32,0a2.53,2.53,0,0,1,2.29-1.29c1.47,0,2.34,1,2.34,2.76v4.08a.12.12,0,0,1-.13.13h-.67a.12.12,0,0,1-.13-.13v-4c0-1.24-.53-2-1.49-2-1.5,0-2.13,1.2-2.13,2.87v3.12a.12.12,0,0,1-.13.13h-.67c-.08,0-.12,0-.12-.13v-4c0-1.23-.56-2-1.52-2-1.49,0-2.12,1.2-2.12,2.87v3.12a.12.12,0,0,1-.13.13h-.67a.12.12,0,0,1-.13-.13V74.82a.12.12,0,0,1,.13-.13h.44c.09,0,.13,0,.15.13Z" transform="translate(-15.3 -19.47)" fill="#fff"/><path d="M165,81.44a4.91,4.91,0,0,1-1.54.22c-2,0-3.13-1.37-3.13-3.56s1.18-3.55,3.12-3.55c1.61,0,2.58.78,2.58,2.11,0,1-.63,1.58-1.91,1.79l-2.78.46a2,2,0,0,0,2.12,1.89,4.28,4.28,0,0,0,1.33-.18l.43-.13a.14.14,0,0,1,.17.1l.17.57c0,.09,0,.14-.1.16Zm-1-3.77c.76-.13,1.14-.46,1.14-1,0-.8-.61-1.27-1.66-1.27-1.33,0-2.13.9-2.17,2.72Z" transform="translate(-15.3 -19.47)" fill="#fff"/><path d="M169.2,75.69c0,.13.13.13.21,0a2.62,2.62,0,0,1,2.28-1.15,2.45,2.45,0,0,1,2.53,2.76v4.08a.12.12,0,0,1-.13.13h-.67a.12.12,0,0,1-.13-.13v-4c0-1.24-.63-2-1.68-2-1.41,0-2.24,1.06-2.24,2.87v3.12a.12.12,0,0,1-.13.13h-.67a.12.12,0,0,1-.13-.13V74.82a.12.12,0,0,1,.13-.13H169c.09,0,.13,0,.13.13Z" transform="translate(-15.3 -19.47)" fill="#fff"/><path d="M179.76,74.69a.12.12,0,0,1,.13.13v.58a.12.12,0,0,1-.13.13h-1.58v4.32c0,.61.27,1,.75,1a1.27,1.27,0,0,0,.37-.07.13.13,0,0,1,.17.07l.25.53a.13.13,0,0,1-.06.17,1.7,1.7,0,0,1-.73.16,1.6,1.6,0,0,1-1.68-1.8V75.53h-.66c-.08,0-.12,0-.12-.13v-.58c0-.09,0-.13.12-.13h.66V73a.12.12,0,0,1,.1-.14l.68-.23c.09,0,.15,0,.15.11v2Z" transform="translate(-15.3 -19.47)" fill="#fff"/><path d="M189.31,71.71c2.56,0,4.11,1.87,4.11,4.9s-1.56,4.91-4.11,4.91h-3.15a.12.12,0,0,1-.13-.13V71.84c0-.09,0-.13.13-.13Zm-2.34,9h2.34c2,0,3.16-1.51,3.16-4s-1.17-4-3.16-4H187Z" transform="translate(-15.3 -19.47)" fill="#fff"/><path d="M196.69,74.76a5.06,5.06,0,0,1,1.52-.21A2.58,2.58,0,0,1,201,77.31v4.08a.12.12,0,0,1-.13.13h-.44c-.08,0-.12,0-.14-.13l0-.64c-.05-.19-.14-.17-.29,0a2.68,2.68,0,0,1-2.26.93,2,2,0,0,1-2.28-2c0-1.24.87-2.08,2.5-2.1h2.16v-.18a1.73,1.73,0,0,0-1.91-1.91,4.18,4.18,0,0,0-1.3.17l-.5.14a.12.12,0,0,1-.17-.09l-.16-.55c0-.09,0-.14.09-.17ZM198,78.31c-1.08,0-1.58.5-1.58,1.24s.52,1.27,1.43,1.27a2.1,2.1,0,0,0,2.31-2.32v-.19Z" transform="translate(-15.3 -19.47)" fill="#fff"/><path d="M206.52,74.69c.09,0,.13,0,.13.13v.58c0,.09,0,.13-.13.13h-1.58v4.32c0,.61.27,1,.75,1a1.21,1.21,0,0,0,.37-.07.13.13,0,0,1,.17.07l.25.53a.12.12,0,0,1-.06.17,1.7,1.7,0,0,1-.73.16,1.6,1.6,0,0,1-1.68-1.8V75.53h-.65c-.09,0-.13,0-.13-.13v-.58c0-.09,0-.13.13-.13H204V73a.12.12,0,0,1,.1-.14l.68-.23c.09,0,.15,0,.15.11v2Z" transform="translate(-15.3 -19.47)" fill="#fff"/><path d="M209.58,74.76a5.18,5.18,0,0,1,1.53-.21,2.58,2.58,0,0,1,2.82,2.76v4.08a.12.12,0,0,1-.13.13h-.44a.13.13,0,0,1-.14-.13l-.05-.64c0-.19-.14-.17-.28,0a2.7,2.7,0,0,1-2.27.93,2,2,0,0,1-2.28-2c0-1.24.87-2.08,2.51-2.1H213v-.18a1.73,1.73,0,0,0-1.91-1.91,4.07,4.07,0,0,0-1.29.17l-.5.14c-.09,0-.15,0-.17-.09l-.16-.55c0-.09,0-.14.09-.17Zm1.27,3.55c-1.08,0-1.58.5-1.58,1.24s.51,1.27,1.42,1.27A2.1,2.1,0,0,0,213,78.5v-.19Z" transform="translate(-15.3 -19.47)" fill="#fff"/></svg>