<?xml version="1.0" encoding="UTF-8" standalone="no"?>
<!DOCTYPE svg PUBLIC "-//W3C//DTD SVG 1.1//EN" "http://www.w3.org/Graphics/SVG/1.1/DTD/svg11.dtd">
<svg width="100%" height="100%" viewBox="0 0 267 120" version="1.1" xmlns="http://www.w3.org/2000/svg" xmlns:xlink="http://www.w3.org/1999/xlink" xml:space="preserve" xmlns:serif="http://www.serif.com/" style="fill-rule:evenodd;clip-rule:evenodd;stroke-linejoin:round;stroke-miterlimit:2;">
    <g id="Layer-1" serif:id="Layer 1">
        <g transform="matrix(1.50816,0,0,1.50816,-73.3769,-31.5203)">
            <path d="M84.932,32.417L72.799,32.417L72.799,87.569L111.45,87.569L111.45,76.539L84.932,76.539L84.932,32.417Z" style="fill:white;fill-rule:nonzero;"/>
        </g>
        <g transform="matrix(1.50816,0,0,1.50816,-73.3769,-31.5203)">
            <rect x="51.644" y="32.417" width="12.134" height="55.152" style="fill:white;"/>
        </g>
        <g transform="matrix(1.50816,0,0,1.50816,-73.3769,-31.5203)">
            <rect x="93.771" y="53.395" width="13.258" height="8.57" style="fill:white;"/>
        </g>
        <g transform="matrix(1.50816,0,0,1.50816,-73.3769,-31.5203)">
            <path d="M166.687,59.836C166.686,45.577 156.579,34.378 141.496,32.65L141.496,43.797C149.111,45.432 154.001,51.647 154.001,59.993L154.001,60.151C154.001,69.921 147.304,76.617 137.377,76.617L128.001,76.617L128.001,32.418L115.868,32.418L115.868,87.569L137.377,87.569C154.71,87.569 166.686,75.515 166.686,59.993L166.686,59.836L166.687,59.836Z" style="fill:white;fill-rule:nonzero;"/>
        </g>
        <g transform="matrix(1.50816,0,0,1.50816,-73.3769,-31.5203)">
            <path d="M186.396,64.484L193.722,46.598L201.049,64.484L186.395,64.484L186.396,64.484ZM199.474,32.023L188.287,32.023L164.65,87.569L177.02,87.569L182.062,75.199L205.383,75.199L210.426,87.569L223.111,87.569L199.474,32.023Z" style="fill:white;fill-rule:nonzero;"/>
        </g>
    </g>
</svg>
