<?xml version="1.0" encoding="UTF-8" standalone="no"?>
<!DOCTYPE svg PUBLIC "-//W3C//DTD SVG 1.1//EN" "http://www.w3.org/Graphics/SVG/1.1/DTD/svg11.dtd">
<svg width="100%" height="100%" viewBox="0 0 100 100" version="1.1" xmlns="http://www.w3.org/2000/svg" xmlns:xlink="http://www.w3.org/1999/xlink" xml:space="preserve" style="fill-rule:evenodd;clip-rule:evenodd;stroke-linejoin:round;stroke-miterlimit:1.41421;">
    <g transform="matrix(1,0,0,1,5.68434e-14,-3.05055)">
        <path d="M91.5,12.015L91.5,92.015L8.5,92.015L8.5,12.015L91.5,12.015ZM57.282,76.467C58.703,76.467 59.856,75.314 59.856,73.893L59.856,66.172C59.856,64.159 60.677,62.028 65.343,55.364C67.647,52.082 68.864,48.255 68.864,44.294C68.864,33.648 60.206,24.99 49.56,24.99C38.915,24.99 30.256,33.648 30.256,44.294C30.256,48.118 31.389,51.815 33.535,55.014C33.595,55.135 33.661,55.251 33.741,55.361C38.439,62.069 39.265,64.19 39.265,66.172L39.265,73.893C39.265,75.314 40.418,76.467 41.839,76.467L46.986,76.467C46.986,77.136 47.27,77.805 47.733,78.294C48.222,78.758 48.891,79.041 49.56,79.041C50.229,79.041 50.899,78.758 51.388,78.294C51.851,77.806 52.134,77.136 52.134,76.467L57.282,76.467ZM54.708,68.745L54.708,71.319L44.413,71.319L44.413,68.745L54.708,68.745ZM54.991,63.598C55.614,60.874 57.357,57.796 61.13,52.409C62.823,49.997 63.717,47.192 63.717,44.294C63.717,36.487 57.367,30.137 49.56,30.137C41.754,30.137 35.404,36.487 35.404,44.294C35.404,47.194 36.297,50 37.988,52.404C38.063,52.512 38.13,52.623 38.186,52.736C41.81,57.935 43.504,60.947 44.122,63.598L46.986,63.598L46.986,58.45C46.986,57.029 48.139,55.876 49.56,55.876C50.981,55.876 52.134,57.029 52.134,58.45L52.134,63.598L54.991,63.598ZM49.56,36.572C48.85,36.572 48.273,37.149 48.273,37.859C48.273,38.569 48.85,39.146 49.56,39.146C52.348,39.146 54.615,41.414 54.615,44.201C54.615,44.911 55.192,45.488 55.902,45.488C56.613,45.488 57.189,44.911 57.189,44.201C57.189,39.995 53.766,36.572 49.56,36.572Z"/>
    </g>
</svg>
