<?xml version="1.0" standalone="no"?><!DOCTYPE svg PUBLIC "-//W3C//DTD SVG 1.1//EN" "http://www.w3.org/Graphics/SVG/1.1/DTD/svg11.dtd"><svg version="1.1" id="Layer_8" xmlns:xlink="http://www.w3.org/1999/xlink" x="0px" y="0px" width="175px" height="58px" viewBox="0 0 390 80" enable-background="new 0 0 390 80" xml:space="preserve" xmlns="http://www.w3.org/2000/svg" style="border-bottom-color:rgb(218, 44, 53);border-left-color:rgb(218, 44, 53);border-right-color:rgb(218, 44, 53);border-top-color:rgb(218, 44, 53);color:rgb(218, 44, 53);cursor:pointer;font-family:roboto, sans-serif;height:58px;outline-color:rgb(218, 44, 53);text-align:center;text-decoration:none solid rgb(218, 44, 53);text-decoration-color:rgb(218, 44, 53);width:175px;column-rule-color:rgb(218, 44, 53);perspective-origin:87.5px 29px;-webkit-text-emphasis-color:rgb(218, 44, 53);-webkit-text-fill-color:rgb(218, 44, 53);-webkit-text-stroke-color:rgb(218, 44, 53);transform-origin:87.5px 29px;caret-color:rgb(218, 44, 53);">
	 <!-- SPARC -->
	 <g style="border-bottom-color:rgb(218, 44, 53);border-left-color:rgb(218, 44, 53);border-right-color:rgb(218, 44, 53);border-top-color:rgb(218, 44, 53);color:rgb(218, 44, 53);cursor:pointer;font-family:roboto, sans-serif;height:auto;outline-color:rgb(218, 44, 53);overflow-x:visible;overflow-y:visible;text-align:center;text-decoration:none solid rgb(218, 44, 53);text-decoration-color:rgb(218, 44, 53);width:auto;column-rule-color:rgb(218, 44, 53);perspective-origin:0px 0px;-webkit-text-emphasis-color:rgb(218, 44, 53);-webkit-text-fill-color:rgb(218, 44, 53);-webkit-text-stroke-color:rgb(218, 44, 53);transform-origin:0px 0px;caret-color:rgb(218, 44, 53);">
	     <path fill="#FFFFFF" d="M33,34c-9-2.52-14.16-4.47-14.16-10,0-4.1,3.54-6.89,10-6.89A20.36,20.36,0,0,1,44.21,24.7l0.1,0.11a2.7,2.7,0,0,0,&#10;&#9;&#9;&#9; 2.06.95,2.67,2.67,0,0,0,1.49-.45l0.26-.19,0,0,0.24-.18,5.4-4.1,0.73-.56a2.79,2.79,0,0,0,.76-1.91,2.72,2.72,0,0,&#10;&#9;&#9;&#9; 0-.47-1.54h0l-0.24-.31c-5-6.37-13.06-11.75-25.65-11.75C14.11,4.72,4,12.45,4,25.31,4,39.75,16.9,42.92,29.2,46.37c9,2.52,&#10;&#9;&#9;&#9; 14,4.75,14,10s-5,7.92-12,7.92A20.23,20.23,0,0,1,14,55.1l0,0-0.08-.12-0.07-.1a2.94,2.94,0,0,0-2.39-1.21,3,3,0,0,&#10;&#9;&#9;&#9; 0-1.38.33h0l-0.28.17L3.87,57.65l-0.25.15-0.45.26A2.78,2.78,0,0,0,2,60.31a2.72,2.72,0,0,0,.29,1.24L2.59,62c5.37,8.46,14.3,&#10;&#9;&#9;&#9; 14.3,27.83,14.3,19.19,0,27.58-9.88,27.58-21C58,41.06,45.13,37.24,33,34Z" style="border-bottom-color:rgb(218, 44, 53);border-left-color:rgb(218, 44, 53);border-right-color:rgb(218, 44, 53);border-top-color:rgb(218, 44, 53);color:rgb(218, 44, 53);cursor:pointer;font-family:roboto, sans-serif;height:auto;outline-color:rgb(218, 44, 53);overflow-x:visible;overflow-y:visible;text-align:center;text-decoration:none solid rgb(218, 44, 53);text-decoration-color:rgb(218, 44, 53);width:auto;column-rule-color:rgb(218, 44, 53);perspective-origin:0px 0px;-webkit-text-emphasis-color:rgb(218, 44, 53);-webkit-text-fill-color:rgb(218, 44, 53);-webkit-text-stroke-color:rgb(218, 44, 53);transform-origin:0px 0px;fill:rgb(255, 255, 255);d:path('M 33 34 c -9 -2.52 -14.16 -4.47 -14.16 -10 c 0 -4.1 3.54 -6.89 10 -6.89 A 20.36 20.36 0 0 1 44.21 24.7 l 0.1 0.11 a 2.7 2.7 0 0 0 2.06 0.95 a 2.67 2.67 0 0 0 1.49 -0.45 l 0.26 -0.19 l 0 0 l 0.24 -0.18 l 5.4 -4.1 l 0.73 -0.56 a 2.79 2.79 0 0 0 0.76 -1.91 a 2.72 2.72 0 0 0 -0.47 -1.54 h 0 l -0.24 -0.31 c -5 -6.37 -13.06 -11.75 -25.65 -11.75 C 14.11 4.72 4 12.45 4 25.31 C 4 39.75 16.9 42.92 29.2 46.37 c 9 2.52 14 4.75 14 10 s -5 7.92 -12 7.92 A 20.23 20.23 0 0 1 14 55.1 l 0 0 l -0.08 -0.12 l -0.07 -0.1 a 2.94 2.94 0 0 0 -2.39 -1.21 a 3 3 0 0 0 -1.38 0.33 h 0 l -0.28 0.17 L 3.87 57.65 l -0.25 0.15 l -0.45 0.26 A 2.78 2.78 0 0 0 2 60.31 a 2.72 2.72 0 0 0 0.29 1.24 L 2.59 62 c 5.37 8.46 14.3 14.3 27.83 14.3 c 19.19 0 27.58 -9.88 27.58 -21 C 58 41.06 45.13 37.24 33 34 Z');caret-color:rgb(218, 44, 53);"/>
	     <path fill="#FFFFFF" d="M93.65,6H71.36a2.78,2.78,0,0,0-2.78,2.78V72.19A2.78,2.78,0,0,0,71.36,75h9.54a2.78,2.78,0,0,0,2.77-2.64V50.47h9.78c13.79,&#10;&#9;&#9;&#9; 0,28.32-3.82,28.32-22.36C121.78,9.94,108.37,6,93.65,6ZM94,38.73H83.68V21.2h0a2.78,2.78,0,0,1,2.78-2.78H94c9.5,0,12.95,3.64,12.95,&#10;&#9;&#9;&#9; 10.06C107,35.1,103.43,38.73,94,38.73Z" style="border-bottom-color:rgb(218, 44, 53);border-left-color:rgb(218, 44, 53);border-right-color:rgb(218, 44, 53);border-top-color:rgb(218, 44, 53);color:rgb(218, 44, 53);cursor:pointer;font-family:roboto, sans-serif;height:auto;outline-color:rgb(218, 44, 53);overflow-x:visible;overflow-y:visible;text-align:center;text-decoration:none solid rgb(218, 44, 53);text-decoration-color:rgb(218, 44, 53);width:auto;column-rule-color:rgb(218, 44, 53);perspective-origin:0px 0px;-webkit-text-emphasis-color:rgb(218, 44, 53);-webkit-text-fill-color:rgb(218, 44, 53);-webkit-text-stroke-color:rgb(218, 44, 53);transform-origin:0px 0px;fill:rgb(255, 255, 255);d:path('M 93.65 6 H 71.36 a 2.78 2.78 0 0 0 -2.78 2.78 V 72.19 A 2.78 2.78 0 0 0 71.36 75 h 9.54 a 2.78 2.78 0 0 0 2.77 -2.64 V 50.47 h 9.78 c 13.79 0 28.32 -3.82 28.32 -22.36 C 121.78 9.94 108.37 6 93.65 6 Z M 94 38.73 H 83.68 V 21.2 h 0 a 2.78 2.78 0 0 1 2.78 -2.78 H 94 c 9.5 0 12.95 3.64 12.95 10.06 C 107 35.1 103.43 38.73 94 38.73 Z');caret-color:rgb(218, 44, 53);"/>
	     <path fill="#FFFFFF" d="M157.49,7.73a2,2,0,0,0-.1-0.28,2.78,2.78,0,0,0-2.57-1.7h-10.5a2.78,2.78,0,0,0-2.66,2L117.94,75h12a2.79,2.79,0,0,0,&#10;&#9;&#9;&#9; 2.66-2l4.64-13.42h23.48l4.37,13.13h0l0.23,0.66A2.77,2.77,0,0,0,167.81,75H181.2ZM141,48.6l8.1-23.48h0.18l7.92,23.48H141Z" style="border-bottom-color:rgb(218, 44, 53);border-left-color:rgb(218, 44, 53);border-right-color:rgb(218, 44, 53);border-top-color:rgb(218, 44, 53);color:rgb(218, 44, 53);cursor:pointer;font-family:roboto, sans-serif;height:auto;outline-color:rgb(218, 44, 53);overflow-x:visible;overflow-y:visible;text-align:center;text-decoration:none solid rgb(218, 44, 53);text-decoration-color:rgb(218, 44, 53);width:auto;column-rule-color:rgb(218, 44, 53);perspective-origin:0px 0px;-webkit-text-emphasis-color:rgb(218, 44, 53);-webkit-text-fill-color:rgb(218, 44, 53);-webkit-text-stroke-color:rgb(218, 44, 53);transform-origin:0px 0px;fill:rgb(255, 255, 255);d:path('M 157.49 7.73 a 2 2 0 0 0 -0.1 -0.28 a 2.78 2.78 0 0 0 -2.57 -1.7 h -10.5 a 2.78 2.78 0 0 0 -2.66 2 L 117.94 75 h 12 a 2.79 2.79 0 0 0 2.66 -2 l 4.64 -13.42 h 23.48 l 4.37 13.13 h 0 l 0.23 0.66 A 2.77 2.77 0 0 0 167.81 75 H 181.2 Z M 141 48.6 l 8.1 -23.48 h 0.18 l 7.92 23.48 H 141 Z');caret-color:rgb(218, 44, 53);"/>
	     <path fill="#FFFFFF" d="M227.86,47c9.22-2.79,14.35-8.76,14.35-19.66C242.21,12.08,232,6,215.09,6H192a2.79,2.79,0,0,0-2.78,2.78V72.19A2.79,2.79,0,0,0,192,&#10;&#9;&#9;&#9; 75h9.35a2.78,2.78,0,0,0,2.78-2.78V49h8.76l13.46,24.37,0.2,0.38h0a2.75,2.75,0,0,0,2.3,1.23h14.4Zm-13.42-9.78H204.1v-16a2.78,2.78,0,0,1,&#10;&#9;&#9;&#9; 2.78-2.78h7.56c8.76,0,12.95,2.51,12.95,9.32C227.39,34.72,223.2,37.24,214.44,37.24Z" style="border-bottom-color:rgb(218, 44, 53);border-left-color:rgb(218, 44, 53);border-right-color:rgb(218, 44, 53);border-top-color:rgb(218, 44, 53);color:rgb(218, 44, 53);cursor:pointer;font-family:roboto, sans-serif;height:auto;outline-color:rgb(218, 44, 53);overflow-x:visible;overflow-y:visible;text-align:center;text-decoration:none solid rgb(218, 44, 53);text-decoration-color:rgb(218, 44, 53);width:auto;column-rule-color:rgb(218, 44, 53);perspective-origin:0px 0px;-webkit-text-emphasis-color:rgb(218, 44, 53);-webkit-text-fill-color:rgb(218, 44, 53);-webkit-text-stroke-color:rgb(218, 44, 53);transform-origin:0px 0px;fill:rgb(255, 255, 255);d:path('M 227.86 47 c 9.22 -2.79 14.35 -8.76 14.35 -19.66 C 242.21 12.08 232 6 215.09 6 H 192 a 2.79 2.79 0 0 0 -2.78 2.78 V 72.19 A 2.79 2.79 0 0 0 192 75 h 9.35 a 2.78 2.78 0 0 0 2.78 -2.78 V 49 h 8.76 l 13.46 24.37 l 0.2 0.38 h 0 a 2.75 2.75 0 0 0 2.3 1.23 h 14.4 Z m -13.42 -9.78 H 204.1 v -16 a 2.78 2.78 0 0 1 2.78 -2.78 h 7.56 c 8.76 0 12.95 2.51 12.95 9.32 C 227.39 34.72 223.2 37.24 214.44 37.24 Z');caret-color:rgb(218, 44, 53);"/>
	     <path fill="#FFFFFF" d="M307.38,52.08l-0.11,0-8.56-1.9h0l-0.43-.1a2.18,2.18,0,0,0-.37,0,2.77,2.77,0,0,0-2.58,1.75h0c0,0.14-.08.27-0.13,0.41h0c-2.48,&#10;&#9;&#9;&#9; 7.71-6.46,11.88-13.77,11.88-10.43,0-16.21-9.14-16.21-23.67,0-14.26,5.59-23.11,16-23.11,7.18,0,10.63,4.24,12.88,10.72a2.78,2.78,0,0,0,&#10;&#9;&#9;&#9; 2.66,2,2.06,2.06,0,0,0,.5-0.06h0.05l0.28-.07,0.13,0,8.69-2.54,0.36-.1a2.84,2.84,0,0,0,1.74-3.49l-0.08-.26,0,0c-3.47-10.83-11.14-18.64-27.1-18.64-17.42,&#10;&#9;&#9;&#9; 0-31.3,11.74-31.3,35.68,0,24.32,13.32,35.87,31.3,35.87,16,0,24.19-8.22,28-20.37l0,0,0.13-.44v0a3.09,3.09,0,0,0,.06-0.56A2.81,2.81,0,0,0,307.38,52.08Z" style="border-bottom-color:rgb(218, 44, 53);border-left-color:rgb(218, 44, 53);border-right-color:rgb(218, 44, 53);border-top-color:rgb(218, 44, 53);color:rgb(218, 44, 53);cursor:pointer;font-family:roboto, sans-serif;height:auto;outline-color:rgb(218, 44, 53);overflow-x:visible;overflow-y:visible;text-align:center;text-decoration:none solid rgb(218, 44, 53);text-decoration-color:rgb(218, 44, 53);width:auto;column-rule-color:rgb(218, 44, 53);perspective-origin:0px 0px;-webkit-text-emphasis-color:rgb(218, 44, 53);-webkit-text-fill-color:rgb(218, 44, 53);-webkit-text-stroke-color:rgb(218, 44, 53);transform-origin:0px 0px;fill:rgb(255, 255, 255);d:path('M 307.38 52.08 l -0.11 0 l -8.56 -1.9 h 0 l -0.43 -0.1 a 2.18 2.18 0 0 0 -0.37 0 a 2.77 2.77 0 0 0 -2.58 1.75 h 0 c 0 0.14 -0.08 0.27 -0.13 0.41 h 0 c -2.48 7.71 -6.46 11.88 -13.77 11.88 c -10.43 0 -16.21 -9.14 -16.21 -23.67 c 0 -14.26 5.59 -23.11 16 -23.11 c 7.18 0 10.63 4.24 12.88 10.72 a 2.78 2.78 0 0 0 2.66 2 a 2.06 2.06 0 0 0 0.5 -0.06 h 0.05 l 0.28 -0.07 l 0.13 0 l 8.69 -2.54 l 0.36 -0.1 a 2.84 2.84 0 0 0 1.74 -3.49 l -0.08 -0.26 l 0 0 c -3.47 -10.83 -11.14 -18.64 -27.1 -18.64 c -17.42 0 -31.3 11.74 -31.3 35.68 c 0 24.32 13.32 35.87 31.3 35.87 c 16 0 24.19 -8.22 28 -20.37 l 0 0 l 0.13 -0.44 v 0 a 3.09 3.09 0 0 0 0.06 -0.56 A 2.81 2.81 0 0 0 307.38 52.08 Z');caret-color:rgb(218, 44, 53);"/>
	  </g>
		<!-- Asterisk -->
	  <g style="border-bottom-color:rgb(218, 44, 53);border-left-color:rgb(218, 44, 53);border-right-color:rgb(218, 44, 53);border-top-color:rgb(218, 44, 53);color:rgb(218, 44, 53);cursor:pointer;font-family:roboto, sans-serif;height:auto;outline-color:rgb(218, 44, 53);overflow-x:visible;overflow-y:visible;text-align:center;text-decoration:none solid rgb(218, 44, 53);text-decoration-color:rgb(218, 44, 53);width:auto;column-rule-color:rgb(218, 44, 53);perspective-origin:0px 0px;-webkit-text-emphasis-color:rgb(218, 44, 53);-webkit-text-fill-color:rgb(218, 44, 53);-webkit-text-stroke-color:rgb(218, 44, 53);transform-origin:0px 0px;caret-color:rgb(218, 44, 53);">
	     <path fill-rule="evenodd" class="animate active" clip-rule="evenodd" d="M330.51,70.17c-0.29,0-.36-0.29-0.22-0.87l16.13-27.69-32,.22a0.58,0.58,0,0,1-.65-0.65V39.86a0.75,0.75,0,0,1,.65-0.65l32,0.22L330.29,&#10;&#9;&#9;&#9; 11.74c-0.29-.29-0.22-0.58.22-0.87l1.09-.65c0.14-.29.44-0.22,0.87,0.22l15.91,27.9,15.91-27.9c0.29-.44.58-0.51,0.87-0.22l1.09,0.65a0.72,0.72,0,0,&#10;&#9;&#9;&#9; 1,.22.87L350.35,39.43l32-.22a0.58,0.58,0,0,1,.65.65v1.31a0.58,0.58,0,0,1-.65.65l-32-.22,16.13,27.69a0.63,0.63,0,0,1-.22.87l-1.09.65a0.63,0.63,&#10;&#9;&#9;&#9; 0,0,1-.87-0.22L348.39,42.7,332.47,70.6c-0.29.44-.58,0.51-0.87,0.22Z" style="animation-duration:1s;animation-name:pulse-shrink;animation-timing-function:ease-in-out;border-bottom-color:rgb(218, 44, 53);border-left-color:rgb(218, 44, 53);border-right-color:rgb(218, 44, 53);border-top-color:rgb(218, 44, 53);color:rgb(218, 44, 53);cursor:pointer;font-family:roboto, sans-serif;height:auto;outline-color:rgb(218, 44, 53);overflow-x:visible;overflow-y:visible;text-align:center;text-decoration:none solid rgb(218, 44, 53);text-decoration-color:rgb(218, 44, 53);width:auto;column-rule-color:rgb(218, 44, 53);perspective-origin:0px 0px;-webkit-text-emphasis-color:rgb(218, 44, 53);-webkit-text-fill-color:rgb(218, 44, 53);-webkit-text-stroke-color:rgb(218, 44, 53);transform-origin:0px 0px;clip-rule:evenodd;fill:rgb(217, 46, 53);fill-rule:evenodd;d:path('M 330.51 70.17 c -0.29 0 -0.36 -0.29 -0.22 -0.87 l 16.13 -27.69 l -32 0.22 a 0.58 0.58 0 0 1 -0.65 -0.65 V 39.86 a 0.75 0.75 0 0 1 0.65 -0.65 l 32 0.22 L 330.29 11.74 c -0.29 -0.29 -0.22 -0.58 0.22 -0.87 l 1.09 -0.65 c 0.14 -0.29 0.44 -0.22 0.87 0.22 l 15.91 27.9 l 15.91 -27.9 c 0.29 -0.44 0.58 -0.51 0.87 -0.22 l 1.09 0.65 a 0.72 0.72 0 0 1 0.22 0.87 L 350.35 39.43 l 32 -0.22 a 0.58 0.58 0 0 1 0.65 0.65 v 1.31 a 0.58 0.58 0 0 1 -0.65 0.65 l -32 -0.22 l 16.13 27.69 a 0.63 0.63 0 0 1 -0.22 0.87 l -1.09 0.65 a 0.63 0.63 0 0 1 -0.87 -0.22 L 348.39 42.7 L 332.47 70.6 c -0.29 0.44 -0.58 0.51 -0.87 0.22 Z');caret-color:rgb(218, 44, 53);"/>
	     <path fill-rule="evenodd" class="animate active" clip-rule="evenodd" d="M332,76a5.42,5.42,0,0,1-3.21-1.06l-0.32-.19a5.21,5.21,0,0,1-2.07-1.6,5.66,5.66,0,0,1-.9-5.08l0.17-.68,12.07-20.72-23.28.16a5.54,5.54,&#10;&#9;&#9;&#9; 0,0,1-5.69-5.65V39.07l0.25-.76a5.7,5.7,0,0,1,5.4-4.09l23.31,0.16L326.15,14.56a5.42,5.42,0,0,1-1-3.7,5.61,5.61,0,0,1,2.6-4.16l0.74-.45A5.22,5.22,&#10;&#9;&#9;&#9; 0,0,1,331.85,5,5.79,5.79,0,0,1,336,6.9l0.48,0.48,11.9,20.87L360.14,7.66A5.61,5.61,0,0,1,364.83,5,5.42,5.42,0,0,1,368,6.11l1.33,0.8,0.43,0.43A5.7,&#10;&#9;&#9;&#9; 5.7,0,0,1,371,13.94l-0.17.32L359.08,34.37l23.28-.16A5.54,5.54,0,0,1,388,39.86v1.31a5.53,5.53,0,0,1-5.65,5.65l-23.31-.16,12,20.56,0.17,0.5a5.59,&#10;&#9;&#9;&#9; 5.59,0,0,1-2.48,6.78l-1.48.89-0.53.17A5.66,5.66,0,0,1,359.92,73L348.39,52.79l-11.76,20.6A5.61,5.61,0,0,1,332,76Z" style="animation-duration:1s;animation-name:pulse-shrink;animation-timing-function:ease-in-out;border-bottom-color:rgb(218, 44, 53);border-left-color:rgb(218, 44, 53);border-right-color:rgb(218, 44, 53);border-top-color:rgb(218, 44, 53);color:rgb(218, 44, 53);cursor:pointer;font-family:roboto, sans-serif;height:auto;outline-color:rgb(218, 44, 53);overflow-x:visible;overflow-y:visible;text-align:center;text-decoration:none solid rgb(218, 44, 53);text-decoration-color:rgb(218, 44, 53);width:auto;column-rule-color:rgb(218, 44, 53);perspective-origin:0px 0px;-webkit-text-emphasis-color:rgb(218, 44, 53);-webkit-text-fill-color:rgb(218, 44, 53);-webkit-text-stroke-color:rgb(218, 44, 53);transform-origin:0px 0px;clip-rule:evenodd;fill:rgb(217, 46, 53);fill-rule:evenodd;d:path('M 332 76 a 5.42 5.42 0 0 1 -3.21 -1.06 l -0.32 -0.19 a 5.21 5.21 0 0 1 -2.07 -1.6 a 5.66 5.66 0 0 1 -0.9 -5.08 l 0.17 -0.68 l 12.07 -20.72 l -23.28 0.16 a 5.54 5.54 0 0 1 -5.69 -5.65 V 39.07 l 0.25 -0.76 a 5.7 5.7 0 0 1 5.4 -4.09 l 23.31 0.16 L 326.15 14.56 a 5.42 5.42 0 0 1 -1 -3.7 a 5.61 5.61 0 0 1 2.6 -4.16 l 0.74 -0.45 A 5.22 5.22 0 0 1 331.85 5 A 5.79 5.79 0 0 1 336 6.9 l 0.48 0.48 l 11.9 20.87 L 360.14 7.66 A 5.61 5.61 0 0 1 364.83 5 A 5.42 5.42 0 0 1 368 6.11 l 1.33 0.8 l 0.43 0.43 A 5.7 5.7 0 0 1 371 13.94 l -0.17 0.32 L 359.08 34.37 l 23.28 -0.16 A 5.54 5.54 0 0 1 388 39.86 v 1.31 a 5.53 5.53 0 0 1 -5.65 5.65 l -23.31 -0.16 l 12 20.56 l 0.17 0.5 a 5.59 5.59 0 0 1 -2.48 6.78 l -1.48 0.89 l -0.53 0.17 A 5.66 5.66 0 0 1 359.92 73 L 348.39 52.79 l -11.76 20.6 A 5.61 5.61 0 0 1 332 76 Z');caret-color:rgb(218, 44, 53);"/>
	  </g>
	 </svg>