<?xml version="1.0" encoding="iso-8859-1"?>
<!-- Generator: Adobe Illustrator 19.0.0, SVG Export Plug-In . SVG Version: 6.00 Build 0)  -->
<svg version="1.1" id="Layer_1" xmlns="http://www.w3.org/2000/svg" xmlns:xlink="http://www.w3.org/1999/xlink" x="0px" y="0px"
	 viewBox="0 0 511.998 511.998" style="enable-background:new 0 0 511.998 511.998;" xml:space="preserve">
<g>
	<g>
		<path d="M368.604,327.843c-4.048,0.173-7.385,3.231-7.909,7.249c-0.526,4.018,1.915,7.83,5.783,9.037
			c30.377,9.476,59.229,9.356,83.442-0.343c22.359-8.957,39.929-25.436,50.806-47.656c12.435-25.4,14.664-55.495,6.278-84.741
			c-9.139-31.877-29.942-59.843-60.159-80.879c-25.003-17.405-67.5-34.967-106.078-34.967c-41.87,0-75.617,8.298-103.172,25.367
			c-3.913,2.424-5.12,7.562-2.697,11.475c2.425,3.913,7.564,5.121,11.475,2.696c24.841-15.388,55.716-22.868,94.394-22.868
			c34.776,0,74.428,16.577,96.553,31.979c44.188,30.762,75.013,90.31,48.431,144.607c-9.033,18.452-23.566,32.114-42.031,39.511
			c-11.711,4.691-24.838,6.7-38.881,6.041c3.297-1.717,6.584-3.631,9.823-5.735c16.638-10.807,30.647-25.636,39.448-41.756
			c16.469-30.163,14.562-63.854-5.373-94.865c-17.575-27.342-48.922-44.505-86.006-47.092c-4.59-0.312-8.575,3.143-8.895,7.735
			c-0.32,4.592,3.143,8.575,7.735,8.895c31.314,2.183,58.656,16.94,73.141,39.475c21.128,32.87,14.253,60.484,4.765,77.862
			c-4.95,9.066-11.569,17.207-18.973,24.133c3.808-11.062,4.952-22.547,4.952-32.322c0-17.427-5.44-32.649-15.73-44.02
			c-4.191-4.63-23.483-16.994-29.003-19.38c-12.997-5.62-29.666-9.178-49.534-5.908c-23.217,3.821-42.813,14.71-58.243,32.363
			c-15.133,17.316-26.656,41.723-34.247,72.541c-1.101,4.47,1.63,8.986,6.099,10.087c0.67,0.164,1.34,0.245,2.001,0.245
			c3.745,0,7.152-2.544,8.087-6.344c13.724-55.713,39.569-85.95,79.01-92.442c1.405-0.231,2.783-0.406,4.148-0.556
			c-10.094,7.128-17.547,18.047-20.67,31.569c-6.234,26.99-3.738,71.257,23.817,107.193c28.891,37.678,78.052,58.007,146.116,60.421
			c0.101,0.003,0.201,0.006,0.301,0.006c4.467,0,8.166-3.541,8.325-8.04c0.163-4.6-3.434-8.462-8.034-8.626
			c-62.851-2.228-107.758-20.366-133.477-53.905c-25.694-33.508-25.166-74.41-20.802-93.295
			c4.977-21.543,22.983-29.385,38.625-27.604c18.188,2.074,36.542,17.008,36.542,45.698
			C408.787,324.959,370.194,327.753,368.604,327.843z"/>
	</g>
</g>
<g>
	<g>
		<path d="M223.814,141.169c-3.25-3.26-8.528-3.27-11.788-0.019c-34.449,34.338-48.323,82.447-60.564,124.891
			c-5.994,20.78-11.654,40.409-19.109,56.312c-13.618,29.051-38.529,50.889-74.042,64.907
			C31.267,397.934,7.953,399.787,7.72,399.805c-4.588,0.34-8.033,4.332-7.698,8.921c0.321,4.385,3.978,7.728,8.306,7.728
			c0.205,0,0.41-0.008,0.617-0.023c1.036-0.076,25.677-1.986,54.999-13.474c39.295-15.394,68.171-40.821,83.504-73.529
			c8.012-17.094,13.849-37.336,20.03-58.767c11.681-40.502,24.92-86.409,56.317-117.703
			C227.056,149.708,227.064,144.43,223.814,141.169z"/>
	</g>
</g>
<g>
	<g>
		<path d="M341.763,153.156c-0.68-4.553-4.931-7.691-9.476-7.012c-33.244,4.968-64.439,21.217-90.211,46.988
			c-3.255,3.255-3.255,8.533,0,11.788c1.628,1.628,3.761,2.442,5.895,2.442c2.132,0,4.266-0.814,5.894-2.441
			c23.229-23.229,51.198-37.853,80.885-42.289C339.303,161.951,342.443,157.708,341.763,153.156z"/>
	</g>
</g>
<g>
	<g>
		<path d="M233.773,215.818c-3.93-2.394-9.058-1.148-11.455,2.784c-9.612,15.786-16.648,33.378-23.451,50.39
			c-11.731,29.33-23.86,59.659-49.864,83.383c-3.402,3.103-3.642,8.375-0.54,11.775c1.645,1.803,3.899,2.717,6.161,2.717
			c2.006,0,4.018-0.719,5.616-2.177c28.828-26.301,41.679-58.433,54.107-89.508c6.852-17.131,13.323-33.312,22.212-47.91
			C238.952,223.341,237.705,218.213,233.773,215.818z"/>
	</g>
</g>
<g>
	<g>
		<path d="M320.664,365.57c-8.409-12.734-12.673-27.664-12.673-44.378c0-4.603-3.731-8.336-8.336-8.336
			c-4.605,0-8.336,3.732-8.336,8.336c0,20.037,5.193,38.058,15.435,53.565c1.602,2.427,4.257,3.743,6.963,3.743
			c1.577,0,3.172-0.447,4.587-1.381C322.144,374.583,323.202,369.412,320.664,365.57z"/>
	</g>
</g>
<g>
	<g>
		<path d="M366.611,400.121c-0.16-0.047-16.077-4.864-31.146-17.856c-3.487-3.005-8.749-2.618-11.757,0.87
			c-3.005,3.486-2.616,8.75,0.87,11.757c17.939,15.465,36.571,21.002,37.356,21.231c0.777,0.226,1.559,0.333,2.33,0.333
			c3.603,0,6.921-2.359,7.987-5.992C373.544,406.055,371.016,401.427,366.611,400.121z"/>
	</g>
</g>
<g>
	<g>
		<path d="M304.519,401.35c-32.847-23.609-27.416-65.365-27.156-67.218c0.657-4.549-2.493-8.773-7.043-9.439
			c-4.553-0.666-8.788,2.485-9.455,7.041c-0.318,2.172-7.309,53.519,33.924,83.155c1.472,1.058,3.172,1.567,4.858,1.567
			c2.592,0,5.147-1.205,6.775-3.471C309.11,409.246,308.258,404.036,304.519,401.35z"/>
	</g>
</g>
<g>
</g>
<g>
</g>
<g>
</g>
<g>
</g>
<g>
</g>
<g>
</g>
<g>
</g>
<g>
</g>
<g>
</g>
<g>
</g>
<g>
</g>
<g>
</g>
<g>
</g>
<g>
</g>
<g>
</g>
</svg>
